<svg width="183" height="183" viewBox="0 0 183 183" fill="none" xmlns="http://www.w3.org/2000/svg">
<path d="M182.05 90.8555C182.05 90.7749 182.049 90.6954 182.048 90.616C182.048 90.5856 182.048 90.5564 182.047 90.5272C182.047 90.4197 182.046 90.3121 182.043 90.2058C182.043 90.1334 182.042 90.0609 182.04 89.9896C182.037 89.8237 182.035 89.6589 182.03 89.4942C182.03 89.4544 182.029 89.4159 182.028 89.3762C182.023 89.1658 182.018 88.9555 182.012 88.7451C182.011 88.7113 182.011 88.6785 182.008 88.6458C182.008 88.6189 182.007 88.5921 182.006 88.5664C182.001 88.4273 181.997 88.2882 181.992 88.1504C181.974 87.6549 181.953 87.1606 181.926 86.6675C181.923 86.588 181.918 86.5086 181.914 86.4291C181.907 86.2795 181.897 86.13 181.888 85.9804C181.88 85.8285 181.87 85.6777 181.86 85.5258C181.852 85.3926 181.842 85.2606 181.833 85.1285C181.824 84.9859 181.813 84.8446 181.803 84.7032C181.77 84.2556 181.734 83.8081 181.694 83.3628C181.676 83.1677 181.659 82.9714 181.64 82.7762C181.257 78.7319 180.607 74.7647 179.712 70.8922C179.684 70.7753 179.657 70.6597 179.629 70.5428C179.579 70.3255 179.527 70.1093 179.475 69.8943C179.426 69.6933 179.377 69.4935 179.326 69.2948C179.281 69.1125 179.234 68.9302 179.187 68.7491C179.044 68.1859 178.893 67.625 178.737 67.0664C178.692 66.904 178.646 66.7415 178.601 66.5791C178.549 66.3992 178.498 66.2192 178.445 66.0393C178.399 65.8768 178.351 65.7132 178.302 65.5508C178.191 65.1757 178.077 64.8018 177.962 64.4302C177.866 64.124 177.769 63.8179 177.671 63.5117C177.595 63.2757 177.518 63.0408 177.439 62.8071C177.384 62.64 177.328 62.4717 177.271 62.3046C177.213 62.1282 177.152 61.9529 177.091 61.7776C177.044 61.6409 176.996 61.5042 176.948 61.3686C176.874 61.1536 176.798 60.9397 176.721 60.7259C176.689 60.6383 176.657 60.5506 176.626 60.4641C176.596 60.3765 176.564 60.29 176.531 60.2036C176.502 60.1229 176.472 60.0411 176.441 59.9605C176.382 59.7957 176.32 59.6322 176.258 59.4686C176.202 59.3166 176.144 59.1659 176.086 59.014C175.907 58.5466 175.725 58.0815 175.539 57.6176C175.53 57.5931 175.52 57.5685 175.51 57.5451C175.464 57.4306 175.419 57.3173 175.372 57.2039C175.322 57.0789 175.27 56.955 175.22 56.8323C175.115 56.5776 175.009 56.324 174.901 56.0704C174.829 55.8998 174.756 55.7304 174.684 55.561C174.611 55.3915 174.538 55.2221 174.463 55.0527C174.323 54.7301 174.18 54.4088 174.035 54.0886C173.966 53.9367 173.897 53.7836 173.827 53.6317C173.729 53.4167 173.631 53.2029 173.53 52.9902C173.459 52.8394 173.388 52.6887 173.317 52.538C173.238 52.3708 173.159 52.2049 173.078 52.039C173.002 51.8801 172.925 51.7211 172.847 51.5622C172.764 51.3904 172.68 51.2187 172.593 51.0481C172.511 50.8833 172.43 50.7197 172.347 50.5549C172.281 50.4241 172.215 50.292 172.147 50.1611C172.095 50.0595 172.043 49.9578 171.99 49.8562C171.885 49.6528 171.78 49.4518 171.675 49.2497H171.674L171.672 49.2462C171.646 49.1924 171.618 49.1398 171.588 49.0861C171.515 48.9459 171.441 48.8056 171.366 48.6666C171.278 48.4995 171.188 48.3324 171.096 48.1653C170.98 47.9503 170.861 47.7353 170.742 47.5202C170.587 47.2363 170.428 46.9547 170.268 46.673C170.178 46.513 170.087 46.354 169.996 46.1951C169.823 45.8936 169.647 45.5933 169.47 45.293C169.403 45.1797 169.335 45.0663 169.268 44.953C169.147 44.7508 169.026 44.5498 168.904 44.3488C168.846 44.2507 168.786 44.1525 168.725 44.0555C168.681 43.9819 168.637 43.9095 168.591 43.837C168.389 43.5086 168.184 43.1803 167.978 42.8543C167.907 42.7433 167.836 42.6311 167.765 42.5201C167.645 42.3331 167.524 42.1461 167.403 41.9592C167.281 41.7722 167.16 41.5864 167.037 41.4006C165.576 39.1886 164.021 37.0431 162.377 34.9725C162.199 34.7481 162.019 34.5249 161.839 34.3017C161.505 33.8892 161.167 33.4791 160.826 33.0713C160.752 32.9836 160.68 32.8983 160.608 32.8118C160.47 32.6471 160.331 32.4835 160.19 32.3211C160.005 32.1037 159.818 31.8864 159.63 31.6713C159.441 31.4552 159.252 31.2413 159.062 31.0275C158.871 30.8136 158.679 30.5998 158.488 30.3883C158.301 30.1826 158.114 29.977 157.926 29.7736C157.826 29.6661 157.727 29.5586 157.627 29.4523C157.491 29.3062 157.356 29.1625 157.22 29.0188C156.755 28.5268 156.285 28.0395 155.808 27.5569C155.692 27.4377 155.574 27.3197 155.455 27.2017C154.087 25.831 152.676 24.5035 151.223 23.2228C151.031 23.0545 150.84 22.8863 150.647 22.7192C150.531 22.6187 150.416 22.5182 150.3 22.42C149.934 22.1045 149.566 21.7937 149.194 21.4852C149.024 21.3426 148.853 21.2024 148.681 21.0622C148.659 21.0435 148.637 21.0248 148.614 21.0073C148.556 20.9593 148.499 20.9126 148.442 20.867C148.007 20.5118 147.568 20.1612 147.126 19.8153C146.922 19.6553 146.716 19.4952 146.51 19.3374C146.247 19.1341 145.982 18.9331 145.717 18.7344C145.545 18.6036 145.372 18.475 145.199 18.3477C145.147 18.3079 145.093 18.2682 145.039 18.2285C144.842 18.0824 144.643 17.9363 144.443 17.7926C144.211 17.6232 143.978 17.4561 143.744 17.2901C143.74 17.2866 143.736 17.2843 143.732 17.2808C143.501 17.1172 143.271 16.9559 143.041 16.7947C142.822 16.6428 142.604 16.4909 142.384 16.3413C142.367 16.3296 142.349 16.3167 142.332 16.3051C139.569 14.4167 136.696 12.6767 133.725 11.098C133.637 11.0501 133.547 11.0022 133.458 10.9555C133.295 10.869 133.133 10.7849 132.969 10.6996C132.807 10.6154 132.643 10.5301 132.48 10.4472C132.316 10.363 132.152 10.2801 131.989 10.1971C131.824 10.1141 131.661 10.0323 131.496 9.95054C131.32 9.8629 131.144 9.77526 130.968 9.68995C130.813 9.614 130.659 9.53921 130.505 9.46559C130.31 9.37211 130.116 9.27863 129.921 9.18631C129.882 9.16762 129.843 9.14892 129.805 9.13139C129.623 9.04609 129.439 8.95962 129.256 8.87548C129.089 8.79836 128.921 8.72123 128.754 8.64528C128.502 8.52959 128.25 8.41624 127.997 8.30406C127.829 8.22928 127.659 8.15449 127.491 8.08087C127.153 7.93247 126.813 7.7864 126.473 7.64267C126.303 7.57022 126.133 7.49894 125.963 7.42883C125.702 7.32015 125.44 7.21265 125.177 7.10631H125.175C122.004 5.82209 118.745 4.71198 115.407 3.78649C115.071 3.69301 114.733 3.60186 114.394 3.51305C114.375 3.50721 114.358 3.50254 114.339 3.49786C113.933 3.39036 113.524 3.28519 113.113 3.18353C112.908 3.13211 112.703 3.08186 112.498 3.03278C112.292 2.98254 112.086 2.93346 111.879 2.88555C111.605 2.82128 111.329 2.75818 111.053 2.69624C110.907 2.66353 110.761 2.63081 110.615 2.59926C110.412 2.55485 110.208 2.51045 110.005 2.46721C109.852 2.43566 109.7 2.40411 109.547 2.37256C109.346 2.33049 109.145 2.28959 108.944 2.24986C108.892 2.23935 108.839 2.22883 108.786 2.21831C108.573 2.17624 108.359 2.13535 108.145 2.09445C108.015 2.06991 107.887 2.04537 107.758 2.022C107.63 1.99746 107.5 1.97409 107.37 1.95072C107.101 1.90164 106.833 1.85373 106.563 1.80815C106.389 1.77777 106.213 1.74856 106.038 1.71935C105.851 1.6878 105.663 1.65741 105.475 1.6282C105.311 1.60132 105.146 1.57562 104.982 1.55108C104.819 1.52537 104.657 1.50083 104.494 1.47746C104.198 1.43305 103.9 1.39099 103.602 1.35009C103.513 1.33723 103.424 1.32555 103.335 1.31386C103.091 1.28114 102.846 1.24842 102.6 1.21804C102.051 1.14676 101.499 1.08249 100.947 1.02406C100.701 0.997188 100.456 0.971481 100.21 0.946941C100.08 0.932919 99.9475 0.920065 99.8155 0.908379C99.6846 0.895526 99.5514 0.882672 99.4193 0.870986C99.2242 0.85229 99.0279 0.83593 98.8316 0.81957C98.6984 0.807885 98.5652 0.7962 98.4319 0.786851C98.3198 0.777503 98.2076 0.768155 98.0966 0.759975C97.9482 0.74829 97.8009 0.737773 97.6525 0.727256C97.455 0.713233 97.2587 0.699211 97.0612 0.686357C95.5386 0.587031 94.0067 0.525099 92.4642 0.501728C91.9945 0.494717 91.5235 0.491211 91.0526 0.491211C41.7519 0.491211 1.60794 39.6969 0.0970168 88.6318V88.64C0.0970168 88.6481 0.0958483 88.6575 0.0958483 88.6657C0.0818258 89.1296 0.0713089 89.5935 0.0642977 90.0586C0.0607921 90.2467 0.058455 90.4349 0.0572865 90.6218C0.0572865 90.7153 0.0549494 90.8088 0.0549494 90.9023C0.0537808 91.0986 0.0526123 91.2949 0.0526123 91.4912C0.0526123 91.9528 0.0561179 92.4132 0.0631292 92.8724C0.0631292 92.9484 0.0654662 93.0243 0.0666348 93.0991V93.1155C0.0678033 93.1657 0.0689719 93.216 0.0689719 93.2662C0.0771516 93.6542 0.0864999 94.0386 0.0993539 94.4242C0.0993539 94.4792 0.102859 94.5341 0.104028 94.5878C0.109871 94.7549 0.115713 94.9209 0.122725 95.0868C0.122725 95.1102 0.123893 95.1324 0.125062 95.1546C0.130904 95.3006 0.136747 95.4467 0.143758 95.5916C0.147264 95.6863 0.151938 95.7809 0.156612 95.8744C0.161286 95.9679 0.165961 96.0625 0.170635 96.156C0.18232 96.3804 0.194006 96.6047 0.206859 96.8291C0.219713 97.0523 0.233736 97.2766 0.247758 97.4998C0.260612 97.6973 0.274635 97.8936 0.288657 98.0911C0.299174 98.2395 0.309691 98.3868 0.321376 98.5352C0.329556 98.6462 0.338904 98.7584 0.348253 98.8705C0.357601 99.0038 0.369286 99.137 0.380972 99.2702C0.397331 99.4665 0.413691 99.6628 0.432388 99.8579C0.444073 99.99 0.456927 100.123 0.469781 100.254C0.481466 100.386 0.49432 100.518 0.508343 100.649C0.532882 100.894 0.55859 101.14 0.585466 101.385C0.643893 101.938 0.708163 102.49 0.779444 103.039C0.809826 103.284 0.842545 103.53 0.875264 103.774C0.886949 103.863 0.898635 103.951 0.911489 104.04C0.952388 104.338 0.994455 104.636 1.03886 104.933C1.06223 105.095 1.08677 105.258 1.11248 105.42C1.13702 105.585 1.16272 105.75 1.1896 105.913C1.21881 106.101 1.2492 106.29 1.28075 106.477C1.30996 106.652 1.33917 106.827 1.36956 107.001C1.41513 107.271 1.46304 107.54 1.51212 107.809C1.53549 107.938 1.55886 108.068 1.5834 108.197C1.60677 108.325 1.63131 108.454 1.65585 108.583C1.69675 108.797 1.73765 109.011 1.77971 109.225C1.79023 109.278 1.80075 109.33 1.81126 109.383C1.85099 109.584 1.89189 109.785 1.93396 109.986C1.96551 110.139 1.99706 110.291 2.02861 110.444C2.07185 110.647 2.11625 110.85 2.16066 111.054C2.19221 111.2 2.22493 111.346 2.25765 111.492C2.31724 111.757 2.37801 112.022 2.43994 112.288C2.50187 112.552 2.56497 112.817 2.62924 113.081C2.69351 113.344 2.75895 113.608 2.82556 113.871C2.89099 114.134 2.95877 114.397 3.02771 114.659C3.13171 115.056 3.23805 115.451 3.34789 115.846C3.39931 116.032 3.45189 116.217 3.50448 116.403C3.55589 116.583 3.60731 116.763 3.65989 116.943C3.70196 117.088 3.7452 117.234 3.78843 117.379C3.86205 117.629 3.93684 117.878 4.01279 118.127C4.05369 118.258 4.09342 118.389 4.13432 118.521C4.14133 118.546 4.14951 118.571 4.15769 118.597C4.20911 118.759 4.25935 118.923 4.31194 119.085C4.41126 119.398 4.51293 119.71 4.61576 120.022C4.66717 120.178 4.71859 120.333 4.77117 120.489C4.82259 120.644 4.87517 120.798 4.92893 120.954C4.99086 121.136 5.05396 121.318 5.11823 121.5C5.21405 121.777 5.31221 122.054 5.4127 122.33C5.46529 122.481 5.52021 122.63 5.57513 122.78C5.63823 122.954 5.7025 123.128 5.76794 123.301C5.85207 123.526 5.93621 123.75 6.02151 123.973C6.10681 124.197 6.19329 124.421 6.28093 124.643C6.33819 124.791 6.39661 124.939 6.45621 125.087C6.52515 125.263 6.59526 125.438 6.66654 125.614C6.77288 125.877 6.88039 126.14 6.99023 126.401C7.06034 126.572 7.13162 126.741 7.20407 126.912C7.3478 127.252 7.49387 127.592 7.64227 127.93C7.71589 128.098 7.79068 128.267 7.86547 128.436C7.97765 128.688 8.09099 128.941 8.20668 129.193C8.28263 129.36 8.35976 129.527 8.43688 129.694C8.52102 129.878 8.60749 130.061 8.69279 130.243C8.71032 130.282 8.72902 130.321 8.74771 130.359C8.84003 130.554 8.93351 130.748 9.02699 130.943C9.10061 131.098 9.1754 131.252 9.25135 131.406C9.33666 131.583 9.4243 131.759 9.51194 131.934C9.59374 132.099 9.67553 132.263 9.7585 132.427C9.84147 132.591 9.92443 132.755 10.0086 132.918C10.0915 133.082 10.1768 133.245 10.261 133.408C10.3463 133.571 10.4304 133.734 10.5169 133.896C10.5636 133.985 10.6115 134.075 10.6594 134.164C10.6781 134.201 10.6968 134.238 10.7167 134.274C10.9948 134.796 11.2776 135.315 11.5674 135.83C11.7462 136.15 11.9273 136.469 12.1096 136.787C12.1797 136.91 12.251 137.033 12.3223 137.155C12.3503 137.204 12.3784 137.252 12.4064 137.3C12.5057 137.47 12.6051 137.64 12.7056 137.809C12.785 137.942 12.8645 138.075 12.9439 138.208C13.0853 138.443 13.2267 138.678 13.3705 138.913C13.4382 139.023 13.506 139.134 13.5738 139.244C13.7456 139.523 13.9197 139.801 14.0961 140.079C14.1931 140.233 14.2913 140.386 14.3894 140.539C14.4887 140.695 14.5892 140.851 14.6909 141.007C14.7891 141.158 14.8872 141.308 14.9865 141.458C15.1314 141.678 15.2775 141.897 15.4236 142.116C15.5708 142.334 15.7181 142.553 15.8665 142.77C15.8781 142.788 15.891 142.805 15.9027 142.823C16.0523 143.042 16.2042 143.261 16.3561 143.48C16.5173 143.71 16.6786 143.94 16.8422 144.17C16.8457 144.175 16.848 144.178 16.8515 144.183C17.0175 144.417 17.1846 144.649 17.354 144.882C17.4977 145.082 17.6438 145.28 17.7899 145.478C17.8296 145.531 17.8693 145.585 17.9091 145.638C18.0364 145.811 18.165 145.984 18.2958 146.155C18.4945 146.421 18.6955 146.686 18.8988 146.949C19.0566 147.155 19.2167 147.36 19.3767 147.565C19.7226 148.006 20.0732 148.446 20.4284 148.881C20.474 148.938 20.5207 148.995 20.5687 149.052C20.5862 149.076 20.6049 149.098 20.6236 149.12C20.7638 149.292 20.904 149.462 21.0466 149.633C21.3551 150.005 21.6659 150.373 21.9814 150.738C22.0796 150.854 22.1801 150.97 22.2806 151.086C22.4477 151.278 22.6159 151.47 22.7842 151.662C24.0649 153.114 25.3924 154.526 26.7631 155.894C26.8811 156.012 26.9991 156.13 27.1183 156.247C27.6009 156.724 28.0882 157.193 28.5802 157.659C28.7239 157.794 28.8676 157.93 29.0137 158.065C29.12 158.166 29.2275 158.265 29.335 158.364C29.5384 158.553 29.744 158.739 29.9497 158.926C30.1612 159.118 30.375 159.31 30.5889 159.5C30.8027 159.691 31.0166 159.88 31.2327 160.068C31.4478 160.256 31.6651 160.443 31.8825 160.629C32.0449 160.769 32.2085 160.908 32.3732 161.046C32.4597 161.119 32.545 161.191 32.6327 161.265C33.0405 161.606 33.4506 161.944 33.8631 162.278C34.0863 162.458 34.3095 162.638 34.5339 162.815C34.6122 162.878 34.6916 162.942 34.7699 163.001C35.152 163.305 35.5365 163.603 35.9244 163.897C36.0062 163.959 36.0869 164.021 36.1687 164.083C36.2119 164.116 36.254 164.149 36.2972 164.18C36.4958 164.331 36.6945 164.479 36.8955 164.628C37.1549 164.821 37.4167 165.012 37.6784 165.203C37.6842 165.207 37.6901 165.211 37.6948 165.214C37.8817 165.35 38.0699 165.485 38.258 165.617C38.2697 165.628 38.2825 165.637 38.2954 165.644C38.3188 165.662 38.3421 165.679 38.3655 165.695C38.3725 165.7 38.3795 165.706 38.3877 165.71C38.4683 165.768 38.549 165.826 38.6296 165.882C38.6717 165.912 38.7137 165.942 38.7558 165.97C38.9007 166.073 39.0456 166.175 39.1917 166.277C39.284 166.341 39.3775 166.405 39.4698 166.468C39.4815 166.476 39.4931 166.485 39.5048 166.493C39.714 166.638 39.9243 166.78 40.1358 166.924C40.1475 166.932 40.1604 166.94 40.1732 166.95C40.3847 167.092 40.5986 167.235 40.8124 167.376C40.8615 167.409 40.9118 167.443 40.962 167.475C41.2389 167.659 41.5171 167.84 41.7963 168.02C42.0756 168.2 42.3561 168.379 42.6377 168.556C42.8901 168.715 43.1437 168.874 43.3984 169.03C43.4709 169.075 43.5433 169.12 43.6169 169.164C43.7139 169.225 43.8121 169.284 43.9102 169.343C44.1112 169.464 44.3122 169.586 44.5144 169.706C44.6277 169.774 44.7411 169.842 44.8544 169.908C45.1547 170.086 45.455 170.261 45.7565 170.434C45.9154 170.525 46.0744 170.617 46.2345 170.706C46.467 170.839 46.6995 170.969 46.9332 171.099C46.9706 171.12 47.008 171.141 47.0454 171.161C47.1728 171.232 47.3002 171.302 47.4275 171.371C47.5549 171.441 47.6823 171.512 47.8096 171.581C48.0878 171.73 48.367 171.88 48.6475 172.027C48.6627 172.036 48.6779 172.043 48.6931 172.051C49.1359 172.284 49.58 172.514 50.0275 172.741C50.0579 172.756 50.0871 172.771 50.1163 172.785C50.2811 172.868 50.4447 172.95 50.6095 173.032C50.7801 173.118 50.9518 173.202 51.1236 173.285C51.2825 173.364 51.4415 173.441 51.6004 173.517C51.7663 173.597 51.9323 173.677 52.0994 173.755C52.2501 173.826 52.4008 173.898 52.5516 173.969C52.7643 174.07 52.9781 174.168 53.1931 174.266C53.345 174.336 53.4981 174.405 53.65 174.474C53.9702 174.619 54.2915 174.761 54.6141 174.902C54.7835 174.976 54.9529 175.05 55.1224 175.122C55.2918 175.195 55.4612 175.267 55.6318 175.34C55.8854 175.447 56.139 175.554 56.3937 175.659C56.5164 175.709 56.6403 175.76 56.7653 175.811C56.8787 175.857 56.992 175.903 57.1065 175.949C57.1299 175.959 57.1545 175.968 57.179 175.978C57.6429 176.164 58.108 176.346 58.5754 176.525C58.7273 176.583 58.878 176.64 59.03 176.696C59.1936 176.758 59.3572 176.82 59.5219 176.88C59.6025 176.91 59.6843 176.941 59.765 176.97C59.8514 177.003 59.9379 177.034 60.0256 177.065C60.112 177.096 60.1997 177.128 60.2873 177.159C60.5011 177.236 60.715 177.312 60.93 177.387C61.0656 177.435 61.2023 177.483 61.339 177.53C61.5143 177.59 61.6896 177.651 61.866 177.71C62.0331 177.767 62.2014 177.823 62.3685 177.878C62.6022 177.956 62.8371 178.033 63.0731 178.109C63.3793 178.207 63.6854 178.304 63.9916 178.4C64.3632 178.516 64.7371 178.629 65.1122 178.74C65.2746 178.789 65.4382 178.837 65.6007 178.884C65.7806 178.937 65.9606 178.988 66.1405 179.039C66.3029 179.085 66.4654 179.13 66.6278 179.176C67.1864 179.331 67.7473 179.482 68.3105 179.626C68.4916 179.673 68.6739 179.719 68.8562 179.765C69.0549 179.815 69.2547 179.864 69.4557 179.913C69.7875 179.994 70.1206 180.072 70.4536 180.151C71.0963 180.299 71.7413 180.44 72.3887 180.575C72.4962 180.598 72.6049 180.62 72.7136 180.643C72.8468 180.671 72.9811 180.697 73.1155 180.723C73.2371 180.748 73.3574 180.771 73.4789 180.796C73.9779 180.894 74.4781 180.987 74.9805 181.076C75.1827 181.112 75.386 181.149 75.5893 181.182C75.8032 181.22 76.0182 181.255 76.2332 181.29C76.2344 181.291 76.2355 181.291 76.2367 181.29C76.3068 181.302 76.3758 181.313 76.4459 181.325C76.6001 181.35 76.7555 181.374 76.9109 181.399C77.1762 181.441 77.4426 181.48 77.7091 181.52C77.9299 181.552 78.1496 181.583 78.3705 181.614C78.4896 181.63 78.6088 181.646 78.7292 181.663C78.8484 181.68 78.9676 181.695 79.0868 181.711C79.2118 181.728 79.3368 181.745 79.463 181.76C79.9153 181.817 80.3698 181.872 80.8256 181.922C81.0768 181.95 81.328 181.978 81.5804 182.004C81.8328 182.03 82.0852 182.055 82.3376 182.079C82.5328 182.097 82.7291 182.115 82.9242 182.132C83.3695 182.172 83.817 182.208 84.2646 182.241C84.406 182.252 84.5473 182.262 84.6899 182.272C84.822 182.281 84.954 182.29 85.0872 182.298C85.2391 182.309 85.3899 182.318 85.5418 182.326C85.6914 182.336 85.8409 182.345 85.9905 182.352C86.07 182.357 86.1494 182.362 86.2289 182.365C86.4357 182.376 86.6437 182.386 86.8505 182.395C86.9323 182.4 87.0141 182.404 87.0948 182.406C87.2058 182.411 87.3156 182.415 87.4266 182.42C87.7199 182.432 88.0132 182.442 88.3065 182.45C88.7354 182.463 89.1654 182.473 89.5966 182.478C89.7146 182.482 89.8327 182.483 89.9519 182.484C90.0921 182.487 90.2335 182.488 90.3749 182.489H90.3959C90.4683 182.49 90.5408 182.49 90.6144 182.49C90.7605 182.491 90.9065 182.491 91.0526 182.491C91.2489 182.491 91.4452 182.49 91.6415 182.489C91.8951 182.488 92.1499 182.485 92.4023 182.481C92.5518 182.478 92.7014 182.476 92.851 182.473C93.2366 182.465 93.6222 182.455 94.0078 182.443C94.3853 182.43 94.7616 182.416 95.1378 182.4C95.153 182.399 95.1682 182.399 95.1846 182.398C95.4101 182.387 95.6368 182.377 95.8623 182.365C96.1042 182.352 96.3449 182.339 96.5856 182.324C96.7562 182.314 96.9257 182.303 97.0963 182.293C97.2377 182.283 97.3791 182.274 97.5216 182.263C97.6619 182.254 97.8021 182.243 97.9435 182.233C98.0206 182.227 98.0989 182.221 98.1772 182.215C98.3174 182.205 98.4576 182.193 98.5979 182.182C99.0933 182.141 99.5888 182.096 100.083 182.047C100.199 182.037 100.314 182.025 100.431 182.012C100.766 181.978 101.1 181.942 101.434 181.905C102.186 181.82 102.937 181.726 103.685 181.621C103.965 181.582 104.245 181.541 104.525 181.499C104.664 181.478 104.804 181.457 104.943 181.436C105.082 181.415 105.222 181.394 105.361 181.372C105.733 181.314 106.105 181.253 106.474 181.189C106.658 181.158 106.843 181.125 107.028 181.092C107.212 181.06 107.397 181.027 107.58 180.993C108.501 180.824 109.419 180.641 110.329 180.445C111.058 180.289 111.784 180.123 112.506 179.947C112.773 179.882 113.041 179.816 113.307 179.749C113.43 179.718 113.553 179.687 113.676 179.655C113.961 179.583 114.245 179.509 114.529 179.433C114.641 179.403 114.752 179.374 114.863 179.343C115.31 179.223 115.757 179.098 116.202 178.97C116.401 178.913 116.599 178.856 116.798 178.797C117.33 178.641 117.859 178.48 118.386 178.314C118.65 178.231 118.913 178.147 119.175 178.061C119.438 177.977 119.699 177.891 119.961 177.803C120.309 177.685 120.658 177.567 121.005 177.447C121.178 177.386 121.351 177.325 121.523 177.264C121.757 177.181 121.99 177.096 122.222 177.012C122.278 176.992 122.334 176.971 122.391 176.95C122.649 176.855 122.907 176.76 123.164 176.663C123.328 176.601 123.491 176.539 123.655 176.476C123.818 176.414 123.981 176.351 124.144 176.286C124.811 176.027 125.473 175.758 126.132 175.483C126.464 175.344 126.795 175.203 127.125 175.06C127.13 175.059 127.135 175.057 127.139 175.055C127.394 174.945 127.648 174.833 127.901 174.72C128.253 174.565 128.604 174.407 128.952 174.246C129.219 174.124 129.486 174.001 129.751 173.876C130.04 173.74 130.328 173.602 130.616 173.463C130.749 173.399 130.881 173.335 131.014 173.269C131.148 173.205 131.281 173.139 131.413 173.073C132.017 172.774 132.618 172.467 133.214 172.155C133.379 172.068 133.545 171.98 133.711 171.893C133.88 171.804 134.048 171.714 134.215 171.623C134.383 171.533 134.55 171.441 134.716 171.35C135.05 171.168 135.382 170.983 135.713 170.795C135.801 170.746 135.889 170.696 135.977 170.646C136.145 170.551 136.314 170.454 136.482 170.357C136.65 170.26 136.818 170.162 136.986 170.064C137.153 169.966 137.32 169.867 137.487 169.768C137.653 169.669 137.82 169.57 137.986 169.469C138.162 169.363 138.339 169.255 138.514 169.148C138.648 169.066 138.783 168.984 138.916 168.9C139.102 168.787 139.286 168.671 139.471 168.554C139.735 168.388 139.999 168.22 140.261 168.052C140.288 168.034 140.315 168.017 140.342 167.999C140.562 167.856 140.782 167.714 141.002 167.569C141.074 167.522 141.146 167.474 141.218 167.425C141.391 167.312 141.564 167.196 141.736 167.081C141.792 167.044 141.848 167.006 141.903 166.968C141.98 166.917 142.056 166.865 142.132 166.813C142.335 166.675 142.537 166.536 142.739 166.397C142.894 166.291 143.048 166.183 143.202 166.076C143.51 165.859 143.817 165.642 144.122 165.422C144.36 165.251 144.599 165.078 144.836 164.904C144.984 164.795 145.133 164.686 145.28 164.575C145.405 164.483 145.529 164.389 145.653 164.296C145.993 164.042 146.332 163.784 146.668 163.523C146.714 163.488 146.759 163.453 146.804 163.418C147.558 162.833 148.305 162.235 149.041 161.623C149.164 161.522 149.288 161.42 149.409 161.317C149.532 161.216 149.654 161.114 149.775 161.01C149.939 160.872 150.102 160.733 150.266 160.593C150.67 160.246 151.072 159.895 151.471 159.541C151.681 159.354 151.889 159.167 152.097 158.979C152.278 158.815 152.458 158.651 152.638 158.485C152.789 158.347 152.94 158.207 153.09 158.066C153.255 157.913 153.419 157.759 153.581 157.605C153.745 157.451 153.907 157.295 154.07 157.14C154.169 157.045 154.268 156.949 154.366 156.853C154.466 156.756 154.565 156.661 154.663 156.564C154.934 156.301 155.204 156.033 155.472 155.764C155.64 155.596 155.807 155.427 155.974 155.257C156.183 155.046 156.39 154.832 156.596 154.618C156.706 154.505 156.816 154.39 156.924 154.276C157.065 154.13 157.204 153.982 157.342 153.835C157.449 153.722 157.555 153.608 157.661 153.494C158.092 153.032 158.516 152.566 158.937 152.095C159.136 151.871 159.336 151.646 159.534 151.42C159.573 151.375 159.612 151.331 159.651 151.287C159.828 151.083 160.005 150.88 160.18 150.674C160.355 150.47 160.53 150.264 160.705 150.057C160.754 149.999 160.804 149.939 160.853 149.88C161.034 149.663 161.215 149.446 161.394 149.228C161.598 148.979 161.802 148.73 162.003 148.479C162.04 148.433 162.076 148.389 162.111 148.343C162.282 148.13 162.45 147.919 162.617 147.705C162.739 147.552 162.859 147.396 162.98 147.242C163.023 147.187 163.065 147.132 163.108 147.076C163.293 146.838 163.476 146.598 163.657 146.358C163.74 146.248 163.823 146.137 163.906 146.027C163.996 145.908 164.086 145.789 164.174 145.668C164.194 145.642 164.213 145.617 164.232 145.591C164.581 145.12 164.924 144.647 165.263 144.17C165.295 144.125 165.327 144.079 165.36 144.033C165.512 143.818 165.664 143.603 165.812 143.388C165.943 143.2 166.073 143.012 166.203 142.823C166.274 142.719 166.345 142.615 166.415 142.511C166.551 142.312 166.684 142.113 166.816 141.915C166.918 141.763 167.018 141.611 167.119 141.458C167.32 141.153 167.519 140.847 167.716 140.539C167.815 140.385 167.913 140.231 168.01 140.077C168.696 138.993 169.36 137.894 170 136.779C170.136 136.543 170.27 136.307 170.403 136.071C170.69 135.563 170.971 135.051 171.247 134.537C171.357 134.333 171.466 134.129 171.574 133.923C171.58 133.915 171.585 133.906 171.588 133.896C171.845 133.409 172.098 132.919 172.347 132.427C172.481 132.163 172.612 131.898 172.743 131.633C172.795 131.527 172.848 131.42 172.899 131.314C173.041 131.025 173.18 130.735 173.317 130.444C173.396 130.279 173.474 130.111 173.553 129.945C173.63 129.778 173.708 129.611 173.784 129.444C173.861 129.276 173.938 129.109 174.014 128.941C174.151 128.638 174.286 128.335 174.42 128.031C174.509 127.828 174.596 127.625 174.684 127.421C174.756 127.252 174.829 127.083 174.901 126.912C174.974 126.741 175.045 126.572 175.115 126.401C175.186 126.231 175.256 126.059 175.326 125.888C175.42 125.663 175.511 125.436 175.601 125.209C175.647 125.091 175.695 124.976 175.74 124.858C175.808 124.686 175.876 124.514 175.942 124.341C176.014 124.158 176.085 123.973 176.154 123.79C176.348 123.28 176.536 122.77 176.721 122.257C176.783 122.082 176.844 121.908 176.906 121.734C176.908 121.732 176.909 121.728 176.91 121.725C176.971 121.552 177.031 121.379 177.091 121.205C177.152 121.03 177.211 120.853 177.271 120.678C177.475 120.075 177.673 119.471 177.863 118.863C177.887 118.789 177.91 118.716 177.934 118.641C177.999 118.432 178.063 118.223 178.126 118.014C178.175 117.855 178.223 117.693 178.272 117.532C178.284 117.491 178.296 117.451 178.309 117.411C178.354 117.255 178.4 117.099 178.445 116.943C178.611 116.373 178.771 115.801 178.926 115.228C178.966 115.078 179.006 114.929 179.046 114.778C179.094 114.597 179.141 114.416 179.187 114.233C179.222 114.095 179.259 113.956 179.294 113.817C179.358 113.563 179.421 113.307 179.483 113.051C179.513 112.927 179.544 112.803 179.573 112.678C179.623 112.466 179.673 112.254 179.723 112.042C179.762 111.867 179.803 111.692 179.842 111.516C179.927 111.14 180.009 110.763 180.088 110.385C180.127 110.205 180.164 110.025 180.2 109.845C180.232 109.692 180.264 109.538 180.294 109.384L180.385 108.921C180.411 108.787 180.437 108.652 180.462 108.518C180.497 108.337 180.53 108.156 180.564 107.975C180.583 107.868 180.602 107.761 180.621 107.654C180.659 107.444 180.696 107.235 180.732 107.023C180.764 106.841 180.794 106.659 180.824 106.477C180.856 106.29 180.886 106.101 180.916 105.913C180.976 105.538 181.034 105.162 181.089 104.785C181.117 104.595 181.143 104.407 181.169 104.218C181.238 103.73 181.302 103.242 181.362 102.752C181.383 102.581 181.404 102.41 181.424 102.238C181.464 101.91 181.5 101.582 181.535 101.252C181.556 101.064 181.575 100.875 181.593 100.686C181.61 100.531 181.625 100.377 181.639 100.221C181.652 100.092 181.663 99.962 181.675 99.8322C181.689 99.6733 181.704 99.5132 181.717 99.3543C181.737 99.1183 181.757 98.8811 181.774 98.645C181.794 98.4019 181.812 98.1577 181.829 97.9147C181.843 97.7219 181.856 97.5291 181.868 97.3351C181.918 96.5486 181.958 95.7587 181.987 94.9676C181.995 94.7456 182.002 94.5236 182.009 94.3015C182.021 93.9451 182.029 93.5899 182.036 93.2335C182.04 93.0442 182.043 92.8561 182.046 92.6668V92.6539C182.047 92.5768 182.047 92.4997 182.048 92.4214C182.049 92.3057 182.05 92.1888 182.05 92.0731C182.051 91.8792 182.053 91.6852 182.053 91.4912C182.053 91.2797 182.051 91.067 182.05 90.8555ZM120.855 76.2757C119.694 75.7767 118.254 75.5266 116.536 75.5266H108.065V88.9987L96.8217 100.183V66.1573H117.21C121.458 66.1573 124.994 66.8946 127.817 68.3682C128.033 68.4815 128.246 68.5972 128.454 68.7175L120.855 76.2757ZM108.065 118.628H96.8217V111.422L108.065 100.158V118.628ZM39.4078 93.022L67.0567 65.3253C70.7364 65.5508 74.0013 66.3454 76.849 67.7103L68.6611 75.9239C67.4762 75.6096 66.1697 75.4518 64.7406 75.4518C61.7912 75.4518 59.28 76.1518 57.207 77.5505C55.1329 78.9504 53.5589 80.9124 52.485 83.4353C51.4099 85.9593 50.8736 88.9952 50.8736 92.5429C50.8736 92.9495 50.8806 93.3492 50.8969 93.7418L41.1618 103.507C40.0365 100.335 39.4523 96.8396 39.4078 93.022ZM54.4411 104.818C55.2357 105.809 56.1577 106.652 57.207 107.347C59.28 108.722 61.7912 109.408 64.7406 109.408C67.8384 109.408 70.3496 108.747 72.2742 107.422C74.1976 106.098 75.4842 104.187 76.1339 101.688H88.4281C87.4278 107.235 84.8675 111.595 80.7438 114.767C76.6212 117.942 71.3113 119.528 64.8154 119.528C59.5687 119.528 55.0452 118.392 51.2475 116.117C49.5636 115.11 48.0504 113.924 46.7112 112.561L54.4411 104.818ZM131.741 118.628H123.883L114.59 98.4639H109.757L117.897 90.3098C120.014 90.1193 121.62 89.465 122.72 88.3443C123.92 87.122 124.577 85.5095 124.689 83.5066L134.046 74.1326C134.069 74.1723 134.092 74.212 134.114 74.2529C135.487 76.7022 136.176 79.4249 136.176 82.4233C136.176 85.222 135.512 87.8454 134.189 90.2935C132.864 92.7427 130.803 94.7164 128.005 96.2156C127.397 96.5416 126.75 96.8314 126.064 97.0862L135.014 115.342L131.741 118.628Z" fill="#FFE255"/>
<path d="M179.544 84.8722C179.24 80.7613 178.657 76.7275 177.812 72.7919C177.788 72.675 177.763 72.5582 177.738 72.4425C175.41 61.7983 171.172 51.8715 165.401 43.0362C165.365 42.9801 165.329 42.924 165.292 42.8679C163.873 40.7061 162.362 38.6098 160.765 36.5847C160.763 36.5835 160.762 36.5812 160.761 36.58C159.659 35.1836 158.517 33.8211 157.334 32.4936H157.333C152.424 26.9805 146.837 22.0855 140.702 17.9348C137.925 16.0581 135.038 14.3334 132.049 12.7745C131.955 12.7255 131.861 12.6764 131.766 12.6273C129.067 11.2309 126.286 9.96887 123.433 8.85058C123.433 8.85058 123.433 8.85058 123.431 8.85058C120.227 7.59323 116.932 6.51817 113.558 5.63709C113.216 5.54712 112.873 5.45948 112.53 5.37534H112.528C106.851 3.96375 100.959 3.09903 94.9081 2.84078C93.6297 2.78586 92.3443 2.75781 91.053 2.75781C90.7726 2.75781 90.4933 2.75898 90.214 2.76249C41.7559 3.21004 2.57943 42.5022 2.32118 91.0059C2.31885 91.1672 2.31885 91.3296 2.31885 91.4908C2.31885 92.7821 2.34689 94.0675 2.40181 95.3459C2.65772 101.336 3.50725 107.173 4.89314 112.797C4.99247 113.198 5.09296 113.597 5.19813 113.996C6.07921 117.369 7.15426 120.665 8.41161 123.869C8.45368 123.977 8.49691 124.086 8.54015 124.195C8.54366 124.204 8.54833 124.215 8.55417 124.224C9.67597 127.053 10.9392 129.81 12.3367 132.487C13.8956 135.476 15.6203 138.363 17.497 141.14C22.6468 148.753 28.9464 155.523 36.1469 161.202C38.2246 162.841 40.377 164.389 42.5984 165.839C51.5307 171.673 61.579 175.94 72.3541 178.25C76.2897 179.095 80.3235 179.678 84.4344 179.982C86.6196 180.143 88.827 180.225 91.053 180.225C92.4413 180.225 93.8213 180.194 95.1943 180.129C130.851 178.492 161.018 155.807 173.559 124.212C173.56 124.212 173.561 124.209 173.561 124.206C177.096 115.299 179.231 105.684 179.691 95.6321C179.756 94.2591 179.787 92.8791 179.787 91.4908C179.787 89.2648 179.705 87.0574 179.544 84.8722ZM120.855 76.2753C119.694 75.7763 118.254 75.5263 116.537 75.5263H108.066V88.9984L96.8221 100.182V66.1569H117.211C121.458 66.1569 124.994 66.8943 127.818 68.3678C128.034 68.4811 128.246 68.5968 128.454 68.7172L120.855 76.2753ZM108.066 118.628H96.8221V111.421L108.066 100.158V118.628ZM39.4083 93.0216L67.0571 65.3249C70.7368 65.5504 74.0017 66.345 76.8494 67.7099L68.6615 75.9236C67.4766 75.6092 66.1702 75.4515 64.741 75.4515C61.7917 75.4515 59.2805 76.1514 57.2075 77.5502C55.1333 78.9501 53.5593 80.9121 52.4854 83.4349C51.4103 85.959 50.874 88.9949 50.874 92.5425C50.874 92.9492 50.881 93.3488 50.8974 93.7415L41.1623 103.507C40.037 100.334 39.4527 96.8392 39.4083 93.0216ZM54.4415 104.818C55.2361 105.809 56.1581 106.651 57.2075 107.347C59.2805 108.722 61.7917 109.408 64.741 109.408C67.8388 109.408 70.35 108.747 72.2746 107.422C74.198 106.098 75.4846 104.187 76.1343 101.688H88.4285C87.4282 107.235 84.868 111.594 80.7442 114.767C76.6216 117.942 71.3117 119.528 64.8158 119.528C59.5691 119.528 55.0457 118.392 51.2479 116.117C49.5641 115.109 48.0508 113.923 46.7117 112.561L54.4415 104.818ZM131.742 118.628H123.883L114.591 98.4635H109.758L117.898 90.3095C120.014 90.119 121.621 89.4646 122.72 88.344C123.921 87.1217 124.577 85.5091 124.689 83.5062L134.046 74.1322C134.069 74.1719 134.093 74.2117 134.115 74.2525C135.488 76.7018 136.176 79.4245 136.176 82.423C136.176 85.2216 135.512 87.845 134.19 90.2931C132.865 92.7424 130.803 94.716 128.006 96.2152C127.397 96.5413 126.751 96.8311 126.065 97.0858L135.015 115.342L131.742 118.628Z" fill="#FFCC3E"/>
<path d="M163.046 87.5572C163.039 87.4415 163.033 87.327 163.026 87.2125C162.344 75.5539 158.892 64.6398 153.318 55.1185C153.282 55.0578 153.245 54.9958 153.209 54.9351C151.887 52.6926 150.448 50.5273 148.899 48.4497C148.889 48.4356 148.88 48.4216 148.868 48.4088C143.451 41.1486 136.696 34.9437 128.971 30.1574C128.87 30.0943 128.768 30.0312 128.666 29.9692C125.764 28.1907 122.725 26.612 119.57 25.2518C119.479 25.2133 119.388 25.1735 119.296 25.135C116.394 23.8975 113.395 22.8446 110.312 21.9928C110.305 21.9904 110.298 21.9893 110.292 21.9881C106.741 21.0065 103.08 20.2902 99.3324 19.8614H99.3312C98.9351 19.8158 98.5366 19.7737 98.1381 19.7352C95.8069 19.5085 93.443 19.3916 91.0521 19.3916C86.2377 19.3916 81.5344 19.8637 76.9841 20.7623C74.8772 21.1795 72.803 21.6889 70.7663 22.2849C47.1653 29.191 28.582 47.8409 21.7671 71.4804C21.2039 73.4295 20.7224 75.4114 20.3239 77.4224C19.4253 81.9727 18.9532 86.6761 18.9532 91.4905C18.9532 93.8334 19.0654 96.1494 19.2828 98.4339C19.326 98.8803 19.3728 99.3255 19.423 99.7696C19.8519 103.518 20.5682 107.179 21.5497 110.73C21.5614 110.777 21.5743 110.824 21.5883 110.872C22.4542 113.983 23.5234 117.009 24.7819 119.935C24.7924 119.96 24.803 119.984 24.8135 120.009C26.1737 123.164 27.7523 126.202 29.5309 129.105C29.615 129.242 29.7003 129.379 29.7856 129.516C34.4948 137.089 40.5701 143.725 47.6666 149.078C47.7811 149.166 47.8956 149.251 48.0113 149.338C50.1462 150.929 52.3723 152.405 54.6802 153.756C55.6489 154.323 56.6328 154.869 57.6296 155.391C66.514 160.048 76.4898 162.906 87.0721 163.482C87.0873 163.482 87.1025 163.483 87.1188 163.484C88.4206 163.554 89.7328 163.589 91.0521 163.589C94.6314 163.589 98.1498 163.329 101.59 162.825C106.673 162.081 111.585 160.806 116.265 159.058C135.803 151.765 151.327 136.241 158.619 116.703C160.368 112.023 161.642 107.112 162.387 102.028C162.89 98.5882 163.151 95.0697 163.151 91.4905C163.151 90.1712 163.116 88.8589 163.046 87.5572ZM39.4074 93.0213L67.0562 65.3245C70.7359 65.5501 74.0008 66.3447 76.8485 67.7095L68.6606 75.9232C67.4757 75.6089 66.1692 75.4511 64.7401 75.4511C61.7907 75.4511 59.2795 76.1511 57.2065 77.5498C55.1324 78.9497 53.5584 80.9117 52.4845 83.4346C51.4094 85.9586 50.8731 88.9945 50.8731 92.5422C50.8731 92.9488 50.8801 93.3485 50.8964 93.7411L41.1613 103.507C40.036 100.334 39.4518 96.8389 39.4074 93.0213ZM54.4406 104.818C55.2352 105.809 56.1572 106.651 57.2065 107.346C59.2795 108.722 61.7907 109.408 64.7401 109.408C67.8379 109.408 70.3491 108.746 72.2737 107.421C74.1971 106.097 75.4837 104.187 76.1334 101.687H88.4276C87.4273 107.234 84.8671 111.594 80.7433 114.767C76.6207 117.942 71.3108 119.527 64.8149 119.527C59.5682 119.527 55.0448 118.391 51.247 116.116C49.5631 115.109 48.0499 113.923 46.7107 112.56L54.4406 104.818ZM96.8212 66.1565H117.21C121.458 66.1565 124.994 66.8939 127.817 68.3674C128.033 68.4808 128.246 68.5965 128.454 68.7168L120.855 76.2749C119.693 75.776 118.253 75.5259 116.536 75.5259H108.065V88.998L96.8212 100.182V66.1565ZM108.065 100.158V118.627H96.8212V111.421L108.065 100.158ZM131.741 118.627H123.882L114.59 98.4632H109.757L117.897 90.3091C120.013 90.1186 121.62 89.4642 122.72 88.3436C123.92 87.1213 124.576 85.5087 124.689 83.5058L134.045 74.1318C134.068 74.1716 134.092 74.2113 134.114 74.2522C135.487 76.7014 136.175 79.4241 136.175 82.4226C136.175 85.2213 135.512 87.8446 134.189 90.2927C132.864 92.742 130.802 94.7156 128.005 96.2149C127.396 96.5409 126.75 96.8307 126.064 97.0854L135.014 115.342L131.741 118.627Z" fill="#FFE357"/>
<path d="M160.777 89.7067C160.776 89.6307 160.773 89.5548 160.771 89.4788C160.769 89.3994 160.766 89.3211 160.764 89.2428C160.759 89.0932 160.754 88.9436 160.748 88.7952C160.745 88.7204 160.742 88.6457 160.74 88.5709C160.736 88.5066 160.734 88.4412 160.73 88.3757C160.724 88.218 160.716 88.0602 160.708 87.9025C160.679 87.3077 160.641 86.7152 160.596 86.1251C160.59 86.0351 160.583 85.9452 160.575 85.8552C160.572 85.8201 160.57 85.7839 160.567 85.7488C160.555 85.5993 160.542 85.4497 160.528 85.3001C160.525 85.2616 160.521 85.2218 160.518 85.1833C160.507 85.0629 160.495 84.9414 160.485 84.821C160.471 84.6668 160.456 84.5125 160.439 84.3594C160.424 84.2134 160.409 84.0673 160.392 83.9212C160.382 83.8067 160.369 83.6934 160.355 83.58C160.34 83.441 160.324 83.3031 160.307 83.164C160.302 83.1243 160.298 83.0846 160.293 83.0448C160.291 83.0215 160.287 82.9969 160.284 82.9724C160.283 82.9549 160.28 82.9362 160.277 82.9175C160.246 82.6686 160.215 82.4197 160.182 82.1719C160.173 82.0972 160.162 82.0224 160.152 81.9476C160.144 81.8821 160.134 81.8167 160.125 81.7524C160.117 81.6952 160.11 81.6379 160.1 81.5807C160.091 81.5105 160.08 81.4416 160.07 81.3715C160.063 81.3154 160.055 81.2593 160.045 81.2032C160.027 81.0782 160.008 80.9532 159.989 80.8281C159.959 80.6236 159.926 80.4191 159.892 80.2158C159.876 80.1118 159.858 80.0078 159.841 79.9038C159.84 79.8921 159.837 79.8804 159.835 79.8687C159.819 79.7706 159.802 79.6724 159.785 79.5743C159.766 79.4609 159.746 79.3464 159.725 79.2331C159.715 79.1735 159.704 79.1139 159.694 79.0543C159.597 78.5121 159.493 77.9722 159.382 77.4347C159.362 77.3319 159.34 77.2279 159.319 77.125C159.267 76.8785 159.213 76.6319 159.158 76.3853C159.13 76.258 159.102 76.1306 159.073 76.0044C159.039 75.8536 159.004 75.7029 158.969 75.5522C158.943 75.4376 158.917 75.3231 158.889 75.2086C158.88 75.1747 158.872 75.1408 158.864 75.1069C158.861 75.0894 158.856 75.0731 158.851 75.0567C158.845 75.0298 158.839 75.0041 158.832 74.9772C158.825 74.9492 158.82 74.9223 158.813 74.8943C158.804 74.8592 158.796 74.8253 158.787 74.7914C158.752 74.6477 158.716 74.5052 158.679 74.3614C158.655 74.2609 158.629 74.1604 158.603 74.0599C158.58 73.97 158.557 73.88 158.533 73.7912C158.484 73.6007 158.434 73.4114 158.383 73.2209C158.372 73.1847 158.363 73.1473 158.352 73.1099C158.324 73.0106 158.297 72.9113 158.269 72.8108C158.232 72.6776 158.194 72.5443 158.157 72.4111C158.116 72.2674 158.075 72.1225 158.033 71.9776C157.993 71.8421 157.953 71.7053 157.913 71.5698C157.872 71.4331 157.831 71.2964 157.789 71.1608C157.748 71.0241 157.706 70.8874 157.663 70.7506C157.537 70.3417 157.406 69.9338 157.27 69.5272C157.242 69.4419 157.213 69.3566 157.185 69.2713C157.123 69.0855 157.06 68.9008 156.996 68.7162C156.95 68.5818 156.902 68.4475 156.855 68.3131C156.762 68.0455 156.665 67.7767 156.567 67.5103C156.549 67.4612 156.532 67.411 156.512 67.3619C156.494 67.3116 156.476 67.2614 156.456 67.2111C156.444 67.1772 156.431 67.1434 156.418 67.1095C156.372 66.9809 156.322 66.8524 156.275 66.725C156.27 66.7122 156.264 66.6981 156.259 66.6853C156.244 66.6456 156.229 66.6047 156.213 66.5649C156.181 66.4808 156.148 66.3967 156.116 66.3137C156 66.011 155.881 65.7096 155.758 65.4081C155.693 65.2433 155.625 65.0797 155.557 64.915C155.542 64.8776 155.527 64.839 155.509 64.8004C155.509 64.7946 155.504 64.7876 155.501 64.7806C155.494 64.7607 155.486 64.7408 155.476 64.721C155.457 64.6719 155.436 64.6228 155.415 64.5726C155.383 64.4966 155.351 64.4195 155.318 64.3424C155.208 64.0818 155.097 63.8224 154.982 63.563C154.942 63.473 154.903 63.3818 154.863 63.2919C154.822 63.1972 154.78 63.1026 154.737 63.0091C154.733 63.0009 154.73 62.9915 154.725 62.9834C154.717 62.9612 154.706 62.9401 154.696 62.9179C154.657 62.8303 154.618 62.7415 154.577 62.6538C154.48 62.4412 154.383 62.2297 154.283 62.0181C154.281 62.0111 154.279 62.0053 154.275 61.9994C154.203 61.8429 154.129 61.6874 154.055 61.532C154.019 61.4549 153.982 61.3789 153.946 61.303C153.918 61.2446 153.89 61.1861 153.86 61.1277C153.847 61.0997 153.833 61.0705 153.819 61.0424C153.729 60.859 153.639 60.6755 153.549 60.4932C153.424 60.2408 153.297 59.9896 153.169 59.7383C153.068 59.5432 152.968 59.348 152.866 59.1541C152.814 59.0571 152.764 58.9589 152.712 58.8619C152.667 58.779 152.624 58.6972 152.581 58.6165C152.55 58.5593 152.52 58.502 152.488 58.4459C152.45 58.3711 152.409 58.2963 152.368 58.2227C152.289 58.0743 152.207 57.9271 152.126 57.7799C152.109 57.7483 152.091 57.7168 152.074 57.6864C152.034 57.6139 151.994 57.5426 151.954 57.4714C151.889 57.3545 151.824 57.2376 151.756 57.1208C151.703 57.0273 151.651 56.9338 151.597 56.8404C151.562 56.7796 151.527 56.7188 151.491 56.6581C151.484 56.6452 151.477 56.6323 151.468 56.6195C151.396 56.4921 151.322 56.3659 151.246 56.2397C151.235 56.2175 151.221 56.1941 151.207 56.1719C151.159 56.0878 151.108 56.0048 151.058 55.9207C150.959 55.7524 150.858 55.5842 150.757 55.4171C150.702 55.3259 150.646 55.2348 150.591 55.1448C150.591 55.1425 150.59 55.1401 150.587 55.139C150.526 55.0373 150.465 54.9368 150.4 54.8363C150.398 54.8305 150.393 54.8223 150.389 54.8164C150.389 54.8141 150.387 54.8129 150.385 54.8118C150.331 54.7241 150.278 54.6365 150.223 54.55C150.121 54.3864 150.018 54.2228 149.913 54.0592C149.841 53.9459 149.769 53.8325 149.696 53.7204C149.457 53.3499 149.215 52.983 148.969 52.6172C148.936 52.5693 148.905 52.5214 148.872 52.4735C148.857 52.4501 148.84 52.4256 148.824 52.4011C148.728 52.2608 148.632 52.1206 148.535 51.9804C148.466 51.8811 148.397 51.7794 148.327 51.6801C148.321 51.6707 148.316 51.6614 148.309 51.652C148.23 51.5387 148.151 51.4265 148.07 51.3143C148.063 51.3026 148.055 51.291 148.046 51.2793C147.951 51.1449 147.856 51.0117 147.761 50.8796C147.57 50.6132 147.377 50.3491 147.183 50.0862C147.161 50.0546 147.139 50.0243 147.116 49.9939C147.037 49.8864 146.957 49.7789 146.876 49.6725C146.869 49.662 146.862 49.6538 146.854 49.6445C146.854 49.6421 146.853 49.641 146.85 49.6386C146.85 49.6375 146.849 49.6363 146.848 49.6351C146.846 49.6316 146.843 49.6281 146.84 49.6246C146.84 49.6246 146.839 49.6238 146.837 49.6223C146.837 49.6223 146.836 49.6188 146.834 49.6176C146.835 49.6176 146.835 49.6199 146.834 49.6176C146.826 49.6048 146.815 49.5907 146.806 49.579C146.781 49.5452 146.756 49.5113 146.73 49.4785C146.721 49.4645 146.71 49.4505 146.698 49.4376C146.687 49.4201 146.674 49.4026 146.66 49.3862C146.647 49.3687 146.634 49.3512 146.62 49.3348C146.592 49.2963 146.563 49.2577 146.532 49.2191C146.532 49.2168 146.53 49.2156 146.528 49.2133C146.449 49.1081 146.369 49.003 146.287 48.899C146.266 48.8709 146.245 48.844 146.224 48.8172C146.204 48.7914 146.184 48.7646 146.163 48.7389C146.127 48.6921 146.091 48.6454 146.053 48.5986C146.005 48.5379 145.959 48.4759 145.911 48.4152C145.882 48.3778 145.851 48.3392 145.821 48.3018C145.733 48.1896 145.644 48.0786 145.556 47.9676C145.483 47.8753 145.409 47.7853 145.335 47.6942C145.328 47.6837 145.319 47.6732 145.309 47.6626C145.308 47.6591 145.305 47.6568 145.302 47.6533C145.293 47.6404 145.283 47.6276 145.272 47.6159C145.259 47.5995 145.246 47.582 145.231 47.5657C145.171 47.4909 145.11 47.4161 145.048 47.3413C145.019 47.3051 144.99 47.2688 144.96 47.2326C144.93 47.1964 144.901 47.1613 144.872 47.1263C144.87 47.1239 144.867 47.1204 144.865 47.1181C144.835 47.0795 144.803 47.041 144.77 47.0036C144.718 46.9405 144.665 46.8762 144.611 46.8131C144.586 46.7804 144.559 46.7488 144.532 46.7173C144.513 46.6951 144.494 46.6729 144.475 46.6507C144.469 46.6413 144.461 46.6308 144.45 46.6215C144.436 46.6028 144.421 46.5852 144.406 46.5677C144.365 46.5175 144.323 46.4672 144.279 46.4181C144.232 46.3609 144.182 46.3036 144.133 46.2475C144.068 46.1692 144.001 46.091 143.934 46.0138C143.854 45.9203 143.774 45.8269 143.692 45.7345C143.611 45.6399 143.529 45.5464 143.446 45.4529C143.43 45.4331 143.412 45.4144 143.395 45.3957C143.365 45.3594 143.333 45.3244 143.3 45.2882C143.278 45.2613 143.255 45.2356 143.231 45.2099C143.144 45.1105 143.055 45.0112 142.965 44.9119C142.912 44.8523 142.859 44.7927 142.804 44.7331C142.776 44.7016 142.748 44.6688 142.717 44.6373C142.7 44.6163 142.68 44.5952 142.66 44.5742C142.639 44.5508 142.618 44.5274 142.596 44.5041C142.499 44.3966 142.4 44.2902 142.302 44.1839C142.254 44.1313 142.205 44.0787 142.156 44.0261C142.094 43.9595 142.032 43.8929 141.969 43.8263C141.959 43.8135 141.947 43.8018 141.934 43.7889C141.858 43.7071 141.781 43.6253 141.704 43.5435C141.699 43.5389 141.696 43.5342 141.691 43.5307C141.611 43.4442 141.53 43.3589 141.447 43.2736C141.365 43.1871 141.281 43.1007 141.197 43.0142C141.149 42.9639 141.101 42.9149 141.053 42.8658C140.988 42.798 140.921 42.7302 140.856 42.6636C140.753 42.5573 140.649 42.4521 140.544 42.347C140.519 42.3212 140.493 42.2967 140.469 42.2722C140.421 42.2243 140.373 42.1763 140.325 42.1284C140.318 42.1203 140.31 42.1121 140.302 42.1051C140.259 42.0607 140.215 42.0186 140.172 41.9765C140.088 41.8912 140.003 41.8071 139.917 41.7241C139.906 41.7124 139.894 41.7008 139.881 41.6891C139.792 41.6014 139.702 41.5138 139.612 41.4273C139.605 41.4191 139.597 41.4121 139.59 41.4063C139.508 41.3245 139.425 41.245 139.342 41.1667C139.297 41.1223 139.251 41.0791 139.205 41.0347C139.157 40.9879 139.108 40.9412 139.058 40.8956C138.902 40.7461 138.744 40.5977 138.585 40.4492C138.571 40.4364 138.556 40.4235 138.542 40.4095C138.535 40.4037 138.528 40.3967 138.521 40.3897C138.515 40.3838 138.508 40.378 138.501 40.371C138.351 40.2319 138.2 40.0928 138.048 39.955C137.822 39.7481 137.594 39.5425 137.364 39.3391C137.308 39.2889 137.252 39.2398 137.196 39.1907C137.037 39.0493 136.878 38.9103 136.718 38.7712C136.711 38.7654 136.704 38.7595 136.697 38.7525C136.321 38.4265 135.94 38.1052 135.556 37.7873C135.513 37.7499 135.47 37.7149 135.425 37.6786C135.133 37.4368 134.84 37.1984 134.543 36.9623C134.423 36.8665 134.302 36.7707 134.181 36.6749C134.141 36.6433 134.1 36.6106 134.059 36.579C134.016 36.544 133.973 36.5101 133.93 36.4774C133.771 36.3523 133.611 36.2297 133.451 36.107C133.437 36.0964 133.424 36.0859 133.41 36.0754C133.352 36.031 133.295 35.9866 133.237 35.9445C133.218 35.9293 133.199 35.9153 133.18 35.9013C133.162 35.8873 133.144 35.8732 133.126 35.8604C133.125 35.8581 133.123 35.8581 133.122 35.8581C132.979 35.7482 132.835 35.6395 132.69 35.532C132.568 35.4409 132.446 35.3509 132.323 35.2609C132.218 35.1826 132.113 35.1055 132.006 35.0296C131.88 34.9372 131.752 34.8449 131.624 34.7538C131.534 34.6895 131.444 34.6252 131.354 34.561C131.207 34.457 131.06 34.353 130.911 34.2501C130.89 34.2338 130.87 34.2198 130.849 34.2069C130.789 34.1637 130.727 34.1204 130.665 34.0784C130.654 34.0702 130.643 34.062 130.631 34.0538C130.616 34.0445 130.601 34.034 130.585 34.0234L130.583 34.0211C130.432 33.9171 130.282 33.8143 130.131 33.7126C130.044 33.6542 129.958 33.5958 129.871 33.5385C129.801 33.4906 129.731 33.4439 129.661 33.3983C129.61 33.3621 129.558 33.3282 129.507 33.2943C129.501 33.2896 129.494 33.2861 129.488 33.2826C129.416 33.2347 129.344 33.1868 129.272 33.14C129.246 33.1225 129.219 33.105 129.192 33.0875C129.153 33.0617 129.112 33.0349 129.071 33.008C128.989 32.9542 128.906 32.9005 128.823 32.8479C128.799 32.8315 128.773 32.8152 128.748 32.8C128.695 32.7649 128.641 32.7299 128.586 32.696C128.532 32.6609 128.478 32.627 128.425 32.5932C128.303 32.5149 128.182 32.4377 128.059 32.3618C127.998 32.3232 127.937 32.2858 127.876 32.2473C127.819 32.211 127.762 32.176 127.706 32.1421C127.7 32.1386 127.694 32.1351 127.689 32.1316C127.675 32.1211 127.659 32.1117 127.644 32.1035C127.518 32.0241 127.391 31.947 127.263 31.8687C127.167 31.8114 127.073 31.753 126.977 31.6969C126.969 31.6922 126.962 31.6875 126.954 31.6829C126.588 31.462 126.22 31.2447 125.849 31.032C125.725 30.9607 125.602 30.8894 125.477 30.8193C125.29 30.7118 125.103 30.6066 124.916 30.5026C124.747 30.408 124.578 30.3157 124.408 30.2234C124.352 30.1918 124.297 30.1626 124.241 30.1322C124.091 30.0504 123.94 29.9686 123.788 29.8892C123.726 29.8553 123.665 29.8225 123.603 29.791C123.492 29.7314 123.38 29.673 123.268 29.6157C123.151 29.5538 123.034 29.493 122.917 29.4334C122.82 29.3843 122.725 29.3341 122.628 29.2862C122.459 29.1985 122.291 29.1144 122.122 29.0303C122.062 28.9999 122.002 28.9707 121.942 28.9415C121.915 28.9274 121.888 28.9146 121.861 28.9017C121.672 28.8071 121.481 28.7148 121.291 28.6225C121.036 28.4998 120.781 28.3794 120.525 28.2602C120.23 28.1212 119.932 27.9844 119.634 27.8512C119.419 27.7542 119.203 27.6584 118.986 27.5638C118.979 27.5603 118.972 27.5579 118.965 27.5544C118.733 27.4528 118.498 27.3523 118.263 27.2529C118.101 27.1828 117.938 27.115 117.776 27.0473C117.685 27.0099 117.594 26.9713 117.501 26.9351C117.426 26.9035 117.352 26.8732 117.277 26.8428C117.249 26.8323 117.221 26.8206 117.193 26.8089C117.148 26.7902 117.103 26.7727 117.058 26.754C117.031 26.7434 117.005 26.7329 116.978 26.7224C116.809 26.6546 116.64 26.5869 116.471 26.5214C116.468 26.5203 116.465 26.5191 116.461 26.5179C116.386 26.4875 116.31 26.4583 116.235 26.4291C116.233 26.4291 116.232 26.4291 116.23 26.4291C116.222 26.4244 116.212 26.4209 116.203 26.4186C116.125 26.3882 116.046 26.3578 115.968 26.3286C115.87 26.2912 115.771 26.2538 115.672 26.2164C115.622 26.1966 115.572 26.1779 115.522 26.1592C115.473 26.1405 115.424 26.1218 115.374 26.1043C115.261 26.061 115.147 26.019 115.033 25.9781C114.9 25.929 114.767 25.8811 114.632 25.8332C114.52 25.7923 114.407 25.7514 114.295 25.7128C114.243 25.6941 114.193 25.6766 114.142 25.659C113.923 25.5819 113.705 25.506 113.485 25.4323C113.355 25.3879 113.226 25.3447 113.095 25.3015C113.078 25.2945 113.061 25.2886 113.043 25.2839C113.011 25.2723 112.978 25.2617 112.944 25.2512C112.833 25.2138 112.721 25.1764 112.61 25.1414C112.491 25.1028 112.371 25.0643 112.252 25.0269C112.236 25.021 112.219 25.0152 112.202 25.0105C112.188 25.0058 112.174 25.0012 112.159 24.9965C112.156 24.9953 112.153 24.9941 112.149 24.9941C112.05 24.9626 111.951 24.931 111.851 24.9007C111.849 24.8983 111.847 24.8983 111.844 24.8983C111.827 24.8913 111.81 24.8866 111.793 24.882C111.479 24.7838 111.163 24.688 110.846 24.5945C110.814 24.5852 110.781 24.5746 110.747 24.5653C110.308 24.4356 109.866 24.3105 109.422 24.1902C109.361 24.1727 109.299 24.1563 109.237 24.1399C108.957 24.064 108.675 23.9904 108.392 23.9179C108.385 23.9156 108.377 23.9144 108.37 23.9121C108.341 23.9051 108.313 23.8981 108.285 23.891C108.123 23.8501 107.961 23.8092 107.799 23.7695C107.704 23.745 107.608 23.7216 107.513 23.6994C107.417 23.676 107.321 23.6527 107.225 23.6305C107.025 23.5825 106.824 23.5358 106.623 23.4902C106.231 23.4003 105.837 23.315 105.442 23.232C105.232 23.1876 105.02 23.1443 104.809 23.1023C104.625 23.0649 104.44 23.0287 104.256 22.9936C104.254 22.9936 104.25 22.9924 104.248 22.9924C104.015 22.948 103.784 22.9048 103.551 22.8627C103.357 22.8277 103.163 22.7938 102.969 22.7599C102.93 22.7529 102.891 22.7459 102.852 22.74C102.386 22.6606 101.919 22.5858 101.449 22.5157C101.214 22.4806 100.979 22.4467 100.743 22.414C100.513 22.3825 100.282 22.3509 100.051 22.3217C100.013 22.3159 99.9743 22.3112 99.9358 22.3065C99.7324 22.2808 99.5303 22.2563 99.3269 22.2317C99.1704 22.213 99.0138 22.1955 98.8572 22.178C98.8537 22.1768 98.8513 22.1768 98.8478 22.1768C98.7731 22.1674 98.6983 22.1593 98.6223 22.1523C98.1456 22.0997 97.6653 22.0529 97.185 22.0109C96.9326 21.9898 96.679 21.9688 96.4255 21.9501C96.3472 21.9431 96.2689 21.9372 96.1906 21.9326L95.9557 21.915C95.937 21.9139 95.9171 21.9127 95.8984 21.9115C95.847 21.908 95.7956 21.9045 95.7442 21.901C95.6893 21.8975 95.6344 21.894 95.5794 21.8905C95.5642 21.8893 95.5479 21.8882 95.5315 21.887C95.3586 21.8765 95.1856 21.866 95.0115 21.8566C95.0033 21.8554 94.9952 21.8543 94.9858 21.8543C94.9262 21.8508 94.8666 21.8484 94.807 21.8449C94.6037 21.8344 94.4004 21.8239 94.1959 21.8157C94.1421 21.8134 94.0896 21.811 94.0358 21.8087C94.0007 21.8064 93.9657 21.8052 93.9306 21.804C93.8699 21.8017 93.8091 21.7994 93.7483 21.797C93.5999 21.7912 93.4504 21.7853 93.3008 21.7807C93.0951 21.7748 92.8883 21.769 92.6815 21.7643C92.588 21.762 92.4957 21.7596 92.4033 21.7585C92.2105 21.755 92.0189 21.7514 91.8261 21.7503C91.569 21.7468 91.3108 21.7456 91.0525 21.7456C90.8667 21.7456 90.6821 21.7468 90.4975 21.7479C90.3502 21.7479 90.2042 21.7503 90.0581 21.7526C89.9634 21.7538 89.87 21.755 89.7765 21.7573C89.6479 21.7596 89.5182 21.762 89.3897 21.7655C89.2284 21.769 89.066 21.7737 88.9047 21.7783C88.872 21.7795 88.8393 21.7807 88.8054 21.7807C88.6266 21.7865 88.4478 21.7935 88.2691 21.8005C88.2106 21.8029 88.151 21.8052 88.0926 21.8075C88.0307 21.8099 87.9699 21.8122 87.9091 21.8157C87.7607 21.8216 87.6123 21.8286 87.4639 21.8368C87.388 21.8403 87.3132 21.8438 87.2372 21.8484C87.222 21.8484 87.2069 21.8496 87.1917 21.8508H87.187C87.1566 21.8531 87.1262 21.8543 87.0958 21.8566C87.0386 21.859 86.9825 21.8625 86.9252 21.866C86.8516 21.8695 86.778 21.8741 86.7044 21.8788C86.6611 21.8812 86.6167 21.8847 86.5735 21.887C86.3538 21.901 86.1341 21.9162 85.9156 21.9326H85.9086C85.9086 21.9326 85.8993 21.9326 85.8946 21.9337C85.8175 21.9384 85.7403 21.9443 85.6644 21.9513C85.5031 21.9641 85.343 21.9758 85.1818 21.9898C85.0451 22.0015 84.9072 22.0132 84.7704 22.0249C84.698 22.0307 84.6255 22.0377 84.5531 22.0448C84.5029 22.0494 84.4526 22.0541 84.4024 22.0588C84.3416 22.0646 84.2808 22.0705 84.2212 22.0763C84.0798 22.0892 83.9384 22.1043 83.7982 22.1184C83.7001 22.1289 83.6019 22.1382 83.5038 22.1499C83.3647 22.1639 83.2268 22.1791 83.0889 22.1955C83.062 22.1978 83.0352 22.2013 83.0083 22.2048C82.902 22.2165 82.7944 22.2294 82.6881 22.2422C82.6612 22.2457 82.6332 22.2481 82.6063 22.2516C82.6016 22.2516 82.597 22.2516 82.5923 22.2539C82.4976 22.2656 82.4018 22.2773 82.3072 22.289C82.2803 22.2913 82.2546 22.2948 82.2289 22.2983C82.2113 22.3007 82.1927 22.3018 82.1751 22.3053C82.1681 22.3065 82.1623 22.3065 82.1553 22.3077C82.0945 22.3159 82.0349 22.3229 81.9741 22.331C81.8935 22.3416 81.814 22.3521 81.7334 22.3626C81.5885 22.3813 81.4436 22.4012 81.2987 22.4222C81.1959 22.4362 81.0931 22.4514 80.9902 22.4666C80.9073 22.4783 80.8255 22.49 80.7437 22.5028C80.5485 22.5309 80.3534 22.5612 80.1594 22.5916C80.0706 22.6045 79.9818 22.6185 79.893 22.6337C79.8042 22.6477 79.7165 22.6617 79.6277 22.6769C79.4629 22.7038 79.2994 22.7319 79.1358 22.7599C79.1229 22.7622 79.11 22.7646 79.0972 22.7669C78.9207 22.7973 78.7443 22.8277 78.5678 22.8604C78.4825 22.8756 78.3972 22.8908 78.3119 22.9071C78.2792 22.913 78.2477 22.9188 78.2161 22.9247C78.1857 22.9305 78.1542 22.9363 78.125 22.9422C78.0887 22.948 78.0537 22.955 78.0186 22.9621C77.8504 22.9936 77.6821 23.0263 77.5138 23.059C77.4367 23.0742 77.3584 23.0894 77.2813 23.1058C77.113 23.1385 76.9447 23.1724 76.7776 23.2086C76.7601 23.211 76.7426 23.2145 76.7262 23.2191C76.7087 23.2226 76.6923 23.2261 76.6748 23.2297C76.6398 23.2367 76.6059 23.2437 76.5708 23.2507C76.5358 23.2589 76.5007 23.2659 76.4656 23.2741C76.3979 23.2881 76.3313 23.3021 76.2635 23.3173C76.2121 23.3278 76.1607 23.3395 76.1092 23.35C76.0824 23.3559 76.0555 23.3617 76.0286 23.3675C76.0006 23.3745 75.9713 23.3804 75.9433 23.3862C75.9141 23.3932 75.8837 23.4003 75.8545 23.4061C75.8113 23.4154 75.7669 23.426 75.7236 23.4353C75.6231 23.4575 75.5238 23.4809 75.4233 23.5043C75.4104 23.5066 75.3976 23.5089 75.3847 23.5124C75.3322 23.5253 75.2796 23.537 75.2282 23.5487C75.1756 23.5603 75.123 23.5732 75.0704 23.5861C75.0061 23.6001 74.943 23.6153 74.8799 23.6305C74.7152 23.669 74.5516 23.7088 74.3891 23.7485C74.3821 23.7508 74.3763 23.752 74.3704 23.7532C74.2033 23.7941 74.0363 23.8361 73.8703 23.8782C73.7266 23.9144 73.5829 23.9518 73.4391 23.9892C73.2954 24.0266 73.1517 24.064 73.0079 24.1025C72.8841 24.1353 72.7614 24.1692 72.6375 24.203C72.4879 24.2439 72.3384 24.2848 72.19 24.3269C72.0602 24.3631 71.9305 24.3994 71.8008 24.4368C71.6478 24.48 71.4958 24.5244 71.3439 24.57C71.1663 24.6214 70.9899 24.674 70.8134 24.7277C70.235 24.903 69.6601 25.0853 69.0886 25.2746C68.883 25.3435 68.6773 25.4125 68.4728 25.4826C68.273 25.5504 68.0732 25.6193 67.8745 25.6894C67.6163 25.7806 67.358 25.8729 67.101 25.9675C67.0905 25.971 67.0811 25.9745 67.0718 25.9781C66.8439 26.061 66.6172 26.1452 66.3917 26.2316C66.1556 26.3204 65.9196 26.4116 65.6859 26.5027C65.5573 26.553 65.4288 26.6032 65.3002 26.6546C64.9789 26.782 64.6587 26.9117 64.3397 27.0449C64.2229 27.0928 64.106 27.1419 63.9903 27.191C63.9167 27.2214 63.8431 27.2529 63.7695 27.2845C63.5813 27.3639 63.3955 27.4446 63.2086 27.5264C63.1595 27.5474 63.1092 27.5684 63.0602 27.5918C62.9468 27.6409 62.8346 27.69 62.7224 27.7414C62.6079 27.7905 62.4934 27.8419 62.3789 27.8945C62.3216 27.9202 62.2644 27.947 62.2071 27.9728C62.2024 27.9739 62.1966 27.9763 62.1919 27.9798C62.1522 27.9961 62.1125 28.0148 62.0739 28.0335C61.8963 28.1141 61.7175 28.1959 61.5411 28.2789C61.3272 28.3782 61.1157 28.4787 60.9042 28.5804C60.8691 28.5968 60.8341 28.6143 60.799 28.6318C60.688 28.6844 60.5782 28.7381 60.4672 28.7931C60.4415 28.8048 60.4157 28.8176 60.39 28.8316C60.2486 28.9006 60.1073 28.9695 59.9659 29.0396C59.405 29.3189 58.8476 29.6064 58.2949 29.902C58.1651 29.9698 58.0366 30.0399 57.9081 30.11C57.8041 30.1661 57.7001 30.2234 57.5961 30.2806C57.2513 30.4676 56.9078 30.6592 56.5666 30.8555C56.4638 30.9128 56.3621 30.9712 56.2604 31.0308C56.2032 31.0624 56.1471 31.0951 56.0898 31.129C55.9753 31.1944 55.862 31.261 55.7498 31.3276C55.7229 31.3428 55.6972 31.358 55.6715 31.3744C55.6049 31.4141 55.5359 31.4527 55.4693 31.4936C55.342 31.5683 55.2146 31.6443 55.0884 31.7214C54.975 31.7892 54.8617 31.8581 54.7483 31.9271C54.7448 31.9294 54.7425 31.9306 54.7402 31.9329C54.5672 32.0381 54.3966 32.1433 54.2248 32.2508C54.011 32.384 53.7971 32.5184 53.5845 32.6551C53.512 32.7018 53.4384 32.7474 53.366 32.7941C53.2468 32.8701 53.1276 32.9472 53.0095 33.0255C52.895 33.1003 52.7805 33.1751 52.6672 33.2499C52.666 33.2499 52.6648 33.251 52.6637 33.2522C52.4767 33.3761 52.2897 33.4999 52.1028 33.6261C52.0747 33.6448 52.0455 33.6647 52.0163 33.6846C51.834 33.8073 51.6517 33.9323 51.4706 34.0573C51.2451 34.2139 51.0195 34.3705 50.7963 34.5306C50.6993 34.5984 50.6024 34.6673 50.5054 34.7374C50.5042 34.7363 50.5065 34.7363 50.5054 34.7374C50.4949 34.7433 50.4832 34.7526 50.4727 34.7608C50.1665 34.9793 49.8615 35.2013 49.5589 35.4269C49.435 35.518 49.3111 35.6103 49.1873 35.7038C49.1686 35.7167 49.1499 35.7307 49.1312 35.7459C48.9711 35.8651 48.8122 35.9866 48.6544 36.1081C48.478 36.2425 48.3015 36.3792 48.1274 36.5159C48.1099 36.5288 48.0923 36.5428 48.076 36.5557C48.0444 36.5802 48.0129 36.6048 47.9813 36.6305C47.5455 36.9728 47.1143 37.3199 46.6877 37.6728C46.4716 37.8504 46.2577 38.0292 46.0451 38.2092C45.6033 38.5831 45.1663 38.9617 44.734 39.3461C44.5446 39.5144 44.3553 39.6839 44.1684 39.8545C44.1614 39.8603 44.1555 39.8661 44.1485 39.872C43.951 40.0508 43.7559 40.2307 43.5607 40.4119C43.5537 40.4189 43.5479 40.4247 43.5409 40.4305C43.3738 40.5871 43.2067 40.7437 43.0407 40.9015C42.9741 40.9646 42.9075 41.0277 42.8409 41.0919C42.6925 41.2333 42.5453 41.3747 42.3992 41.5185C42.3478 41.5687 42.2964 41.6178 42.245 41.6692C42.079 41.8305 41.9143 41.9941 41.7507 42.1577C41.5357 42.3727 41.323 42.5877 41.1115 42.805C40.928 42.9932 40.7457 43.1813 40.5646 43.3718C40.373 43.5728 40.1813 43.7761 39.9909 43.9806C39.8015 44.1851 39.6122 44.3896 39.4253 44.5964C39.2371 44.8032 39.0502 45.0101 38.8655 45.2192C38.6938 45.4132 38.5232 45.6072 38.3537 45.8023C38.1434 46.0454 37.9342 46.2896 37.7262 46.5362C37.5603 46.7325 37.3955 46.9288 37.2331 47.1274C37.0847 47.3062 36.9386 47.485 36.7926 47.6661C36.726 47.7479 36.6605 47.8297 36.5951 47.9127C36.5133 48.0132 36.4326 48.1137 36.3532 48.2154C36.3345 48.2387 36.3158 48.2621 36.2971 48.2866C36.2235 48.379 36.1499 48.4713 36.0786 48.5648C35.9407 48.74 35.804 48.9165 35.6684 49.0941C35.5224 49.2834 35.3775 49.4739 35.2349 49.6655C35.2033 49.7064 35.1718 49.7485 35.1414 49.7894C35.0059 49.9717 34.8703 50.154 34.7371 50.3363L34.5793 50.5536C34.4531 50.7254 34.3293 50.8983 34.2054 51.0724C34.1926 51.09 34.1797 51.1087 34.1669 51.1262C34.0617 51.2758 33.9553 51.4253 33.8513 51.5749C33.7357 51.7397 33.6211 51.9044 33.509 52.0704C33.4365 52.1744 33.3652 52.2784 33.2951 52.3824C33.2414 52.4618 33.1876 52.5401 33.135 52.6196C33.0275 52.7785 32.9224 52.9374 32.8172 53.0963C32.6594 53.3347 32.5029 53.5743 32.3486 53.815C32.3135 53.8676 32.2797 53.9213 32.2469 53.9739C31.949 54.439 31.658 54.9064 31.3717 55.3785C31.2478 55.5818 31.1251 55.7863 31.0048 55.992C30.9802 56.0317 30.9557 56.0726 30.9323 56.1135C30.833 56.2818 30.7337 56.4512 30.6367 56.6207C30.6285 56.6335 30.6215 56.6464 30.6145 56.6592C30.5736 56.7293 30.5339 56.7983 30.493 56.8684C30.3714 57.0811 30.2511 57.2937 30.1307 57.5088C29.994 57.753 29.8584 57.9995 29.7241 58.2473C29.6002 58.4751 29.4775 58.703 29.356 58.9332C29.3396 58.9648 29.3233 58.9963 29.3057 59.0279C29.2064 59.2183 29.1059 59.41 29.0078 59.6016C28.8664 59.875 28.7285 60.1485 28.5917 60.4231C28.5614 60.4827 28.5322 60.5423 28.5029 60.603C28.4854 60.6358 28.4691 60.6697 28.4539 60.7035C28.3686 60.8741 28.2844 61.0459 28.2015 61.2177C28.1863 61.2492 28.1711 61.2808 28.1559 61.3123C28.0437 61.5472 27.9315 61.7821 27.8217 62.0193C27.8205 62.0216 27.8193 62.024 27.8182 62.0263C27.7224 62.232 27.6265 62.4388 27.5331 62.6457C27.5132 62.6877 27.4945 62.7286 27.477 62.7695C27.4688 62.7859 27.4606 62.8034 27.4536 62.8209C27.4384 62.8513 27.4255 62.8817 27.4127 62.9121C27.3882 62.9658 27.3648 63.0184 27.3414 63.0722C27.2666 63.2358 27.1942 63.3994 27.1229 63.5641C27.1077 63.5968 27.0937 63.6307 27.0797 63.6646C27.061 63.7043 27.0446 63.7429 27.0294 63.7815C26.9523 63.9579 26.8763 64.1344 26.8015 64.3108C26.7303 64.4779 26.6602 64.6438 26.5912 64.811C26.548 64.9161 26.5047 65.0225 26.4615 65.1288C26.4031 65.269 26.3458 65.4092 26.2909 65.5506C26.2313 65.699 26.1717 65.8474 26.1133 65.997C26.0549 66.1466 25.9964 66.2962 25.9392 66.4469C25.8807 66.5965 25.8235 66.7472 25.7674 66.8968C25.7101 67.0475 25.654 67.1983 25.5991 67.349C25.5629 67.4483 25.5267 67.5465 25.4904 67.6447C25.4706 67.6961 25.4519 67.7487 25.4332 67.8012C25.4192 67.8386 25.4063 67.876 25.3935 67.9123C25.3654 67.9894 25.3374 68.0677 25.3105 68.146C25.3035 68.1647 25.2965 68.1822 25.2906 68.2009C25.2427 68.3341 25.196 68.4673 25.1504 68.6005C25.002 69.0247 24.8594 69.4489 24.7215 69.8766C24.69 69.9712 24.6596 70.067 24.6292 70.1629C24.5895 70.2809 24.5521 70.3989 24.5159 70.5181C24.4481 70.7319 24.3815 70.947 24.3161 71.162C24.253 71.3688 24.191 71.5756 24.1303 71.7836C24.0835 71.9402 24.038 72.0968 23.9935 72.2534C23.9468 72.4135 23.9024 72.5759 23.8568 72.7372C23.7727 73.0386 23.6909 73.3413 23.6103 73.6439C23.5518 73.866 23.4946 74.088 23.4385 74.31C23.3964 74.4759 23.3544 74.643 23.3135 74.8101C23.3123 74.816 23.3111 74.8218 23.3088 74.8288C23.2691 74.9913 23.2293 75.1549 23.1908 75.3196C23.1756 75.3827 23.1604 75.4458 23.1464 75.5101C23.1335 75.5627 23.1206 75.6153 23.109 75.6679C23.0973 75.7193 23.0856 75.7719 23.0727 75.8244C23.0692 75.8373 23.0669 75.8501 23.0646 75.863C23.0412 75.9635 23.0178 76.0628 22.9956 76.1633C22.9863 76.2066 22.9757 76.251 22.9664 76.2942C22.9606 76.3234 22.9535 76.3538 22.9465 76.383C22.9407 76.411 22.9349 76.4403 22.9278 76.4683C22.922 76.4952 22.9162 76.5221 22.9103 76.5489C22.8998 76.6003 22.8881 76.6518 22.8776 76.7032C22.8624 76.771 22.8484 76.8376 22.8344 76.9053C22.8262 76.9404 22.8192 76.9754 22.811 77.0105C22.804 77.0456 22.797 77.0794 22.79 77.1145C22.7864 77.132 22.7829 77.1484 22.7794 77.1659C22.7748 77.1823 22.7713 77.1998 22.7689 77.2173C22.7327 77.3844 22.6988 77.5527 22.6661 77.721C22.6497 77.7981 22.6345 77.8764 22.6193 77.9535C22.5866 78.1218 22.5539 78.2901 22.5224 78.4583C22.5153 78.4934 22.5083 78.5284 22.5025 78.5647C22.4966 78.5939 22.4908 78.6254 22.485 78.6558C22.4791 78.6885 22.4733 78.7201 22.4674 78.7516C22.4511 78.8369 22.4359 78.9222 22.4207 79.0075C22.388 79.184 22.3576 79.3604 22.3272 79.5369C22.3249 79.5497 22.3225 79.5626 22.3202 79.5755C22.2922 79.739 22.2641 79.9026 22.2372 80.0674C22.222 80.1562 22.208 80.2439 22.194 80.3327C22.1788 80.4215 22.1648 80.5103 22.1519 80.5991C22.1215 80.7931 22.0912 80.9882 22.0631 81.1834C22.0503 81.2652 22.0386 81.347 22.0269 81.4299C22.0117 81.5328 21.9965 81.6356 21.9825 81.7384C21.9615 81.8833 21.9416 82.0282 21.9229 82.1731C21.9124 82.2537 21.9019 82.3332 21.8913 82.4138C21.8832 82.4746 21.8762 82.5342 21.868 82.595C21.8668 82.602 21.8668 82.6078 21.8656 82.6148C21.8621 82.6323 21.861 82.651 21.8586 82.6686C21.8551 82.6943 21.8516 82.72 21.8493 82.7469C21.8376 82.8415 21.8259 82.9373 21.8142 83.032C21.8131 83.0367 21.8119 83.0413 21.8119 83.046C21.8084 83.0729 21.806 83.1009 21.8025 83.1278C21.7897 83.2341 21.7768 83.3416 21.7651 83.448C21.7616 83.4749 21.7581 83.5017 21.7558 83.5286C21.7394 83.6665 21.7242 83.8044 21.7102 83.9434C21.6985 84.0416 21.6892 84.1398 21.6787 84.2379C21.6647 84.3781 21.6495 84.5195 21.6366 84.6609C21.6308 84.7205 21.6249 84.7813 21.6191 84.8421C21.6144 84.8923 21.6097 84.9426 21.6051 84.9928C21.598 85.0652 21.591 85.1377 21.5852 85.2101C21.5735 85.3469 21.5618 85.4848 21.5501 85.6215C21.5361 85.7827 21.5244 85.9428 21.5116 86.1041C21.5046 86.18 21.4987 86.2572 21.494 86.3343C21.4929 86.339 21.4929 86.3436 21.4929 86.3483V86.3553C21.4765 86.5738 21.4613 86.7935 21.4473 87.0132C21.445 87.0564 21.4415 87.1008 21.4391 87.1441C21.4344 87.2177 21.4298 87.2913 21.4263 87.3649C21.4228 87.4222 21.4193 87.4783 21.4169 87.5355C21.4146 87.5659 21.4134 87.5963 21.4111 87.6267V87.6314C21.4099 87.6465 21.4087 87.6617 21.4087 87.6769C21.4041 87.7529 21.4006 87.8277 21.3971 87.9036C21.3889 88.052 21.3819 88.2004 21.376 88.3488C21.3725 88.4096 21.3702 88.4704 21.3678 88.5323C21.3655 88.5907 21.3632 88.6503 21.3608 88.7087C21.3538 88.8875 21.3468 89.0663 21.341 89.2451C21.341 89.279 21.3398 89.3117 21.3386 89.3444C21.334 89.5057 21.3293 89.6681 21.3258 89.8294C21.3223 89.9579 21.3199 90.0876 21.3176 90.2162C21.3153 90.3097 21.3141 90.4031 21.3129 90.4978C21.3106 90.6439 21.3094 90.7899 21.3082 90.9372C21.3071 91.1218 21.3059 91.3064 21.3059 91.4922C21.3059 91.6932 21.3071 91.8942 21.3094 92.0952C21.3094 92.1197 21.3094 92.1443 21.3094 92.1688C21.3094 92.2015 21.3094 92.2342 21.3106 92.2658C21.3118 92.4586 21.3153 92.6502 21.3188 92.843C21.3188 92.8758 21.3199 92.9085 21.3211 92.9412C21.3223 93.0008 21.3234 93.0616 21.3246 93.1212C21.3258 93.1562 21.3258 93.1913 21.3269 93.2263C21.3281 93.2661 21.3293 93.3058 21.3304 93.3455C21.3328 93.446 21.3351 93.5465 21.3386 93.647C21.3398 93.6856 21.341 93.723 21.3421 93.7603C21.3433 93.7942 21.3445 93.827 21.3456 93.8597C21.3456 93.869 21.3456 93.8784 21.3468 93.8877C21.3491 93.9789 21.3527 94.07 21.3573 94.16C21.3562 94.1647 21.3562 94.1693 21.3573 94.1728L21.3562 94.1822C21.3562 94.1822 21.3562 94.1845 21.3573 94.1869C21.3608 94.2839 21.3643 94.3797 21.369 94.4755C21.3702 94.5292 21.3725 94.5818 21.376 94.6356C21.3865 94.895 21.3994 95.1544 21.4146 95.4127C21.4228 95.5786 21.4333 95.7434 21.4438 95.9081C21.4508 96.025 21.4578 96.1418 21.466 96.2575C21.48 96.4608 21.494 96.663 21.5104 96.8652C21.5291 97.1187 21.5501 97.3723 21.5712 97.6247C21.9054 101.449 22.5469 105.186 23.4724 108.81C23.4841 108.857 23.4969 108.903 23.5086 108.95C23.5553 109.132 23.6033 109.314 23.6523 109.495C23.6979 109.67 23.7446 109.843 23.7926 110.017C23.9129 110.456 24.038 110.893 24.1677 111.329C24.2144 111.491 24.2635 111.652 24.3126 111.812C24.3605 111.971 24.4095 112.13 24.4598 112.288C24.5019 112.422 24.5439 112.557 24.5872 112.692C24.6246 112.811 24.6631 112.93 24.7017 113.049C24.7379 113.163 24.7753 113.276 24.8127 113.389C24.8454 113.489 24.8781 113.586 24.912 113.685C25.0113 113.984 25.1142 114.283 25.2193 114.581C25.2766 114.745 25.335 114.909 25.3935 115.072C25.4414 115.207 25.4893 115.34 25.5384 115.473C25.5793 115.585 25.6213 115.699 25.6634 115.811C25.7008 115.911 25.7382 116.012 25.7767 116.112C26.0326 116.792 26.2991 117.468 26.576 118.137C26.5865 118.163 26.5982 118.19 26.6087 118.216C27.9315 121.401 29.4822 124.467 31.2443 127.393C31.2478 127.399 31.2513 127.405 31.2549 127.411C31.3331 127.543 31.4126 127.674 31.4944 127.806C31.5598 127.914 31.6264 128.023 31.6954 128.132C31.8461 128.377 31.9992 128.621 32.1546 128.864C32.2913 129.081 32.4304 129.296 32.5695 129.511C32.5963 129.552 32.6232 129.592 32.6489 129.632C32.7985 129.86 32.9481 130.086 33.1 130.311C33.2577 130.549 33.4202 130.787 33.5826 131.023L33.5849 131.025C33.7205 131.223 33.8572 131.418 33.9951 131.613C34.1563 131.843 34.3199 132.073 34.4859 132.301C34.5513 132.391 34.6156 132.48 34.681 132.569C34.681 132.571 34.6833 132.573 34.6857 132.576C34.8201 132.762 34.9556 132.946 35.0935 133.13C35.4371 133.59 35.7864 134.047 36.1405 134.499C36.3181 134.726 36.4969 134.95 36.6769 135.175C36.8218 135.356 36.969 135.536 37.1174 135.716C37.1817 135.795 37.2471 135.873 37.3126 135.953C37.4469 136.115 37.5813 136.276 37.718 136.438C37.7578 136.486 37.7975 136.532 37.8372 136.579C38.002 136.773 38.1668 136.966 38.3327 137.158C38.5208 137.374 38.7101 137.59 38.9006 137.804C39.0315 137.951 39.1635 138.098 39.2967 138.244C39.3692 138.326 39.4428 138.407 39.5164 138.487C39.6905 138.679 39.8658 138.868 40.0411 139.058C40.4396 139.484 40.8427 139.905 41.2505 140.321C41.4469 140.521 41.6443 140.72 41.843 140.918C41.8558 140.932 41.8687 140.945 41.8827 140.958C42.037 141.112 42.1935 141.265 42.3501 141.417C42.4214 141.487 42.4927 141.556 42.564 141.625C42.7393 141.794 42.9145 141.964 43.0922 142.131C43.2885 142.317 43.486 142.502 43.6846 142.686C43.7419 142.74 43.8003 142.793 43.8587 142.846C43.9896 142.968 44.1205 143.087 44.2525 143.206C44.4453 143.381 44.6393 143.554 44.8333 143.725C44.9104 143.795 44.9899 143.864 45.0682 143.933C45.088 143.95 45.1079 143.968 45.1278 143.985C45.2621 144.103 45.3953 144.219 45.5309 144.336C45.5449 144.349 45.5601 144.362 45.5753 144.373C45.6524 144.441 45.7307 144.508 45.809 144.573C45.9247 144.674 46.0404 144.772 46.1572 144.869C46.2472 144.946 46.3384 145.021 46.4283 145.097C46.5779 145.222 46.7286 145.347 46.8806 145.469C46.974 145.547 47.0687 145.622 47.1622 145.698C47.1645 145.702 47.1669 145.704 47.1692 145.704C47.1937 145.725 47.2183 145.745 47.2428 145.763C47.3515 145.854 47.4613 145.941 47.5712 146.028C47.646 146.089 47.7207 146.147 47.7955 146.206C48.0164 146.382 48.2372 146.555 48.4604 146.727C48.5446 146.792 48.6287 146.858 48.714 146.921C48.8904 147.057 49.0681 147.192 49.2468 147.325C49.2819 147.352 49.317 147.379 49.352 147.404C49.4198 147.456 49.4876 147.506 49.5553 147.555C49.6009 147.59 49.6465 147.624 49.6932 147.658C51.8141 149.223 54.0273 150.672 56.3235 151.991C56.3504 152.006 56.3761 152.021 56.4018 152.037C56.5923 152.146 56.7839 152.254 56.9756 152.361C57.1146 152.44 57.2549 152.518 57.3951 152.594C57.5084 152.657 57.6206 152.719 57.734 152.78C57.866 152.853 57.9992 152.926 58.1324 152.996C58.3264 153.1 58.5204 153.203 58.7155 153.306C58.9095 153.407 59.1046 153.508 59.2998 153.608C59.551 153.737 59.8023 153.864 60.0547 153.989C60.237 154.079 60.4204 154.169 60.6039 154.259C60.9276 154.417 61.2524 154.571 61.5796 154.723C61.8262 154.839 62.0739 154.952 62.3216 155.064C62.4981 155.145 62.6757 155.224 62.8533 155.303C62.9433 155.342 63.0345 155.382 63.1244 155.422C63.2717 155.486 63.4177 155.549 63.565 155.612C63.8676 155.743 64.1714 155.872 64.4764 155.997C64.6412 156.065 64.8048 156.132 64.9695 156.198C65.271 156.32 65.5725 156.44 65.8752 156.555C65.9757 156.595 66.0773 156.634 66.179 156.672C66.2994 156.718 66.422 156.764 66.5424 156.81C66.7878 156.902 67.0344 156.994 67.2809 157.082C67.3802 157.119 67.4784 157.155 67.5777 157.19C67.6771 157.226 67.7752 157.261 67.8745 157.295C68.0089 157.342 68.1433 157.39 68.2777 157.435C68.9508 157.669 69.6297 157.891 70.3121 158.102C70.4488 158.146 70.5855 158.188 70.7223 158.229C70.8882 158.28 71.053 158.329 71.2189 158.378C71.2949 158.402 71.372 158.424 71.4479 158.446C71.6174 158.496 71.7868 158.544 71.9562 158.592C72.0941 158.632 72.2332 158.67 72.3722 158.709C72.4727 158.737 72.5721 158.764 72.6714 158.792C72.9133 158.857 73.154 158.922 73.3959 158.985C73.5163 159.016 73.6378 159.048 73.7593 159.078C74.0456 159.152 74.3307 159.223 74.6182 159.291C74.7829 159.331 74.9489 159.37 75.1136 159.409C75.2644 159.444 75.4151 159.479 75.5659 159.513C75.7224 159.549 75.879 159.584 76.0368 159.618C76.5673 159.735 77.1002 159.846 77.6353 159.949C77.744 159.97 77.8527 159.991 77.9625 160.013C78.1051 160.04 78.2477 160.067 78.3902 160.092C78.5678 160.125 78.7466 160.158 78.9266 160.188C79.2853 160.251 79.6441 160.312 80.0051 160.369C80.2587 160.409 80.5111 160.448 80.7647 160.485C80.9236 160.508 81.0825 160.532 81.2415 160.554C81.2485 160.556 81.2566 160.556 81.2648 160.558C81.4214 160.58 81.5768 160.601 81.7334 160.622C81.9811 160.655 82.23 160.686 82.4789 160.716C82.5619 160.728 82.6437 160.738 82.7255 160.747C82.8809 160.766 83.0363 160.784 83.1929 160.801C83.2887 160.812 83.3857 160.823 83.4827 160.832C83.6288 160.849 83.7748 160.864 83.9209 160.879C83.9279 160.88 83.9361 160.88 83.9443 160.881C84.0868 160.896 84.2306 160.91 84.3743 160.923C85.3979 161.021 86.4274 161.096 87.4639 161.148C87.6871 161.159 87.9091 161.17 88.1323 161.179C88.2433 161.184 88.3555 161.189 88.4677 161.192C88.5799 161.197 88.6921 161.2 88.8043 161.204C88.9585 161.208 89.1127 161.213 89.2682 161.217C89.2892 161.217 89.3091 161.218 89.3289 161.218C89.9015 161.232 90.4764 161.239 91.0525 161.239C95.6414 161.239 100.126 160.796 104.467 159.95C104.585 159.927 104.703 159.903 104.821 159.88C104.917 159.861 105.013 159.841 105.109 159.821C105.295 159.784 105.48 159.745 105.666 159.706C105.909 159.654 106.15 159.601 106.392 159.547C106.578 159.505 106.762 159.463 106.947 159.419C107.039 159.398 107.133 159.376 107.225 159.354C107.766 159.225 108.304 159.091 108.84 158.95C108.959 158.919 109.077 158.888 109.196 158.855C109.662 158.731 110.124 158.601 110.586 158.466C110.714 158.428 110.843 158.391 110.971 158.353C111.109 158.312 111.246 158.271 111.383 158.229C111.656 158.146 111.93 158.062 112.202 157.974C112.266 157.954 112.332 157.933 112.396 157.912C112.584 157.851 112.771 157.79 112.958 157.729C113.519 157.544 114.077 157.351 114.632 157.151C114.733 157.116 114.832 157.08 114.932 157.043C115.273 156.92 115.612 156.793 115.951 156.663C116.064 156.62 116.177 156.576 116.291 156.532C116.899 156.296 117.504 156.052 118.104 155.798C118.253 155.736 118.4 155.673 118.547 155.609C118.572 155.599 118.595 155.589 118.618 155.578C118.747 155.525 118.875 155.469 119.004 155.411C119.019 155.405 119.033 155.398 119.048 155.391C119.176 155.335 119.304 155.279 119.432 155.222C119.595 155.15 119.758 155.076 119.921 155.001C119.961 154.984 120.001 154.966 120.04 154.947C120.202 154.874 120.364 154.799 120.525 154.723C135.362 147.797 147.357 135.802 154.283 120.965C154.359 120.804 154.434 120.641 154.508 120.48C154.526 120.44 154.544 120.401 154.561 120.361C154.636 120.197 154.71 120.035 154.782 119.871C154.84 119.744 154.896 119.615 154.952 119.488C154.959 119.473 154.966 119.459 154.972 119.444C155.028 119.315 155.084 119.187 155.139 119.058C155.149 119.035 155.16 119.011 155.169 118.987C155.233 118.84 155.296 118.692 155.358 118.544C155.483 118.247 155.606 117.95 155.728 117.651C155.848 117.353 155.967 117.054 156.084 116.753C156.088 116.744 156.09 116.737 156.092 116.73C156.137 116.617 156.18 116.504 156.223 116.39C156.353 116.051 156.48 115.713 156.603 115.371C156.64 115.272 156.677 115.173 156.712 115.072C156.911 114.517 157.104 113.959 157.289 113.398C157.351 113.211 157.412 113.024 157.472 112.836C157.493 112.771 157.514 112.706 157.534 112.642C157.622 112.369 157.706 112.096 157.789 111.822C157.831 111.686 157.872 111.549 157.913 111.411C157.951 111.283 157.989 111.154 158.026 111.026C158.162 110.564 158.291 110.101 158.415 109.636C158.448 109.517 158.48 109.399 158.51 109.28C158.651 108.743 158.786 108.206 158.914 107.665C158.936 107.572 158.959 107.479 158.98 107.387C159.023 107.202 159.065 107.017 159.107 106.832C159.161 106.591 159.215 106.348 159.266 106.106C159.306 105.92 159.344 105.734 159.382 105.549C159.402 105.453 159.421 105.357 159.44 105.261C159.463 105.143 159.487 105.025 159.51 104.907C160.19 101.415 160.61 97.8304 160.748 94.1728V94.16C160.752 94.0583 160.756 93.9578 160.759 93.855C160.763 93.7837 160.765 93.7124 160.766 93.64C160.769 93.5757 160.771 93.5126 160.772 93.4495C160.773 93.425 160.773 93.3993 160.775 93.3747C160.779 93.1983 160.783 93.0207 160.786 92.843C160.791 92.6199 160.793 92.3943 160.796 92.17C160.798 91.9444 160.799 91.7189 160.799 91.4922C160.799 90.8963 160.792 90.3003 160.777 89.7067ZM120.855 76.2755C119.693 75.7765 118.254 75.5265 116.536 75.5265H108.065V88.9986L96.8216 100.183V66.1571H117.21C121.458 66.1571 124.994 66.8945 127.817 68.368C128.033 68.4813 128.246 68.597 128.454 68.7174L120.855 76.2755ZM39.4078 93.0218L67.0566 65.3251C70.7363 65.5506 74.0012 66.3452 76.8489 67.7101L68.661 75.9238C67.4761 75.6094 66.1696 75.4517 64.7405 75.4517C61.7911 75.4517 59.2799 76.1516 57.2069 77.5504C55.1328 78.9503 53.5588 80.9123 52.4849 83.4351C51.4098 85.9592 50.8735 88.995 50.8735 92.5427C50.8735 92.9494 50.8805 93.349 50.8968 93.7417L41.1617 103.507C40.0364 100.335 39.4522 96.8394 39.4078 93.0218ZM46.7111 112.561L54.441 104.818C55.2356 105.809 56.1576 106.652 57.2069 107.347C59.2799 108.722 61.7911 109.408 64.7405 109.408C67.8383 109.408 70.3495 108.747 72.2741 107.422C74.1975 106.098 75.4841 104.187 76.1338 101.688H88.428C87.4277 107.235 84.8674 111.595 80.7437 114.767C76.6211 117.942 71.3112 119.528 64.8153 119.528C59.5686 119.528 55.0451 118.392 51.2474 116.117C49.5635 115.11 48.0503 113.923 46.7111 112.561ZM108.065 100.158V118.628H96.8216V111.422L108.065 100.158ZM123.883 118.628L114.59 98.4637H109.757L117.897 90.3097C120.014 90.1192 121.62 89.4648 122.72 88.3442C123.92 87.1219 124.577 85.5093 124.689 83.5064L134.045 74.1324C134.069 74.1721 134.092 74.2118 134.114 74.2527C135.487 76.702 136.176 79.4247 136.176 82.4232C136.176 85.2218 135.512 87.8452 134.189 90.2933C132.864 92.7426 130.803 94.7162 128.005 96.2154C127.396 96.5415 126.75 96.8313 126.064 97.086L135.014 115.342L131.741 118.628H123.883Z" fill="#E2AB2B"/>
<path d="M160.799 91.4903C160.799 92.3935 160.782 93.2922 160.749 94.1861C159.33 56.9167 128.669 27.1376 91.0525 27.1376C53.4361 27.1376 22.7748 56.9167 21.3562 94.1861C21.3223 93.2922 21.3059 92.3935 21.3059 91.4903C21.3059 52.9705 52.5328 21.7437 91.0525 21.7437C129.572 21.7437 160.799 52.9705 160.799 91.4903Z" fill="#CC8232"/>
<path d="M182.053 91.4897C182.053 141.147 142.279 181.514 92.851 182.471C92.2539 182.484 91.6532 182.49 91.0526 182.49C88.1126 182.49 85.2064 182.351 82.3376 182.077C78.2933 181.693 74.3261 181.044 70.4536 180.148C59.7813 177.679 49.8289 173.332 40.962 167.474C38.75 166.013 36.6057 164.459 34.5339 162.815C27.3509 157.116 21.0489 150.356 15.8653 142.769C13.9769 140.006 12.237 137.134 10.6583 134.162C9.18592 131.394 7.85261 128.541 6.66654 125.611C5.38232 122.441 4.27221 119.181 3.34789 115.843C1.71311 109.947 0.657916 103.808 0.247758 97.496C0.118051 95.5095 0.0526123 93.5066 0.0526123 91.4873C0.0526123 90.5303 0.0678033 89.578 0.0970168 88.6279C0.184657 91.4546 0.399668 94.2474 0.739713 97.0028C1.4829 103.04 2.81738 108.895 4.68353 114.506C5.74924 117.715 6.99023 120.843 8.39481 123.882C9.69657 126.702 11.1409 129.446 12.7161 132.103C14.4128 134.966 16.2638 137.73 18.2538 140.379C23.7623 147.71 30.3517 154.183 37.7871 159.558C39.9465 161.121 42.1785 162.589 44.4735 163.96C53.7715 169.512 64.1435 173.452 75.2037 175.394C79.2842 176.109 83.4571 176.555 87.7047 176.708C88.816 176.749 89.932 176.77 91.0526 176.77C93.69 176.77 96.3017 176.658 98.8842 176.437C144.539 172.547 180.579 134.945 182.008 88.6291C182.037 89.578 182.053 90.5315 182.053 91.4885V91.4897Z" fill="#E59638"/>
<path d="M49.6931 147.656L34.5348 162.814C27.3518 157.116 21.0499 150.355 15.8662 142.769L18.2535 140.382L31.2442 127.391C36.0025 135.303 42.2892 142.194 49.6931 147.655V147.656Z" fill="#FFE357"/>
<path d="M162.377 34.9718L147.218 50.1301C141.758 42.7262 134.867 36.4395 126.955 31.6812L142.333 16.3032C149.919 21.4869 156.68 27.7888 162.378 34.9718H162.377Z" fill="#FFE357"/>
<path d="M26.6084 118.213L10.6579 134.164C9.18551 131.395 7.8522 128.542 6.66614 125.612L23.4709 108.808C24.2971 112.039 25.3476 115.181 26.6084 118.213Z" fill="#FFE357"/>
<path d="M133.727 11.0948L117.776 27.0453C114.744 25.7856 111.602 24.7339 108.371 23.9078L125.176 7.10303C128.105 8.28909 130.959 9.6224 133.727 11.0948Z" fill="#FFE357"/>
<path d="M120.667 154.658L98.8839 176.44L92.8508 182.474C92.2536 182.486 91.653 182.492 91.0524 182.492C88.1123 182.492 85.2062 182.353 82.3374 182.08L104.467 159.95C110.143 158.845 115.573 157.05 120.666 154.659L120.667 154.658Z" fill="#FFE357"/>
<path d="M182.052 91.4897C182.052 92.0903 182.047 92.6909 182.034 93.2881L154.218 121.104C156.61 116.01 158.403 110.581 159.509 104.906L181.639 82.7759C181.912 85.6446 182.051 88.5508 182.051 91.4908L182.052 91.4897Z" fill="#FFE357"/>
<path d="M21.3054 91.4905C21.3054 93.5565 21.3954 95.6014 21.5718 97.6218L4.68407 114.51L3.34843 115.845C1.71364 109.949 0.658448 103.81 0.248291 97.498L23.4391 74.3071C22.0462 79.8039 21.3065 85.5602 21.3065 91.4893L21.3054 91.4905Z" fill="#FFE357"/>
<path d="M115.408 3.78764L97.1842 22.011C95.165 21.8346 93.1189 21.7446 91.0529 21.7446C85.1238 21.7446 79.3675 22.4843 73.8707 23.8772L97.0616 0.6875C103.374 1.09883 109.511 2.15402 115.409 3.78764H115.408Z" fill="#FFE357"/>
<path d="M89.385 161.219L70.4535 180.15C59.7812 177.681 49.8288 173.334 40.9619 167.476L44.4734 163.965L56.4018 152.036C66.1591 157.632 77.397 160.938 89.3838 161.22L89.385 161.219Z" fill="#FFE357"/>
<path d="M179.713 70.8928L160.781 89.8243C160.5 77.8374 157.194 66.5996 151.598 56.8423L167.038 41.4023C172.895 50.2692 177.242 60.2217 179.712 70.8939L179.713 70.8928Z" fill="#FFE357"/>
<path d="M37.7864 159.562L34.5332 162.815C27.3502 157.117 21.0483 150.356 15.8646 142.77L18.2519 140.382C23.7604 147.714 30.3498 154.186 37.7853 159.562H37.7864Z" fill="#FCBB47"/>
<path d="M12.7157 132.107L10.6579 134.165C9.18551 131.397 7.8522 128.543 6.66614 125.614L8.39441 123.885C9.69616 126.706 11.1405 129.45 12.7157 132.107Z" fill="#FCBB47"/>
<path d="M98.8839 176.44L92.8508 182.474C92.2536 182.486 91.653 182.492 91.0524 182.492C88.1123 182.492 85.2062 182.353 82.3374 182.08L87.7045 176.713C88.8158 176.754 89.9317 176.775 91.0524 176.775C93.6898 176.775 96.3014 176.662 98.8839 176.442V176.44Z" fill="#FCBB47"/>
<path d="M4.68333 114.51L3.34769 115.846C1.71291 109.95 0.657716 103.811 0.247559 97.4988L0.739514 97.0068C1.4827 103.044 2.81718 108.899 4.68333 114.51Z" fill="#FCBB47"/>
<path d="M75.2048 175.401L70.4535 180.152C59.7812 177.683 49.8288 173.336 40.9619 167.478L44.4734 163.967C53.7714 169.519 64.1434 173.459 75.2036 175.401H75.2048Z" fill="#FCBB47"/>
<path d="M64.8155 65.2559C59.5687 65.2559 55.0453 66.4174 51.2476 68.7416C47.4498 71.0647 44.5261 74.2641 42.4777 78.3365C40.4281 82.41 39.4044 87.1438 39.4044 92.5413C39.4044 92.7013 39.4056 92.8614 39.4079 93.0204L67.0567 65.3236C66.3264 65.2781 65.5785 65.2559 64.8155 65.2559ZM84.78 74.4254C83.6629 72.7999 82.3167 71.3685 80.7438 70.1287C79.5461 69.1845 78.2478 68.3782 76.8491 67.7086L68.6611 75.9223C70.0447 76.288 71.2623 76.8676 72.3117 77.6611C74.1089 79.0213 75.3323 80.8804 75.9809 83.2397C76.037 83.4383 76.0872 83.6405 76.134 83.8462H88.4282C87.81 80.1991 86.5947 77.0593 84.78 74.4254ZM52.4851 101.498C51.5362 99.272 51.008 96.6861 50.897 93.7402L41.1619 103.506C41.5382 104.573 41.9775 105.602 42.4777 106.595C43.6182 108.862 45.0286 110.85 46.7113 112.56L54.4412 104.817C53.6676 103.852 53.0144 102.745 52.4851 101.498Z" fill="#FFCC3E"/>
<path d="M134.046 74.1313C132.777 71.9251 130.914 70.1197 128.454 68.7163L120.855 76.2744C121.587 76.5888 122.21 77.0013 122.72 77.5119C124.044 78.837 124.707 80.6226 124.707 82.872C124.707 83.087 124.701 83.2985 124.689 83.5053L134.046 74.1313ZM108.066 90.367V88.9975L96.8219 100.182V111.421L108.066 100.157V98.4626H109.758L117.898 90.3086C117.465 90.3471 117.012 90.367 116.536 90.367H108.066ZM135.014 115.341L131.741 118.627H136.626L135.014 115.341Z" fill="#FFCC3E"/>
<path d="M76.8494 67.7107L68.6614 75.9243C67.4765 75.61 66.1701 75.4522 64.741 75.4522C61.7916 75.4522 59.2804 76.1522 57.2074 77.5509C55.1332 78.9509 53.5592 80.9128 52.4853 83.4357C51.4103 85.9597 50.8739 88.9956 50.8739 92.5433C50.8739 92.95 50.8809 93.3496 50.8973 93.7422L41.1622 103.508C40.0369 100.335 39.4526 96.84 39.4082 93.0224L67.057 65.3257C70.7367 65.5512 74.0016 66.3458 76.8494 67.7107Z" fill="#FFE357"/>
<path d="M88.4278 101.689C87.4275 107.236 84.8673 111.596 80.7435 114.768C76.6209 117.943 71.311 119.529 64.8151 119.529C59.5684 119.529 55.045 118.393 51.2472 116.118C49.5633 115.111 48.0501 113.925 46.7109 112.562L54.4408 104.819C55.2354 105.81 56.1574 106.653 57.2068 107.348C59.2797 108.724 61.7909 109.41 64.7403 109.41C67.8381 109.41 70.3493 108.748 72.2739 107.423C74.1973 106.099 75.4839 104.188 76.1336 101.689H88.4278Z" fill="#FFE357"/>
<path d="M128.454 68.7185L120.855 76.2766C119.694 75.7776 118.254 75.5276 116.536 75.5276H108.066V88.9996L96.8219 100.184V66.1582H117.211C121.458 66.1582 124.994 66.8955 127.817 68.3691C128.034 68.4824 128.246 68.5981 128.454 68.7185Z" fill="#FFE357"/>
<path d="M108.066 100.158V118.628H96.8219V111.422L108.066 100.158Z" fill="#FFE357"/>
<path d="M126.064 97.0884L135.014 115.344L131.74 118.63H123.882L114.59 98.4661H109.757L117.897 90.312C120.013 90.1216 121.62 89.4672 122.719 88.3465C123.919 87.1242 124.576 85.5117 124.688 83.5088L134.045 74.1348C134.068 74.1745 134.092 74.2142 134.114 74.2551C135.487 76.7044 136.175 79.4271 136.175 82.4256C136.175 85.2242 135.511 87.8476 134.189 90.2957C132.863 92.7449 130.802 94.7186 128.005 96.2178C127.396 96.5438 126.75 96.8336 126.064 97.0884Z" fill="#FFE357"/>
</svg>
