<svg width="40" height="41" viewBox="0 0 40 41" fill="none" xmlns="http://www.w3.org/2000/svg">
  <circle cx="20" cy="20.3353" r="20" fill="#1F2A39"/>
  <path d="M19.3769 18.5137H16.3527C16.3124 18.1984 16.2297 17.9139 16.1047 17.66C15.9797 17.4061 15.8144 17.1891 15.6088 17.0089C15.4031 16.8287 15.1592 16.6916 14.8769 16.5974C14.5987 16.4991 14.2902 16.45 13.9515 16.45C13.3507 16.45 12.8326 16.5994 12.3971 16.8984C11.9657 17.1973 11.633 17.6293 11.3992 18.1943C11.1693 18.7594 11.0544 19.4433 11.0544 20.2458C11.0544 21.0812 11.1713 21.7814 11.4052 22.3464C11.6431 22.9074 11.9758 23.3312 12.4032 23.6179C12.8346 23.9004 13.3447 24.0417 13.9334 24.0417C14.264 24.0417 14.5644 23.9987 14.8346 23.9127C15.1088 23.8267 15.3487 23.7018 15.5543 23.538C15.764 23.3701 15.9354 23.1674 16.0684 22.9299C16.2055 22.6884 16.3003 22.416 16.3527 22.113L19.3769 22.1315C19.3245 22.6884 19.1652 23.237 18.8991 23.7776C18.637 24.3181 18.2761 24.8115 17.8164 25.2578C17.3567 25.7001 16.7963 26.0522 16.135 26.3143C15.4777 26.5763 14.7237 26.7074 13.8729 26.7074C12.752 26.7074 11.7479 26.4576 10.8609 25.958C9.9778 25.4544 9.28023 24.7214 8.76814 23.7591C8.25605 22.7969 8 21.6258 8 20.2458C8 18.8618 8.26008 17.6886 8.78023 16.7264C9.30039 15.7641 10.004 15.0332 10.8911 14.5336C11.7782 14.0341 12.7721 13.7843 13.8729 13.7843C14.6229 13.7843 15.3164 13.8908 15.9535 14.1037C16.5906 14.3125 17.1511 14.6196 17.635 15.025C18.1188 15.4263 18.512 15.9197 18.8144 16.5053C19.1168 17.0908 19.3043 17.7603 19.3769 18.5137Z" fill="#FF8A00"/>
  <path d="M21.9417 26.5354V13.9563H27.0585C27.9859 13.9563 28.7863 14.1262 29.4597 14.4661C30.1371 14.8018 30.6593 15.285 31.0262 15.9156C31.3932 16.5421 31.5766 17.2853 31.5766 18.1452C31.5766 19.0174 31.3891 19.7585 31.0141 20.3687C30.6391 20.9747 30.1069 21.4374 29.4174 21.7568C28.7279 22.0721 27.9113 22.2297 26.9678 22.2297H23.732V19.8343H26.4114C26.863 19.8343 27.24 19.7749 27.5424 19.6562C27.8488 19.5333 28.0807 19.3491 28.2379 19.1034C28.3952 18.8536 28.4738 18.5342 28.4738 18.1452C28.4738 17.7562 28.3952 17.4348 28.2379 17.1809C28.0807 16.9229 27.8488 16.7305 27.5424 16.6035C27.2359 16.4725 26.8589 16.407 26.4114 16.407H24.9356V26.5354H21.9417ZM28.9154 20.7863L32 26.5354H28.7339L25.7098 20.7863H28.9154Z" fill="#FF8A00"/>
  <g opacity="0.96">
    <path d="M19.9859 36.4896C13.1569 36.4896 7.30937 32.2601 4.94252 26.2775C3.39015 25.0601 1.54541 23.3696 0 21.2618C0.487291 31.8705 9.25157 40.3227 19.9929 40.3227C29.0217 40.3227 36.6443 34.354 39.1434 26.1453C38.3707 24.4549 37.2708 22.9592 36.1152 21.7001C35.4052 29.9853 28.4578 36.4896 19.9859 36.4896Z" fill="url(#paint0_linear_3530_33053)"/>
    <path d="M19.9862 36.4894C28.4582 36.4894 35.4055 29.9851 36.1086 21.7069C35.6909 21.2547 35.2663 20.8303 34.8486 20.4408C34.8208 24.3643 33.2754 28.0512 30.4978 30.8268C27.6924 33.6303 23.9612 35.1747 19.9862 35.1747C16.0183 35.1747 12.287 33.6303 9.47468 30.8268C8.57668 29.9295 7.81093 28.9416 7.18441 27.8773C6.59966 27.5016 5.81304 26.966 4.93591 26.2773C7.30972 32.2599 13.1572 36.4894 19.9862 36.4894Z" fill="url(#paint1_linear_3530_33053)"/>
    <path d="M19.9863 4.15564C11.048 4.15564 3.80823 11.3974 3.80823 20.3226C3.80823 20.733 3.82215 21.1365 3.85696 21.54C4.35817 22.0686 4.86635 22.5556 5.36756 23.0008C5.20745 22.1243 5.12392 21.2339 5.12392 20.3226C5.12392 16.3574 6.66932 12.6287 9.47473 9.81824C12.2801 7.01477 16.0114 5.47042 19.9863 5.47042C23.9612 5.47042 27.6855 7.01477 30.4979 9.81824C32.3426 11.6617 33.6444 13.9087 34.3196 16.3574C34.8208 16.733 35.3777 17.1713 35.9555 17.6721C34.6816 9.99911 28.0196 4.15564 19.9863 4.15564Z" fill="url(#paint2_linear_3530_33053)"/>
    <path d="M19.9863 0.322632C10.3032 0.322632 2.23501 7.19566 0.376343 16.3226C1.18385 18.333 2.48562 20.093 3.85699 21.54C3.82915 21.1365 3.80826 20.733 3.80826 20.3226C3.80826 11.3904 11.055 4.15567 19.9863 4.15567C28.0197 4.15567 34.6816 10.0061 35.9486 17.6722C37.2573 18.8061 38.6983 20.26 39.9305 21.9922C39.9792 21.4426 40.0001 20.8861 40.0001 20.3226C40.0001 9.27566 31.0409 0.322632 19.9863 0.322632Z" fill="url(#paint3_linear_3530_33053)"/>
  </g>
  <defs>
    <linearGradient id="paint0_linear_3530_33053" x1="19.5717" y1="20.775" x2="19.5717" y2="40.321" gradientUnits="userSpaceOnUse">
      <stop stop-color="#A8BDCB"/>
      <stop offset="0.0318" stop-color="#A1B5C4"/>
      <stop offset="0.282" stop-color="#6C7D8A"/>
      <stop offset="0.5122" stop-color="#41515C"/>
      <stop offset="0.7154" stop-color="#21323B"/>
      <stop offset="0.8836" stop-color="#111E26"/>
      <stop offset="0.9963" stop-color="#0B171F"/>
    </linearGradient>
    <linearGradient id="paint1_linear_3530_33053" x1="31.0619" y1="16.1445" x2="12.0066" y2="35.2129" gradientUnits="userSpaceOnUse">
      <stop stop-color="white"/>
      <stop offset="0.4215" stop-color="#A8BDCB"/>
      <stop offset="0.682" stop-color="#D3DEE0"/>
    </linearGradient>
    <linearGradient id="paint2_linear_3530_33053" x1="19.8819" y1="22.6667" x2="19.8819" y2="3.00461" gradientUnits="userSpaceOnUse">
      <stop offset="0.0226" stop-color="#A8BDCB"/>
      <stop offset="1" stop-color="#5B798C"/>
    </linearGradient>
    <linearGradient id="paint3_linear_3530_33053" x1="33.7797" y1="28.6317" x2="8.59065" y2="3.42528" gradientUnits="userSpaceOnUse">
      <stop stop-color="#A8BDCB" stop-opacity="0.5"/>
      <stop offset="0.7574" stop-color="#A8BDCB"/>
    </linearGradient>
  </defs>
</svg>
