<svg width="32" height="32" viewBox="0 0 32 32" fill="none" xmlns="http://www.w3.org/2000/svg">
  <path d="M7.0502 22.3772C14.0094 25.0931 19.9317 25.6221 26.6429 21.3947C26.5937 21.4685 25.2662 23.4353 21.7751 24.4432C22.5126 25.4512 23.5206 26.6067 23.5206 26.6067C25.7579 26.6067 27.9459 25.9674 29.8389 24.7382C31.314 23.7548 32.1498 22.0585 31.9777 20.2884C31.6827 17.2645 30.9697 14.3143 29.8635 11.4871C28.4621 7.79943 25.0941 5.24259 21.1851 4.87379C20.8409 4.8492 20.5951 4.8492 20.4476 4.8492L20.0542 5.24252C24.5532 6.52094 26.7905 8.51228 26.8396 8.58607C19.9313 5.09501 11.7692 5.04589 4.81165 8.43857C4.81165 8.43857 7.02429 6.25052 11.9166 5.09501L11.6216 4.8C11.1053 4.8 10.6136 4.8492 10.0974 4.92291C6.48339 5.53753 3.45951 8.02058 2.15649 11.4379C1.02558 14.388 0.288053 17.4857 0.0176403 20.6325C-0.129864 22.3043 0.656851 23.9515 2.03358 24.9103C3.85283 26.115 6.01628 26.7542 8.20432 26.7542C8.20432 26.7542 9.08935 25.5986 9.97445 24.5661C6.65549 23.5827 5.30335 21.616 5.27876 21.5422L5.90337 21.8611C6.27676 22.0519 6.65958 22.2247 7.0502 22.3772ZM10.9087 20.2392C9.31064 20.19 8.05682 18.8379 8.10601 17.2153C8.1552 15.691 9.38443 14.4618 10.9087 14.4126C12.5067 14.4618 13.7605 15.8139 13.7113 17.4366C13.6375 18.9609 12.4329 20.1901 10.9087 20.2392ZM20.9392 20.2392C19.3412 20.19 18.0873 18.8379 18.1365 17.2153C18.1857 15.691 19.415 14.4618 20.9392 14.4126C22.5372 14.4618 23.791 15.8139 23.7419 17.4366C23.6927 18.9609 22.4634 20.1901 20.9392 20.2392Z" fill="white"/>
</svg>
