<svg width="176" height="174" viewBox="0 0 176 174" fill="none" xmlns="http://www.w3.org/2000/svg">
<mask id="mask0_5184_2525" style="mask-type:luminance" maskUnits="userSpaceOnUse" x="0" y="0" width="176" height="130">
<path d="M0.333374 0.333496H175.287V129.389H0.333374V0.333496Z" fill="white"/>
</mask>
<g mask="url(#mask0_5184_2525)">
<path d="M175.207 84.6942V129.027H0.413574V84.6942L29.3995 56.6617L56.2382 30.6963L87.5717 0.438477L119.023 30.6963L146.221 56.7798L175.207 84.6942Z" fill="#E2AB2B"/>
</g>
<path d="M29.3994 30.6973H146.221V137.221H29.3994V30.6973Z" fill="#EEEDF2"/>
<mask id="mask1_5184_2525" style="mask-type:luminance" maskUnits="userSpaceOnUse" x="0" y="84" width="176" height="90">
<path d="M0.333374 84.5703H175.287V173.667H0.333374V84.5703Z" fill="white"/>
</mask>
<g mask="url(#mask1_5184_2525)">
<path d="M175.207 84.6934V156.304C175.207 160.997 173.458 165.289 170.674 168.312V168.392C167.851 171.413 164.034 173.322 159.779 173.322H15.841C11.5865 173.322 7.76868 171.413 4.94645 168.392V168.312C2.16218 165.289 0.413574 160.997 0.413574 156.304V84.6934L29.3995 100.718L45.7022 109.703L87.8101 130.22L129.321 110.1L146.221 100.718L175.207 84.6934Z" fill="#FFE357"/>
</g>
<path d="M130.395 100.718C130.395 101.419 130.378 102.119 130.344 102.819C130.308 103.52 130.258 104.22 130.188 104.916C130.12 105.614 130.034 106.31 129.931 107.004C129.829 107.698 129.709 108.388 129.572 109.076C129.435 109.763 129.281 110.447 129.11 111.128C128.941 111.807 128.754 112.484 128.551 113.155C128.347 113.826 128.127 114.49 127.891 115.15C127.655 115.81 127.402 116.464 127.134 117.114C126.866 117.762 126.581 118.403 126.282 119.036C125.982 119.67 125.666 120.295 125.337 120.915C125.005 121.533 124.659 122.143 124.299 122.744C123.938 123.345 123.565 123.938 123.175 124.52C122.784 125.104 122.381 125.676 121.964 126.239C121.546 126.802 121.114 127.355 120.671 127.897C120.226 128.439 119.768 128.97 119.296 129.489C118.825 130.008 118.342 130.516 117.846 131.012C117.351 131.508 116.842 131.991 116.324 132.463C115.805 132.934 115.273 133.391 114.731 133.837C114.189 134.282 113.636 134.712 113.073 135.13C112.51 135.547 111.936 135.952 111.354 136.34C110.772 136.73 110.179 137.106 109.578 137.467C108.977 137.827 108.365 138.171 107.747 138.502C107.129 138.833 106.503 139.148 105.87 139.447C105.235 139.747 104.594 140.032 103.946 140.299C103.299 140.567 102.645 140.82 101.985 141.057C101.324 141.293 100.66 141.512 99.9892 141.717C99.3163 141.919 98.6413 142.107 97.9621 142.278C97.2808 142.447 96.5974 142.601 95.9098 142.738C95.2221 142.875 94.5324 142.995 93.8385 143.098C93.1445 143.2 92.4484 143.286 91.7503 143.356C91.0521 143.423 90.3539 143.476 89.6536 143.51C88.9533 143.543 88.253 143.56 87.5506 143.56C86.8504 143.56 86.1501 143.543 85.4498 143.51C84.7495 143.476 84.0492 143.423 83.351 143.356C82.655 143.286 81.9589 143.2 81.2649 143.098C80.571 142.995 79.8813 142.875 79.1936 142.738C78.506 142.601 77.8205 142.447 77.1413 142.278C76.46 142.107 75.785 141.919 75.1142 141.717C74.4435 141.512 73.777 141.293 73.1167 141.057C72.4565 140.82 71.8027 140.567 71.1551 140.299C70.5075 140.032 69.8663 139.747 69.2335 139.447C68.5986 139.148 67.9743 138.833 67.3542 138.502C66.7361 138.171 66.1265 137.827 65.5254 137.467C64.9242 137.106 64.3315 136.73 63.7494 136.34C63.1651 135.952 62.5935 135.547 62.0303 135.13C61.4671 134.712 60.9145 134.282 60.3724 133.837C59.8303 133.391 59.2988 132.934 58.7799 132.463C58.2589 131.991 57.7526 131.508 57.257 131.012C56.7613 130.516 56.2761 130.008 55.8058 129.489C55.3354 128.97 54.8777 128.439 54.4326 127.897C53.9876 127.355 53.5573 126.802 53.1396 126.239C52.722 125.676 52.317 125.104 51.9289 124.52C51.5387 123.938 51.1632 123.345 50.8025 122.744C50.4418 122.143 50.098 121.533 49.7669 120.915C49.4357 120.295 49.1214 119.67 48.8219 119.036C48.5203 118.403 48.2376 117.762 47.9697 117.114C47.6998 116.464 47.4487 115.81 47.2125 115.15C46.9763 114.49 46.7569 113.826 46.5523 113.155C46.3498 112.484 46.1621 111.807 45.9912 111.128C45.8204 110.447 45.6685 109.763 45.5314 109.076C45.3943 108.388 45.2741 107.698 45.1707 107.004C45.0695 106.31 44.983 105.614 44.9134 104.916C44.8459 104.22 44.7931 103.52 44.7594 102.819C44.7256 102.119 44.7067 101.419 44.7067 100.718C44.7067 100.016 44.7256 99.3158 44.7594 98.6155C44.7931 97.9152 44.8459 97.215 44.9134 96.5189C44.983 95.8207 45.0695 95.1246 45.1707 94.4307C45.2741 93.7367 45.3943 93.047 45.5314 92.3594C45.6685 91.6717 45.8204 90.9883 45.9912 90.307C46.1621 89.6278 46.3498 88.9507 46.5523 88.28C46.7569 87.6092 46.9763 86.9448 47.2125 86.2846C47.4487 85.6244 47.6998 84.9705 47.9697 84.3229C48.2376 83.6733 48.5203 83.0342 48.8219 82.3993C49.1214 81.7665 49.4357 81.14 49.7669 80.522C50.098 79.9019 50.4418 79.2923 50.8025 78.6911C51.1632 78.09 51.5387 77.4973 51.9289 76.9151C52.317 76.3329 52.722 75.7592 53.1396 75.196C53.5573 74.6329 53.9876 74.0802 54.4326 73.5381C54.8777 72.996 55.3354 72.4645 55.8058 71.9456C56.2761 71.4267 56.7613 70.9184 57.257 70.4227C57.7526 69.927 58.2589 69.444 58.7799 68.9715C59.2988 68.5011 59.8303 68.0434 60.3724 67.5984C60.9145 67.1533 61.4671 66.723 62.0303 66.3054C62.5935 65.8877 63.1651 65.4848 63.7494 65.0946C64.3315 64.7044 64.9242 64.329 65.5254 63.9704C66.1265 63.6097 66.7361 63.2638 67.3542 62.9326C67.9743 62.6014 68.5986 62.2872 69.2335 61.9876C69.8663 61.6881 70.5075 61.4034 71.1551 61.1355C71.8027 60.8676 72.4565 60.6145 73.1167 60.3782C73.777 60.142 74.4435 59.9226 75.1142 59.718C75.785 59.5155 76.46 59.3278 77.1413 59.157C77.8205 58.9882 78.506 58.8342 79.1936 58.6971C79.8813 58.56 80.571 58.4398 81.2649 58.3386C81.9589 58.2352 82.655 58.1487 83.351 58.0812C84.0492 58.0116 84.7495 57.961 85.4498 57.9251C86.1501 57.8914 86.8504 57.8745 87.5506 57.8745C88.253 57.8745 88.9533 57.8914 89.6536 57.9251C90.3539 57.961 91.0521 58.0116 91.7503 58.0812C92.4484 58.1487 93.1445 58.2352 93.8385 58.3386C94.5324 58.4398 95.2221 58.56 95.9098 58.6971C96.5974 58.8342 97.2808 58.9882 97.9621 59.157C98.6413 59.3278 99.3163 59.5155 99.9892 59.718C100.66 59.9226 101.324 60.142 101.985 60.3782C102.645 60.6145 103.299 60.8676 103.946 61.1355C104.594 61.4034 105.235 61.6881 105.87 61.9876C106.503 62.2872 107.129 62.6014 107.747 62.9326C108.365 63.2638 108.977 63.6097 109.578 63.9704C110.179 64.329 110.772 64.7044 111.354 65.0946C111.936 65.4848 112.51 65.8877 113.073 66.3054C113.636 66.723 114.189 67.1533 114.731 67.5984C115.273 68.0434 115.805 68.5011 116.324 68.9715C116.842 69.444 117.351 69.927 117.846 70.4227C118.342 70.9184 118.825 71.4267 119.296 71.9456C119.768 72.4645 120.226 72.996 120.671 73.5381C121.114 74.0802 121.546 74.6329 121.964 75.196C122.381 75.7592 122.784 76.3329 123.175 76.9151C123.565 77.4973 123.938 78.09 124.299 78.6911C124.659 79.2923 125.005 79.9019 125.337 80.522C125.666 81.14 125.982 81.7665 126.282 82.3993C126.581 83.0342 126.866 83.6733 127.134 84.3229C127.402 84.9705 127.655 85.6244 127.891 86.2846C128.127 86.9448 128.347 87.6092 128.551 88.28C128.754 88.9507 128.941 89.6278 129.11 90.307C129.281 90.9883 129.435 91.6717 129.572 92.3594C129.709 93.047 129.829 93.7367 129.931 94.4307C130.034 95.1246 130.12 95.8207 130.188 96.5189C130.258 97.215 130.308 97.9152 130.344 98.6155C130.378 99.3158 130.395 100.016 130.395 100.718Z" fill="#7BABDB"/>
<path d="M87.5716 51.8105C60.6485 51.8105 38.7435 73.6966 38.7435 100.599C38.7435 102.476 38.8469 104.281 39.0409 106.034L45.6979 109.704C45.0208 106.762 44.7044 103.739 44.7044 100.599C44.7044 76.9808 63.9475 57.7756 87.5674 57.7756C111.185 57.7756 130.39 76.9808 130.39 100.599C130.39 103.859 130.034 107.04 129.317 110.101L135.997 106.393C136.225 104.488 136.355 102.554 136.355 100.599C136.36 73.6987 114.474 51.8105 87.5716 51.8105Z" fill="#C2BFD6"/>
<path d="M108.129 121.633V138.214C102.005 141.553 95.0068 143.462 87.5716 143.462C80.3346 143.462 73.4962 141.634 67.4911 138.453V121.633C67.4911 117.18 71.0305 113.681 75.4431 113.681H100.175C104.589 113.681 108.129 117.18 108.129 121.633Z" fill="#BAD47A"/>
<path d="M100.852 90.8583C100.852 98.0552 95.007 103.9 87.8101 103.9C80.6132 103.9 74.7683 98.0552 74.7683 90.8583C74.7683 83.6993 80.6132 77.8545 87.8101 77.8545C95.007 77.8545 100.852 83.6993 100.852 90.8583Z" fill="#BAD47A"/>
<path d="M8.02381 170.902L51.1483 123.148C50.4101 121.96 49.7056 120.747 49.0812 119.486C48.4421 118.187 47.8958 116.822 47.3917 115.442L2.64722 164.985C3.30743 166.194 4.04779 167.339 4.94213 168.314V168.394C5.86389 169.375 6.91432 170.183 8.02381 170.902Z" fill="#E2AB2B"/>
<path d="M126.18 119.167C125.573 120.432 124.881 121.645 124.155 122.837L167.596 170.901C168.702 170.182 169.756 169.374 170.674 168.393V168.313C171.572 167.339 172.313 166.193 172.969 164.985L127.857 115.077C127.357 116.471 126.809 117.84 126.18 119.167Z" fill="#E2AB2B"/>
</svg>
