<svg width="214" height="214" viewBox="0 0 214 214" fill="none" xmlns="http://www.w3.org/2000/svg">
  <g opacity="0.96">
    <path d="M106.925 193.022C70.5603 193.022 39.4224 170.499 26.8189 138.642C18.5526 132.159 8.7293 123.158 0.5 111.934C3.09483 168.425 49.7646 213.433 106.962 213.433C155.04 213.433 195.631 181.649 208.939 137.938C204.824 128.937 198.967 120.972 192.814 114.267C189.033 158.386 152.038 193.022 106.925 193.022Z" fill="url(#paint0_linear_1_413)"/>
    <path d="M106.927 193.021C152.039 193.021 189.034 158.385 192.778 114.303C190.554 111.896 188.293 109.636 186.069 107.562C185.92 128.454 177.691 148.087 162.901 162.867C147.962 177.796 128.093 186.019 106.927 186.019C85.7973 186.019 65.9283 177.796 50.9525 162.867C46.1706 158.089 42.093 152.829 38.7568 147.161C35.643 145.161 31.4542 142.308 26.7835 138.641C39.424 170.498 70.5619 193.021 106.927 193.021Z" fill="url(#paint1_linear_1_413)"/>
    <path d="M106.927 20.8431C59.3307 20.8431 20.779 59.4053 20.779 106.932C20.779 109.118 20.8532 111.266 21.0385 113.415C23.7075 116.23 26.4135 118.823 29.0825 121.194C28.2299 116.526 27.7851 111.785 27.7851 106.932C27.7851 85.8173 36.0144 65.962 50.9531 50.9965C65.8919 36.068 85.7609 27.8444 106.927 27.8444C128.094 27.8444 147.925 36.068 162.901 50.9965C172.725 60.813 179.656 72.778 183.252 85.8173C185.921 87.8176 188.887 90.1514 191.963 92.8185C185.18 51.9596 149.705 20.8431 106.927 20.8431Z" fill="url(#paint2_linear_1_413)"/>
    <path d="M106.927 0.432373C55.3641 0.432373 12.4012 37.0313 2.50381 85.6322C6.80381 96.3378 13.7357 105.71 21.0383 113.415C20.89 111.266 20.7788 109.118 20.7788 106.932C20.7788 59.3684 59.3676 20.8433 106.927 20.8433C149.705 20.8433 185.18 51.9968 191.926 92.8186C198.895 98.8567 206.568 106.599 213.13 115.823C213.389 112.896 213.5 109.933 213.5 106.932C213.5 48.1072 165.792 0.432373 106.927 0.432373Z" fill="url(#paint3_linear_1_413)"/>
  </g>
  <defs>
    <linearGradient id="paint0_linear_1_413" x1="104.719" y1="109.341" x2="104.719" y2="213.424" gradientUnits="userSpaceOnUse">
      <stop stop-color="#A8BDCB"/>
      <stop offset="0.0318" stop-color="#A1B5C4"/>
      <stop offset="0.282" stop-color="#6C7D8A"/>
      <stop offset="0.5122" stop-color="#41515C"/>
      <stop offset="0.7154" stop-color="#21323B"/>
      <stop offset="0.8836" stop-color="#111E26"/>
      <stop offset="0.9963" stop-color="#0B171F"/>
    </linearGradient>
    <linearGradient id="paint1_linear_1_413" x1="165.904" y1="84.6839" x2="64.4348" y2="186.223" gradientUnits="userSpaceOnUse">
      <stop stop-color="white"/>
      <stop offset="0.4215" stop-color="#A8BDCB"/>
      <stop offset="0.682" stop-color="#D3DEE0"/>
    </linearGradient>
    <linearGradient id="paint2_linear_1_413" x1="106.371" y1="119.414" x2="106.371" y2="14.7139" gradientUnits="userSpaceOnUse">
      <stop offset="0.0226" stop-color="#A8BDCB"/>
      <stop offset="1" stop-color="#5B798C"/>
    </linearGradient>
    <linearGradient id="paint3_linear_1_413" x1="180.377" y1="151.178" x2="46.245" y2="16.954" gradientUnits="userSpaceOnUse">
      <stop stop-color="#A8BDCB" stop-opacity="0.5"/>
      <stop offset="0.7574" stop-color="#A8BDCB"/>
    </linearGradient>
  </defs>
</svg>
