<svg width="32" height="32" viewBox="0 0 32 32" fill="none" xmlns="http://www.w3.org/2000/svg">
  <path d="M12.6655 32C12.1545 32 11.9266 31.5579 11.9266 30.9926C11.9266 30.4274 11.9266 29.1982 11.9021 27.4535C6.02856 28.7072 4.77491 24.6517 4.77491 24.6517C3.8165 22.2676 2.41523 21.6044 2.41523 21.6044C0.498426 20.3263 2.56285 20.3508 2.56285 20.3508C4.67624 20.4984 5.80674 22.4886 5.80674 22.4886C7.69907 25.6836 10.7464 24.7496 11.9511 24.2089C12.0497 23.1518 12.5163 22.1444 13.3026 21.4071C8.60852 20.8908 3.66812 19.0971 3.66812 11.1339C3.64364 9.06946 4.42994 7.05399 5.85569 5.55481C5.61016 5.03851 4.89729 2.92513 6.02779 0.049155C6.02779 0.049155 7.79697 -0.516096 11.8524 2.18701C15.3181 1.25309 18.9551 1.25309 22.4208 2.18701C26.4266 -0.491619 28.221 0.049155 28.221 0.049155C29.3515 2.89989 28.6386 5.01403 28.442 5.55481C29.8678 7.05399 30.6296 9.06946 30.6051 11.1339C30.6051 19.1216 25.6655 20.8663 20.9461 21.3826C21.6835 21.9968 22.3719 23.2749 22.3719 25.217C22.3719 28.0188 22.3474 30.2308 22.3474 30.894C22.3474 31.4347 22.1302 32 21.6085 32H12.6655Z" fill="white"/>
</svg>
