<svg width="48" height="48" viewBox="0 0 48 48" fill="none" xmlns="http://www.w3.org/2000/svg">
<g opacity="0.25" filter="url(#filter0_f_5045_448)">
<rect x="6.09033" y="19.5283" width="35.9546" height="22.4716" rx="11.2358" fill="url(#paint0_linear_5045_448)"/>
</g>
<rect x="5" width="38.9508" height="38.9508" rx="4" fill="url(#paint1_linear_5045_448)"/>
<g filter="url(#filter1_i_5045_448)">
<path fill-rule="evenodd" clip-rule="evenodd" d="M24.5285 9.49902C18.6964 9.49902 13.9727 14.204 13.9727 20.0129C13.9727 24.6653 16.9943 28.5949 21.1902 29.988C21.718 30.08 21.916 29.7646 21.916 29.4886C21.916 29.2389 21.9028 28.4109 21.9028 27.5304C19.2506 28.0166 18.5645 26.8864 18.3534 26.295C18.2346 25.9927 17.72 25.0596 17.2714 24.8099C16.9019 24.6128 16.3741 24.1265 17.2582 24.1134C18.0895 24.1002 18.6832 24.8756 18.8811 25.191C19.8312 26.7813 21.3486 26.3344 21.9555 26.0584C22.0479 25.375 22.325 24.915 22.6285 24.6522C20.2798 24.3893 17.8256 23.4825 17.8256 19.4609C17.8256 18.3176 18.2346 17.3713 18.9075 16.6353C18.802 16.3725 18.4325 15.2948 19.0131 13.8492C19.0131 13.8492 19.8971 13.5732 21.916 14.9268C22.7604 14.6903 23.6577 14.572 24.5549 14.572C25.4522 14.572 26.3494 14.6903 27.1939 14.9268C29.2127 13.56 30.0968 13.8492 30.0968 13.8492C30.6774 15.2948 30.3079 16.3725 30.2023 16.6353C30.8753 17.3713 31.2843 18.3044 31.2843 19.4609C31.2843 23.4957 28.8169 24.3893 26.4682 24.6522C26.8508 24.9808 27.1807 25.6116 27.1807 26.5973C27.1807 28.0035 27.1675 29.1337 27.1675 29.4886C27.1675 29.7646 27.3654 30.0931 27.8932 29.988C32.0628 28.5949 35.0844 24.6522 35.0844 20.0129C35.0844 14.204 30.3607 9.49902 24.5285 9.49902Z" fill="white"/>
</g>
<defs>
<filter id="filter0_f_5045_448" x="0.630332" y="14.0683" width="46.8746" height="33.3917" filterUnits="userSpaceOnUse" color-interpolation-filters="sRGB">
<feFlood flood-opacity="0" result="BackgroundImageFix"/>
<feBlend mode="normal" in="SourceGraphic" in2="BackgroundImageFix" result="shape"/>
<feGaussianBlur stdDeviation="2.73" result="effect1_foregroundBlur_5045_448"/>
</filter>
<filter id="filter1_i_5045_448" x="12.3892" y="7.91699" width="23.751" height="24.251" filterUnits="userSpaceOnUse" color-interpolation-filters="sRGB">
<feFlood flood-opacity="0" result="BackgroundImageFix"/>
<feBlend mode="normal" in="SourceGraphic" in2="BackgroundImageFix" result="shape"/>
<feColorMatrix in="SourceAlpha" type="matrix" values="0 0 0 0 0 0 0 0 0 0 0 0 0 0 0 0 0 0 127 0" result="hardAlpha"/>
<feOffset dy="0.5"/>
<feGaussianBlur stdDeviation="1.25"/>
<feComposite in2="hardAlpha" operator="arithmetic" k2="-1" k3="1"/>
<feColorMatrix type="matrix" values="0 0 0 0 0 0 0 0 0 0 0 0 0 0 0 0 0 0 0.1 0"/>
<feBlend mode="normal" in2="shape" result="effect1_innerShadow_5045_448"/>
</filter>
<linearGradient id="paint0_linear_5045_448" x1="26.5525" y1="42.6701" x2="19.2238" y2="16.8388" gradientUnits="userSpaceOnUse">
<stop offset="0.0729167" stop-color="#1B1F23"/>
<stop offset="0.973958" stop-color="#363C42"/>
</linearGradient>
<linearGradient id="paint1_linear_5045_448" x1="27.1674" y1="40.1124" x2="8.95846" y2="-8.3411e-07" gradientUnits="userSpaceOnUse">
<stop offset="0.0729167" stop-color="#1B1F23"/>
<stop offset="0.973958" stop-color="#363C42"/>
</linearGradient>
</defs>
</svg>
