<svg width="31" height="30" viewBox="0 0 31 30" fill="none" xmlns="http://www.w3.org/2000/svg">
  <path fill-rule="evenodd" clip-rule="evenodd" d="M26.2692 11.2456C26.9065 11.2456 27.4231 11.745 27.4231 12.361V14.2199H29.3462C29.9834 14.2199 30.5 14.7193 30.5 15.3353C30.5 15.9513 29.9834 16.4507 29.3462 16.4507H27.4231V18.3097C27.4231 18.9257 26.9065 19.4251 26.2692 19.4251C25.632 19.4251 25.1154 18.9257 25.1154 18.3097V16.4507H23.1923C22.5551 16.4507 22.0385 15.9513 22.0385 15.3353C22.0385 14.7193 22.5551 14.2199 23.1923 14.2199H25.1154V12.361C25.1154 11.745 25.632 11.2456 26.2692 11.2456Z" fill="#FFA337"/>
  <path fill-rule="evenodd" clip-rule="evenodd" d="M8.32128 19.7499L8.00162 19.8009C5.03666 20.2734 2.80769 22.8422 2.80769 25.9114C2.80769 26.8809 3.58537 27.6046 4.46635 27.6046H20.3798C21.2608 27.6046 22.0385 26.8809 22.0385 25.9114C22.0385 22.8422 19.8095 20.2734 16.8446 19.8009L16.5249 19.7499C13.8075 19.3168 11.0387 19.3168 8.32128 19.7499ZM16.9003 17.5488L17.22 17.5997C21.3526 18.2584 24.3462 21.8031 24.3462 25.9114C24.3462 28.044 22.6054 29.8353 20.3798 29.8353H4.46635C2.24072 29.8353 0.5 28.044 0.5 25.9114C0.5 21.8031 3.49358 18.2584 7.6262 17.5997L7.94586 17.5488C10.9118 17.0761 13.9343 17.0761 16.9003 17.5488Z" fill="#FFA337"/>
  <path fill-rule="evenodd" clip-rule="evenodd" d="M12.4232 3.0661C9.55106 3.0661 7.295 5.22633 7.295 7.80648C7.295 10.3866 9.55106 12.5469 12.4232 12.5469C15.2954 12.5469 17.5514 10.3866 17.5514 7.80648C17.5514 5.22633 15.2954 3.0661 12.4232 3.0661ZM4.98731 7.80648C4.98731 3.91853 8.35638 0.835327 12.4232 0.835327C16.49 0.835327 19.8591 3.91853 19.8591 7.80648C19.8591 11.6944 16.49 14.7776 12.4232 14.7776C8.35638 14.7776 4.98731 11.6944 4.98731 7.80648Z" fill="#FFA337"/>
</svg>
