<svg width="32" height="32" viewBox="0 0 32 32" fill="none" xmlns="http://www.w3.org/2000/svg">
  <path d="M6.55468 9.84386H0.949873C0.425312 9.84386 0 10.2692 0 10.7937V29.8136C0 30.3381 0.425312 30.7634 0.949873 30.7634H6.55474C7.0793 30.7634 7.50461 30.3381 7.50461 29.8136V10.7937C7.50455 10.2692 7.0793 9.84386 6.55468 9.84386Z" fill="white"/>
  <path d="M29.6731 12.903C28.0307 10.9017 25.7242 9.84392 23.003 9.84392C21.5296 9.84392 20.2266 10.1538 19.1083 10.7677C19.0944 10.2552 18.6747 9.84392 18.1588 9.84392H12.5539C12.0294 9.84392 11.604 10.2692 11.604 10.7938V29.8136C11.604 30.3381 12.0294 30.7634 12.5539 30.7634H18.1588C18.6833 30.7634 19.1087 30.3381 19.1087 29.8136V20.0418C19.1087 18.5567 20.3169 17.3485 21.802 17.3485C23.2871 17.3485 24.4954 18.5567 24.4954 20.0418V29.8136C24.4954 30.3381 24.9207 30.7634 25.4453 30.7634H31.0501C31.5747 30.7634 32 30.3381 32 29.8136V20.0418C31.9999 17.2666 31.1736 14.7312 29.6731 12.903Z" fill="white"/>
  <path d="M3.75231 0C1.68331 0 0 1.68325 0 3.75224C0 5.82124 1.68331 7.50449 3.75231 7.50449C5.8213 7.50449 7.50461 5.82124 7.50461 3.75224C7.50455 1.68325 5.8213 0 3.75231 0Z" fill="white"/>
</svg>
