<svg width="154" height="168" viewBox="0 0 154 168" fill="none" xmlns="http://www.w3.org/2000/svg">
  <g opacity="0.96">
    <path d="M76.9577 108.501C56.4706 108.501 38.9281 95.8123 31.8276 77.8645C27.1705 74.2123 21.6362 69.141 17 62.8176C18.4619 94.6436 44.7547 120 76.9786 120C104.065 120 126.933 102.094 134.43 77.468C132.112 72.3967 128.813 67.9097 125.346 64.1323C123.216 88.988 102.373 108.501 76.9577 108.501Z" fill="url(#paint0_linear_3453_32318)"/>
    <path d="M76.9591 108.5C102.375 108.5 123.217 88.9874 125.326 64.1527C124.073 62.7962 122.799 61.5231 121.546 60.3544C121.463 72.1249 116.826 83.1857 108.494 91.5127C100.078 99.9231 88.8838 104.556 76.9591 104.556C65.0553 104.556 53.8615 99.9231 45.4244 91.5127C42.7303 88.8205 40.4331 85.857 38.5535 82.664C36.7993 81.537 34.4394 79.9301 31.808 77.864C38.9295 95.8118 56.472 108.5 76.9591 108.5Z" fill="url(#paint1_linear_3453_32318)"/>
    <path d="M76.9591 11.499C50.1442 11.499 28.4249 33.2242 28.4249 59.9998C28.4249 61.2311 28.4666 62.4416 28.5711 63.652C30.0747 65.2381 31.5992 66.699 33.1029 68.0346C32.6225 65.4051 32.3719 62.7338 32.3719 59.9998C32.3719 48.1042 37.0082 36.9181 45.4244 28.4868C53.8406 20.0764 65.0344 15.4434 76.9591 15.4434C88.8838 15.4434 100.057 20.0764 108.494 28.4868C114.028 34.0173 117.933 40.7581 119.959 48.1042C121.463 49.2312 123.133 50.5459 124.867 52.0485C121.045 29.0294 101.059 11.499 76.9591 11.499Z" fill="url(#paint2_linear_3453_32318)"/>
    <path d="M76.9587 0C47.9091 0 23.7047 20.6191 18.1287 47.9999C20.5512 54.0312 24.4565 59.3112 28.5706 63.6521C28.4871 62.4417 28.4244 61.2312 28.4244 59.9999C28.4244 33.2034 50.1646 11.4991 76.9587 11.4991C101.059 11.4991 121.045 29.0504 124.846 52.0486C128.772 55.4504 133.095 59.8121 136.791 65.0086C136.937 63.3599 137 61.6904 137 59.9999C137 26.8591 110.122 0 76.9587 0Z" fill="url(#paint3_linear_3453_32318)"/>
  </g>
  <path d="M0.178223 151.943V151.898C0.178223 145.681 4.83 140.582 11.4946 140.582C15.5202 140.582 17.9802 142.013 20.0825 143.981L17.6224 146.844C15.878 145.233 13.9994 144.115 11.4946 144.115C7.29008 144.115 4.24852 147.559 4.24852 151.853V151.898C4.24852 156.192 7.29008 159.681 11.4946 159.681C14.1783 159.681 15.9227 158.562 17.8013 156.818L20.2614 159.323C17.9802 161.693 15.4754 163.214 11.3604 163.214C4.96419 163.214 0.178223 158.249 0.178223 151.943Z" fill="#A9BDCD"/>
  <path d="M23.3926 140H27.1946V148.901C28.2681 147.336 29.7889 145.994 32.3831 145.994C36.0956 145.994 38.2873 148.499 38.2873 152.345V162.856H34.4854V153.463C34.4854 150.914 33.1882 149.438 30.9518 149.438C28.7601 149.438 27.2393 150.959 27.2393 153.553V162.901H23.4374L23.3926 140Z" fill="#A9BDCD"/>
  <path d="M52.4658 162.857V160.799C51.3476 162.141 49.6032 163.17 47.0984 163.17C43.9674 163.17 41.1942 161.38 41.1942 158.071V158.026C41.1942 154.358 44.0569 152.614 47.9035 152.614C49.9163 152.614 51.2134 152.882 52.4658 153.285V152.971C52.4658 150.69 51.0345 149.438 48.3955 149.438C46.5616 149.438 45.1751 149.84 43.6543 150.467L42.6255 147.425C44.4594 146.62 46.2486 146.039 48.9323 146.039C53.8077 146.039 56.1783 148.588 56.1783 153.016V162.812H52.4658V162.857ZM52.6 155.924C51.616 155.566 50.2741 155.253 48.7981 155.253C46.4275 155.253 44.9962 156.237 44.9962 157.802V157.847C44.9962 159.412 46.4275 160.307 48.1719 160.307C50.6767 160.307 52.5553 158.876 52.5553 156.818V155.924H52.6Z" fill="#A9BDCD"/>
  <path d="M60.3834 140.179H64.4538V143.802H60.3834V140.179ZM60.5176 146.307H64.3195V162.856H60.5176V146.307Z" fill="#A9BDCD"/>
  <path d="M68.8364 146.307H72.6384V148.856C73.7119 147.291 75.2326 145.949 77.8269 145.949C81.5394 145.949 83.7311 148.454 83.7311 152.301V162.812H79.9291V153.419C79.9291 150.869 78.632 149.393 76.3956 149.393C74.2039 149.393 72.6831 150.914 72.6831 153.508V162.857H68.8811L68.8364 146.307Z" fill="#A9BDCD"/>
  <path d="M88.2492 140.939H98.0001C100.773 140.939 102.92 141.744 104.307 143.131C105.47 144.339 106.141 145.949 106.141 147.872V147.917C106.141 151.54 103.994 153.687 100.907 154.537L106.812 162.856H102.249L96.8819 155.208H92.0512V162.856H88.2045V140.939H88.2492ZM97.7317 151.808C100.505 151.808 102.249 150.377 102.249 148.141V148.096C102.249 145.725 100.55 144.473 97.687 144.473H92.0959V151.853H97.7317V151.808Z" fill="#A9BDCD"/>
  <path d="M110.077 140.179H114.147V143.802H110.077V140.179ZM110.211 146.307H114.013V162.856H110.211V146.307Z" fill="#A9BDCD"/>
  <path d="M118.53 146.307H122.332V148.856C123.406 147.291 124.926 145.949 127.521 145.949C131.233 145.949 133.425 148.454 133.425 152.301V162.812H129.623V153.419C129.623 150.869 128.326 149.393 126.089 149.393C123.898 149.393 122.377 150.914 122.377 153.508V162.857H118.575L118.53 146.307Z" fill="#A9BDCD"/>
  <path d="M137.451 165.943L138.882 163.08C140.627 164.198 142.505 164.825 144.787 164.825C148.186 164.825 150.02 163.08 150.02 159.77V158.473C148.633 160.262 146.934 161.515 144.205 161.515C140.314 161.515 136.691 158.652 136.691 153.777V153.732C136.691 148.856 140.358 145.949 144.205 145.949C146.978 145.949 148.723 147.246 150.02 148.767V146.307H153.822V159.457C153.822 162.23 153.106 164.333 151.72 165.674C150.199 167.195 147.918 167.911 144.921 167.911C142.103 167.911 139.598 167.24 137.451 165.943ZM150.02 153.821V153.777C150.02 151.048 147.783 149.214 145.144 149.214C142.505 149.214 140.448 151.048 140.448 153.777V153.821C140.448 156.55 142.55 158.384 145.144 158.384C147.783 158.339 150.02 156.46 150.02 153.821Z" fill="#A9BDCD"/>
  <defs>
    <linearGradient id="paint0_linear_3453_32318" x1="75.7152" y1="61.3571" x2="75.7152" y2="119.995" gradientUnits="userSpaceOnUse">
      <stop stop-color="#A8BDCB"/>
      <stop offset="0.0318" stop-color="#A1B5C4"/>
      <stop offset="0.282" stop-color="#6C7D8A"/>
      <stop offset="0.5122" stop-color="#41515C"/>
      <stop offset="0.7154" stop-color="#21323B"/>
      <stop offset="0.8836" stop-color="#111E26"/>
      <stop offset="0.9963" stop-color="#0B171F"/>
    </linearGradient>
    <linearGradient id="paint1_linear_3453_32318" x1="110.186" y1="47.4656" x2="53.02" y2="104.671" gradientUnits="userSpaceOnUse">
      <stop stop-color="white"/>
      <stop offset="0.4215" stop-color="#A8BDCB"/>
      <stop offset="0.682" stop-color="#D3DEE0"/>
    </linearGradient>
    <linearGradient id="paint2_linear_3453_32318" x1="76.6459" y1="67.0322" x2="76.6459" y2="8.04593" gradientUnits="userSpaceOnUse">
      <stop offset="0.0226" stop-color="#A8BDCB"/>
      <stop offset="1" stop-color="#5B798C"/>
    </linearGradient>
    <linearGradient id="paint3_linear_3453_32318" x1="118.339" y1="84.9273" x2="42.7716" y2="9.30795" gradientUnits="userSpaceOnUse">
      <stop stop-color="#A8BDCB" stop-opacity="0.5"/>
      <stop offset="0.7574" stop-color="#A8BDCB"/>
    </linearGradient>
  </defs>
</svg>
