<svg width="136" height="51" viewBox="0 0 136 51" fill="none" xmlns="http://www.w3.org/2000/svg">
  <g clip-path="url(#clip0_3530_32756)">
    <path d="M25.31 45.8189C16.658 45.8189 9.26006 40.4605 6.25782 32.8726C4.29434 31.3271 1.95082 29.1863 0 26.5134C0.620715 39.9538 11.7176 50.658 25.31 50.658C36.7362 50.658 46.389 43.0954 49.5559 32.6952C48.5805 30.5544 47.187 28.6669 45.7176 27.0708C44.8309 37.5596 36.0395 45.8063 25.31 45.8063V45.8189Z" fill="url(#paint0_linear_3530_32756)"/>
    <path d="M25.31 45.8189C36.0268 45.8189 44.8309 37.585 45.7176 27.0835C45.1856 26.5134 44.6535 25.9687 44.1215 25.4747C44.0835 30.4404 42.1327 35.1148 38.611 38.6364C35.0641 42.1833 30.3264 44.1468 25.31 44.1468C20.2936 44.1468 15.5559 42.1833 12.009 38.6364C10.8689 37.4963 9.90613 36.2422 9.10806 34.8994C8.36067 34.418 7.37259 33.7467 6.27051 32.8726C9.27274 40.4478 16.6707 45.8189 25.3227 45.8189H25.31Z" fill="url(#paint1_linear_3530_32756)"/>
    <path d="M25.31 4.85172C13.9978 4.85172 4.82642 14.0231 4.82642 25.3353C4.82642 25.8547 4.85175 26.3614 4.88975 26.8681C5.52314 27.5395 6.16919 28.1602 6.80257 28.7176C6.59989 27.6155 6.49855 26.4754 6.49855 25.3227C6.49855 20.2936 8.46203 15.5686 12.009 12.0216C15.5559 8.47467 20.2936 6.51118 25.31 6.51118C30.3264 6.51118 35.0641 8.47467 38.6111 12.0216C40.9419 14.3525 42.5887 17.2027 43.4501 20.3063C44.0835 20.775 44.7802 21.3323 45.5149 21.9657C43.9188 12.2496 35.4822 4.83905 25.31 4.83905V4.85172Z" fill="url(#paint2_linear_3530_32756)"/>
    <path d="M25.3099 0C13.0476 0 2.83751 8.70268 0.481323 20.2683C1.5074 22.8145 3.1542 25.044 4.877 26.8808C4.839 26.3741 4.81366 25.8547 4.81366 25.348C4.82633 14.0231 13.9977 4.85171 25.3099 4.85171C35.4821 4.85171 43.9187 12.2623 45.5149 21.9784C47.1743 23.4225 48.9985 25.2593 50.5566 27.4508C50.6199 26.7541 50.6453 26.0447 50.6453 25.3353C50.6453 11.3376 39.3077 0 25.3099 0Z" fill="url(#paint3_linear_3530_32756)"/>
    <path d="M81.3264 7.37258C81.5924 7.68928 81.7318 8.00597 81.7318 8.33533C81.7318 8.67735 81.6051 8.95604 81.3517 9.17139C81.0984 9.39941 80.7944 9.51342 80.4397 9.51342C80.0216 9.51342 79.6543 9.34874 79.3376 9.00671C78.7802 8.39866 78.1721 7.9933 77.5388 7.76528C76.8927 7.54993 76.158 7.43592 75.3346 7.43592C74.3212 7.43592 73.4471 7.65127 72.6871 8.09464C71.927 8.53801 71.3316 9.14606 70.9136 9.94412C70.4955 10.7295 70.2802 11.6543 70.2802 12.693C70.2802 13.8078 70.4956 14.7958 70.9263 15.6446C71.357 16.4933 71.965 17.152 72.7504 17.6081C73.5358 18.0768 74.4352 18.3048 75.4613 18.3048C76.196 18.3048 76.9434 18.1148 77.6908 17.7347C78.4382 17.3547 79.0462 16.886 79.5149 16.3286C79.9203 15.8599 80.351 15.6319 80.807 15.6319C81.1364 15.6319 81.4404 15.7459 81.6811 15.9739C81.9345 16.2019 82.0485 16.4806 82.0485 16.81C82.0485 17.114 81.9344 17.4307 81.6938 17.7727C81.0477 18.6848 80.1483 19.4069 78.9702 19.9389C77.7921 20.4709 76.6014 20.737 75.4106 20.737C73.8398 20.737 72.459 20.3949 71.2683 19.7236C70.0775 19.0522 69.1528 18.1021 68.4941 16.886C67.8353 15.6699 67.506 14.2638 67.506 12.6677C67.506 11.0715 67.848 9.80478 68.5447 8.63935C69.2288 7.47393 70.1789 6.56185 71.3696 5.92847C72.5604 5.29509 73.8905 4.96573 75.3599 4.96573C77.9315 4.96573 79.933 5.75112 81.3391 7.34725L81.3264 7.37258Z" fill="#A9BDCD"/>
    <path d="M95.9829 9.65276C96.9203 10.7042 97.389 12.1103 97.389 13.8584V19.2802C97.389 19.6602 97.275 19.9642 97.0343 20.1922C96.7937 20.4203 96.4643 20.5343 96.0209 20.5343C95.6156 20.5343 95.2862 20.4203 95.0329 20.1922C94.7795 19.9642 94.6528 19.6602 94.6528 19.2928V13.8204C94.6528 12.7817 94.4121 11.9709 93.9181 11.3756C93.4367 10.7802 92.702 10.4888 91.7266 10.4888C91.2579 10.4888 90.7512 10.6282 90.1811 10.8942C89.6111 11.1602 89.1297 11.5909 88.7244 12.161C88.319 12.731 88.129 13.4404 88.129 14.3145V19.3055C88.129 19.6855 88.015 19.9896 87.7743 20.2176C87.5463 20.4456 87.2042 20.5596 86.7735 20.5596C86.3428 20.5596 86.0008 20.4456 85.7475 20.2176C85.4941 19.9896 85.3674 19.6855 85.3674 19.3182V6.14382C85.3674 5.78912 85.5068 5.51043 85.7855 5.30775C86.0642 5.10507 86.3935 4.99106 86.7609 4.99106C87.1282 4.99106 87.4449 5.0924 87.7236 5.30775C87.9896 5.5231 88.129 5.80179 88.129 6.14382V9.41207C89.1804 8.51267 90.5105 8.0693 92.1193 8.0693C93.7281 8.0693 95.0582 8.60134 95.9956 9.65276H95.9829Z" fill="#A9BDCD"/>
    <path d="M112.742 8.65202C112.996 8.88004 113.122 9.18406 113.122 9.55142V19.2675C113.122 19.6349 112.996 19.9389 112.742 20.1669C112.489 20.3949 112.16 20.5089 111.754 20.5089C111.349 20.5089 111.057 20.4203 110.829 20.2303C110.601 20.0402 110.462 19.7996 110.411 19.4955C109.879 19.9136 109.284 20.2303 108.625 20.4329C107.967 20.6356 107.308 20.7496 106.674 20.7496C105.522 20.7496 104.521 20.4836 103.685 19.9642C102.849 19.4449 102.203 18.6975 101.747 17.7347C101.291 16.772 101.075 15.6572 101.075 14.3778C101.075 13.0984 101.329 12.0596 101.823 11.0969C102.317 10.1468 103.013 9.39941 103.9 8.86737C104.787 8.33533 105.813 8.06931 106.978 8.06931C107.523 8.06931 108.106 8.17065 108.714 8.386C109.322 8.60135 109.892 8.8927 110.411 9.27273C110.475 8.96871 110.627 8.72802 110.855 8.56334C111.083 8.39867 111.387 8.30999 111.754 8.30999C112.16 8.30999 112.476 8.424 112.742 8.65202ZM109.031 17.8614C109.664 17.5447 110.12 17.0887 110.386 16.4933V12.3383C110.095 11.7683 109.651 11.3122 109.056 10.9829C108.461 10.6535 107.827 10.4888 107.168 10.4888C106.155 10.4888 105.344 10.8562 104.736 11.5782C104.116 12.313 103.812 13.2504 103.812 14.4031C103.812 15.5559 104.103 16.544 104.673 17.2534C105.243 17.9754 106.003 18.3301 106.953 18.3301C107.701 18.3301 108.397 18.1654 109.031 17.8487V17.8614Z" fill="#A9BDCD"/>
    <path d="M119.76 7.39791C119.481 7.61326 119.152 7.71461 118.785 7.71461C118.417 7.71461 118.075 7.61326 117.797 7.39791C117.518 7.19523 117.391 6.89121 117.391 6.51118V6.19449C117.391 5.81446 117.531 5.51043 117.797 5.30775C118.063 5.10507 118.392 4.99106 118.785 4.99106C119.177 4.99106 119.481 5.0924 119.76 5.30775C120.039 5.5231 120.178 5.81446 120.178 6.19449V6.51118C120.178 6.89121 120.039 7.19523 119.76 7.39791ZM117.847 8.62668C118.126 8.42399 118.443 8.30998 118.797 8.30998C119.152 8.30998 119.481 8.41133 119.76 8.62668C120.039 8.84203 120.165 9.12072 120.165 9.46274V19.3562C120.165 19.7235 120.026 20.0149 119.76 20.2176C119.494 20.4203 119.165 20.5343 118.797 20.5343C118.43 20.5343 118.126 20.4329 117.847 20.2176C117.569 20.0149 117.429 19.7235 117.429 19.3562V9.48808C117.429 9.12072 117.569 8.82936 117.847 8.62668Z" fill="#A9BDCD"/>
    <path d="M134.594 9.65276C135.531 10.7042 136 12.1103 136 13.8584V19.2802C136 19.6602 135.886 19.9642 135.645 20.1923C135.405 20.4203 135.063 20.5343 134.632 20.5343C134.227 20.5343 133.897 20.4203 133.644 20.1923C133.39 19.9642 133.264 19.6602 133.264 19.2928V13.8204C133.264 12.7817 133.023 11.9709 132.529 11.3756C132.035 10.7802 131.3 10.4888 130.312 10.4888C129.843 10.4888 129.324 10.6408 128.729 10.9575C128.133 11.2742 127.627 11.7429 127.209 12.3636C126.791 12.9844 126.575 13.7317 126.575 14.5931V19.3182C126.575 19.6982 126.461 20.0022 126.246 20.2176C126.018 20.4329 125.688 20.5469 125.258 20.5469C124.827 20.5469 124.485 20.4456 124.232 20.2176C123.978 20.0022 123.852 19.6982 123.852 19.3182V9.55142C123.852 9.17139 123.991 8.86736 124.257 8.65201C124.523 8.43666 124.852 8.32266 125.22 8.32266C125.587 8.32266 125.891 8.424 126.17 8.65201C126.449 8.86736 126.588 9.14605 126.588 9.50075V9.66543C127.728 8.61401 129.109 8.08197 130.743 8.08197C132.377 8.08197 133.682 8.61401 134.619 9.66543L134.594 9.65276Z" fill="#A9BDCD"/>
    <path d="M81.3011 42.3227C81.3011 42.6647 81.1744 42.9561 80.9337 43.1967C80.693 43.4374 80.389 43.5641 80.0596 43.5641C79.6923 43.5641 79.3502 43.3994 79.0462 43.0827L74.7519 38.497H71.1289V42.2847C71.1289 42.6647 70.9896 42.9687 70.7109 43.1967C70.4322 43.4248 70.1028 43.5388 69.7355 43.5388C69.3681 43.5388 69.0261 43.4374 68.7474 43.2094C68.4687 42.9814 68.342 42.69 68.342 42.31V29.4903C68.342 29.123 68.4687 28.8189 68.7221 28.5909C68.9754 28.3629 69.3174 28.2489 69.7355 28.2489H75.0939C76.4873 28.2489 77.6654 28.4769 78.6282 28.933C79.5909 29.389 80.3256 30.0097 80.8197 30.7951C81.3137 31.5805 81.5671 32.4546 81.5671 33.43C81.5671 34.5827 81.2631 35.5708 80.6423 36.4069C80.0216 37.2429 79.1222 37.8257 77.9188 38.155L80.7943 41.1826C81.1237 41.5373 81.3011 41.9173 81.3011 42.31V42.3227ZM75.1066 36.1789C76.31 36.1789 77.2094 35.9255 77.8301 35.4315C78.4508 34.9374 78.7549 34.3167 78.7549 33.5567C78.7549 32.7206 78.4255 32.0365 77.7668 31.4918C77.1081 30.9471 76.2213 30.6811 75.1066 30.6811H71.1163V36.1789H75.1066Z" fill="#72808C"/>
    <path d="M87.0902 30.4151C86.8115 30.6304 86.4821 30.7318 86.1148 30.7318C85.7474 30.7318 85.4054 30.6304 85.1267 30.4151C84.848 30.2124 84.7213 29.9084 84.7213 29.5283V29.2116C84.7213 28.8316 84.8607 28.5276 85.1267 28.3249C85.3927 28.1222 85.7221 28.0082 86.1148 28.0082C86.5075 28.0082 86.8115 28.1096 87.0902 28.3249C87.3689 28.5403 87.5082 28.8316 87.5082 29.2116V29.5283C87.5082 29.9084 87.3689 30.2124 87.0902 30.4151ZM85.1773 31.6438C85.456 31.4411 85.7727 31.3271 86.1274 31.3271C86.4821 31.3271 86.8115 31.4285 87.0902 31.6438C87.3689 31.8592 87.4955 32.1379 87.4955 32.4799V42.3733C87.4955 42.7407 87.3562 43.0321 87.0902 43.2347C86.8241 43.4374 86.4948 43.5514 86.1274 43.5514C85.7601 43.5514 85.456 43.4501 85.1773 43.2347C84.8987 43.0321 84.7593 42.7407 84.7593 42.3733V32.5052C84.7593 32.1379 84.8987 31.8465 85.1773 31.6438Z" fill="#72808C"/>
    <path d="M101.937 32.6699C102.874 33.7213 103.343 35.1274 103.343 36.8756V42.2973C103.343 42.6774 103.229 42.9814 102.988 43.2094C102.747 43.4374 102.405 43.5514 101.975 43.5514C101.569 43.5514 101.24 43.4374 100.987 43.2094C100.733 42.9814 100.607 42.6774 100.607 42.31V36.8376C100.607 35.7988 100.366 34.9881 99.8718 34.3927C99.3778 33.7973 98.643 33.506 97.655 33.506C97.1863 33.506 96.6669 33.658 96.0715 33.9747C95.4761 34.2914 94.9694 34.7601 94.5514 35.3808C94.1334 36.0015 93.918 36.7489 93.918 37.6103V42.3353C93.918 42.7154 93.804 43.0194 93.5886 43.2347C93.3606 43.4501 93.0313 43.5641 92.6006 43.5641C92.1699 43.5641 91.8278 43.4628 91.5745 43.2347C91.3211 43.0194 91.1945 42.7154 91.1945 42.3353V32.5686C91.1945 32.1885 91.3338 31.8845 91.5998 31.6692C91.8658 31.4538 92.1952 31.3398 92.5626 31.3398C92.9299 31.3398 93.234 31.4411 93.5126 31.6692C93.7913 31.8845 93.9307 32.1632 93.9307 32.5179V32.6826C95.0708 31.6312 96.4515 31.0991 98.0857 31.0991C99.7198 31.0991 101.025 31.6312 101.962 32.6826L101.937 32.6699Z" fill="#72808C"/>
    <path d="M118.861 31.7325C119.114 31.9985 119.241 32.3152 119.241 32.7079V42.8167C119.241 43.9568 118.975 44.9322 118.443 45.7303C117.911 46.541 117.189 47.149 116.277 47.5544C115.364 47.9598 114.326 48.1625 113.198 48.1625C112.223 48.1625 111.361 48.0358 110.614 47.7951C109.867 47.5417 109.183 47.1237 108.562 46.5283C108.258 46.2243 108.106 45.8949 108.106 45.5403C108.106 45.1856 108.233 44.9069 108.499 44.6535C108.765 44.4002 109.069 44.2735 109.423 44.2735C109.74 44.2735 110.057 44.4002 110.361 44.6535C110.829 45.0716 111.26 45.3502 111.678 45.4769C112.096 45.6163 112.603 45.6796 113.186 45.6796C114.136 45.6796 114.921 45.4389 115.58 44.9449C116.239 44.4508 116.555 43.7414 116.555 42.7914V42.576C116.036 42.9561 115.466 43.2601 114.82 43.4628C114.174 43.6654 113.553 43.7795 112.983 43.7795C111.83 43.7795 110.817 43.5134 109.93 42.9941C109.056 42.462 108.372 41.7273 107.891 40.7645C107.409 39.8018 107.168 38.6871 107.168 37.4076C107.168 36.1282 107.422 35.0894 107.916 34.1267C108.41 33.1766 109.107 32.4292 109.993 31.8972C110.88 31.3651 111.906 31.0991 113.072 31.0991C113.667 31.0991 114.262 31.1878 114.87 31.3651C115.478 31.5425 116.036 31.8085 116.555 32.1759C116.733 31.6185 117.163 31.3398 117.847 31.3398C118.265 31.3398 118.595 31.4665 118.861 31.7325ZM115.187 40.8659C115.846 40.5239 116.289 40.0552 116.53 39.4471V35.4441C116.239 34.8487 115.795 34.38 115.174 34.038C114.554 33.696 113.92 33.5186 113.262 33.5186C112.248 33.5186 111.437 33.886 110.829 34.6081C110.209 35.3428 109.905 36.2802 109.905 37.433C109.905 38.5857 110.196 39.5738 110.766 40.2832C111.349 41.0052 112.096 41.3599 113.046 41.3599C113.819 41.3599 114.528 41.1952 115.187 40.8532V40.8659Z" fill="#72808C"/>
  </g>
  <defs>
    <linearGradient id="paint0_linear_3530_32756" x1="24.7779" y1="25.9054" x2="24.7779" y2="50.6707" gradientUnits="userSpaceOnUse">
      <stop stop-color="#A9BDCD"/>
      <stop offset="0.03" stop-color="#A2B5C5"/>
      <stop offset="0.28" stop-color="#6C7D8A"/>
      <stop offset="0.51" stop-color="#41515C"/>
      <stop offset="0.72" stop-color="#22313B"/>
      <stop offset="0.88" stop-color="#101D26"/>
      <stop offset="1" stop-color="#09161F"/>
    </linearGradient>
    <linearGradient id="paint1_linear_3530_32756" x1="39.3331" y1="20.0402" x2="15.1885" y2="44.1848" gradientUnits="userSpaceOnUse">
      <stop stop-color="white"/>
      <stop offset="0.42" stop-color="#A9BDCD"/>
      <stop offset="0.68" stop-color="#D3DFE5"/>
    </linearGradient>
    <linearGradient id="paint2_linear_3530_32756" x1="25.1707" y1="28.3122" x2="25.1707" y2="3.39494" gradientUnits="userSpaceOnUse">
      <stop offset="0.02" stop-color="#A9BDCD"/>
      <stop offset="1" stop-color="#5C798C"/>
    </linearGradient>
    <linearGradient id="paint3_linear_3530_32756" x1="42.766" y1="35.8621" x2="10.8561" y2="3.95231" gradientUnits="userSpaceOnUse">
      <stop stop-color="#A9BDCD" stop-opacity="0.5"/>
      <stop offset="0.76" stop-color="#A9BDCD"/>
    </linearGradient>
    <clipPath id="clip0_3530_32756">
      <rect width="136" height="50.6706" fill="white"/>
    </clipPath>
  </defs>
</svg>
