<svg width="58" height="59" viewBox="0 0 58 59" fill="none" xmlns="http://www.w3.org/2000/svg">
<path d="M28.9855 52.4723C19.077 52.4723 10.6048 46.3357 7.16657 37.6459C4.91795 35.876 2.23411 33.4243 0 30.3633C0.710854 45.7555 13.4192 58.0141 28.9855 58.0141C42.071 58.0141 53.1255 49.3532 56.7523 37.4428C55.6352 34.9911 54.0394 32.8295 52.3566 31.0016C51.3411 43.0136 41.2731 52.4578 28.9855 52.4578V52.4723Z" fill="url(#paint0_linear_5045_860)"/>
<path d="M28.9855 52.4724C41.2586 52.4724 51.3412 43.0427 52.3567 31.0162C51.7474 30.3634 51.1381 29.7396 50.5288 29.1738C50.4852 34.8607 48.2511 40.2138 44.2181 44.2468C40.1561 48.3089 34.7304 50.5575 28.9855 50.5575C23.2407 50.5575 17.815 48.3089 13.7529 44.2468C12.4473 42.9412 11.3447 41.505 10.4308 39.9672C9.57485 39.4159 8.44328 38.6471 7.18115 37.6461C10.6194 46.3214 19.0916 52.4724 29 52.4724H28.9855Z" fill="url(#paint1_linear_5045_860)"/>
<path d="M28.9855 5.55601C16.0306 5.55601 5.52734 16.0592 5.52734 29.0142C5.52734 29.609 5.55636 30.1893 5.59988 30.7696C6.32524 31.5385 7.06511 32.2493 7.79047 32.8876C7.55836 31.6255 7.4423 30.3199 7.4423 28.9997C7.4423 23.2403 9.69092 17.8291 13.7529 13.7671C17.815 9.70508 23.2407 7.45646 28.9855 7.45646C34.7304 7.45646 40.1561 9.70508 44.2181 13.7671C46.8875 16.4364 48.7734 19.7006 49.7599 23.2548C50.4853 23.7916 51.2832 24.4299 52.1246 25.1553C50.2967 14.0282 40.6348 5.5415 28.9855 5.5415V5.55601Z" fill="url(#paint2_linear_5045_860)"/>
<path d="M28.9857 0C14.9427 0 3.24986 9.96647 0.551514 23.2116C1.7266 26.1275 3.61254 28.6808 5.58552 30.7843C5.542 30.2041 5.51299 29.6093 5.51299 29.029C5.5275 16.0595 16.0307 5.55627 28.9857 5.55627C40.635 5.55627 50.2968 14.043 52.1247 25.17C54.0252 26.8239 56.1142 28.9274 57.8986 31.4372C57.9711 30.6393 58.0002 29.8269 58.0002 29.0145C58.0002 12.984 45.0162 0 28.9857 0Z" fill="url(#paint3_linear_5045_860)"/>
<defs>
<linearGradient id="paint0_linear_5045_860" x1="28.3761" y1="29.6669" x2="28.3761" y2="58.0286" gradientUnits="userSpaceOnUse">
<stop stop-color="white"/>
<stop offset="0.03" stop-color="#8C4D03"/>
<stop offset="0.28" stop-color="#D17304"/>
<stop offset="0.51" stop-color="#B66506"/>
<stop offset="0.72" stop-color="#C97614"/>
<stop offset="0.88" stop-color="#DA7600"/>
<stop offset="1" stop-color="#C16F0D"/>
</linearGradient>
<linearGradient id="paint1_linear_5045_860" x1="45.045" y1="22.9502" x2="17.3943" y2="50.601" gradientUnits="userSpaceOnUse">
<stop stop-color="white"/>
<stop offset="0.42" stop-color="#965100"/>
<stop offset="0.68" stop-color="#965100"/>
</linearGradient>
<linearGradient id="paint2_linear_5045_860" x1="28.826" y1="32.4234" x2="28.826" y2="3.88768" gradientUnits="userSpaceOnUse">
<stop offset="0.02" stop-color="#FF8A00"/>
<stop offset="1" stop-color="#965100"/>
</linearGradient>
<linearGradient id="paint3_linear_5045_860" x1="48.9767" y1="41.07" x2="12.433" y2="4.52625" gradientUnits="userSpaceOnUse">
<stop stop-color="#FF8A00" stop-opacity="0.5"/>
<stop offset="0.76" stop-color="#FFB156"/>
</linearGradient>
</defs>
</svg>
