<svg width="94" height="35" viewBox="0 0 94 35" fill="none" xmlns="http://www.w3.org/2000/svg">
<g clip-path="url(#clip0_5042_386)">
<path d="M17.4825 31.649C11.5063 31.649 6.39625 27.9477 4.3225 22.7065C2.96625 21.639 1.3475 20.1602 0 18.314C0.42875 27.5977 8.09375 34.9915 17.4825 34.9915C25.375 34.9915 32.0425 29.7677 34.23 22.584C33.5563 21.1052 32.5938 19.8015 31.5788 18.699C30.9663 25.944 24.8938 31.6402 17.4825 31.6402V31.649Z" fill="url(#paint0_linear_5042_386)"/>
<path d="M17.4825 31.6487C24.885 31.6487 30.9663 25.9612 31.5788 18.7074C31.2113 18.3137 30.8438 17.9374 30.4763 17.5962C30.4501 21.0262 29.1025 24.2549 26.67 26.6874C24.22 29.1374 20.9475 30.4937 17.4825 30.4937C14.0175 30.4937 10.745 29.1374 8.29505 26.6874C7.50755 25.8999 6.84255 25.0337 6.2913 24.1062C5.77505 23.7737 5.09255 23.3099 4.3313 22.7062C6.40505 27.9387 11.515 31.6487 17.4913 31.6487H17.4825Z" fill="url(#paint1_linear_5042_386)"/>
<path d="M17.4825 3.35104C9.66874 3.35104 3.33374 9.68603 3.33374 17.4998C3.33374 17.8585 3.35124 18.2085 3.37749 18.5585C3.81499 19.0223 4.26124 19.451 4.69874 19.836C4.55874 19.0748 4.48874 18.2873 4.48874 17.491C4.48874 14.0173 5.84499 10.7535 8.29499 8.30353C10.745 5.85354 14.0175 4.49729 17.4825 4.49729C20.9475 4.49729 24.22 5.85354 26.67 8.30353C28.28 9.91353 29.4175 11.8823 30.0125 14.026C30.45 14.3498 30.9312 14.7348 31.4387 15.1723C30.3362 8.46104 24.5087 3.34229 17.4825 3.34229V3.35104Z" fill="url(#paint2_linear_5042_386)"/>
<path d="M17.4825 0C9.01252 0 1.96002 6.01125 0.33252 14C1.04127 15.7587 2.17877 17.2987 3.36877 18.5675C3.34252 18.2175 3.32502 17.8587 3.32502 17.5088C3.33377 9.68625 9.66877 3.35125 17.4825 3.35125C24.5088 3.35125 30.3363 8.47 31.4388 15.1813C32.585 16.1788 33.845 17.4475 34.9213 18.9613C34.965 18.48 34.9825 17.99 34.9825 17.5C34.9825 7.83125 27.1513 0 17.4825 0Z" fill="url(#paint3_linear_5042_386)"/>
<path d="M56.1749 5.09268C56.3587 5.31143 56.4549 5.53018 56.4549 5.75768C56.4549 5.99393 56.3674 6.18643 56.1924 6.33518C56.0174 6.49268 55.8074 6.57143 55.5624 6.57143C55.2737 6.57143 55.0199 6.45768 54.8012 6.22143C54.4162 5.80143 53.9962 5.52143 53.5587 5.36393C53.1124 5.21518 52.6049 5.13643 52.0362 5.13643C51.3362 5.13643 50.7324 5.28518 50.2074 5.59143C49.6824 5.89768 49.2712 6.31768 48.9824 6.86893C48.6937 7.41143 48.5449 8.05018 48.5449 8.76768C48.5449 9.53768 48.6937 10.2202 48.9912 10.8064C49.2887 11.3927 49.7087 11.8477 50.2512 12.1627C50.7937 12.4864 51.4149 12.6439 52.1237 12.6439C52.6312 12.6439 53.1474 12.5127 53.6637 12.2502C54.1799 11.9877 54.5999 11.6639 54.9237 11.2789C55.2037 10.9552 55.5012 10.7977 55.8162 10.7977C56.0437 10.7977 56.2537 10.8764 56.4199 11.0339C56.5949 11.1914 56.6737 11.3839 56.6737 11.6114C56.6737 11.8214 56.5949 12.0402 56.4287 12.2764C55.9824 12.9064 55.3612 13.4052 54.5474 13.7727C53.7337 14.1402 52.9112 14.3239 52.0887 14.3239C51.0037 14.3239 50.0499 14.0877 49.2274 13.6239C48.4049 13.1602 47.7662 12.5039 47.3112 11.6639C46.8562 10.8239 46.6287 9.85268 46.6287 8.75018C46.6287 7.64768 46.8649 6.77268 47.3462 5.96768C47.8187 5.16268 48.4749 4.53268 49.2974 4.09518C50.1199 3.65768 51.0387 3.43018 52.0537 3.43018C53.8299 3.43018 55.2124 3.97268 56.1837 5.07518L56.1749 5.09268Z" fill="#FF8A00"/>
<path d="M66.2986 6.66775C66.9461 7.394 67.2698 8.36525 67.2698 9.57275V13.3178C67.2698 13.5803 67.1911 13.7903 67.0248 13.9478C66.8586 14.1053 66.6311 14.184 66.3248 14.184C66.0448 14.184 65.8173 14.1053 65.6423 13.9478C65.4673 13.7903 65.3798 13.5803 65.3798 13.3265V9.5465C65.3798 8.829 65.2136 8.269 64.8723 7.85775C64.5398 7.4465 64.0323 7.24525 63.3586 7.24525C63.0348 7.24525 62.6848 7.3415 62.2911 7.52525C61.8973 7.709 61.5648 8.0065 61.2848 8.40025C61.0048 8.794 60.8736 9.284 60.8736 9.88775V13.3353C60.8736 13.5978 60.7948 13.8078 60.6286 13.9653C60.4711 14.1228 60.2348 14.2015 59.9373 14.2015C59.6398 14.2015 59.4036 14.1228 59.2286 13.9653C59.0536 13.8078 58.9661 13.5978 58.9661 13.344V4.244C58.9661 3.999 59.0623 3.8065 59.2548 3.6665C59.4473 3.5265 59.6748 3.44775 59.9286 3.44775C60.1823 3.44775 60.4011 3.51775 60.5936 3.6665C60.7773 3.81525 60.8736 4.00775 60.8736 4.244V6.5015C61.5998 5.88025 62.5186 5.574 63.6298 5.574C64.7411 5.574 65.6598 5.9415 66.3073 6.66775H66.2986Z" fill="#FF8A00"/>
<path d="M77.8749 5.97623C78.0499 6.13373 78.1374 6.34373 78.1374 6.59748V13.3087C78.1374 13.5625 78.0499 13.7725 77.8749 13.93C77.6999 14.0875 77.4724 14.1662 77.1924 14.1662C76.9124 14.1662 76.7112 14.105 76.5537 13.9737C76.3962 13.8425 76.2999 13.6762 76.2649 13.4662C75.8974 13.755 75.4862 13.9737 75.0312 14.1137C74.5762 14.2537 74.1212 14.3325 73.6837 14.3325C72.8874 14.3325 72.1962 14.1487 71.6187 13.79C71.0412 13.4312 70.5949 12.915 70.2799 12.25C69.9649 11.585 69.8162 10.815 69.8162 9.93123C69.8162 9.04748 69.9912 8.32998 70.3324 7.66498C70.6737 7.00873 71.1549 6.49248 71.7674 6.12498C72.3799 5.75748 73.0887 5.57373 73.8937 5.57373C74.2699 5.57373 74.6724 5.64373 75.0924 5.79248C75.5124 5.94123 75.9062 6.14248 76.2649 6.40498C76.3087 6.19498 76.4137 6.02873 76.5712 5.91498C76.7287 5.80123 76.9387 5.73998 77.1924 5.73998C77.4724 5.73998 77.6912 5.81873 77.8749 5.97623ZM75.3112 12.3375C75.7487 12.1187 76.0637 11.8037 76.2474 11.3925V8.52248C76.0462 8.12873 75.7399 7.81373 75.3287 7.58623C74.9174 7.35873 74.4799 7.24498 74.0249 7.24498C73.3249 7.24498 72.7649 7.49873 72.3449 7.99748C71.9162 8.50498 71.7062 9.15248 71.7062 9.94873C71.7062 10.745 71.9074 11.4275 72.3012 11.9175C72.6949 12.4162 73.2199 12.6612 73.8762 12.6612C74.3924 12.6612 74.8737 12.5475 75.3112 12.3287V12.3375Z" fill="#FF8A00"/>
<path d="M82.7224 5.11025C82.5299 5.259 82.3024 5.329 82.0487 5.329C81.7949 5.329 81.5587 5.259 81.3662 5.11025C81.1737 4.97025 81.0862 4.76025 81.0862 4.49775V4.279C81.0862 4.0165 81.1824 3.8065 81.3662 3.6665C81.5499 3.5265 81.7774 3.44775 82.0487 3.44775C82.3199 3.44775 82.5299 3.51775 82.7224 3.6665C82.9149 3.81525 83.0112 4.0165 83.0112 4.279V4.49775C83.0112 4.76025 82.9149 4.97025 82.7224 5.11025ZM81.4012 5.959C81.5937 5.819 81.8124 5.74025 82.0574 5.74025C82.3024 5.74025 82.5299 5.81025 82.7224 5.959C82.9149 6.10775 83.0024 6.30025 83.0024 6.5365V13.3703C83.0024 13.624 82.9062 13.8253 82.7224 13.9653C82.5387 14.1053 82.3112 14.184 82.0574 14.184C81.8037 14.184 81.5937 14.114 81.4012 13.9653C81.2087 13.8253 81.1124 13.624 81.1124 13.3703V6.554C81.1124 6.30025 81.2087 6.099 81.4012 5.959Z" fill="#FF8A00"/>
<path d="M92.9686 6.66752C93.6161 7.39377 93.9398 8.36502 93.9398 9.57252V13.3175C93.9398 13.58 93.8611 13.79 93.6948 13.9475C93.5286 14.105 93.2923 14.1838 92.9948 14.1838C92.7148 14.1838 92.4873 14.105 92.3123 13.9475C92.1373 13.79 92.0498 13.58 92.0498 13.3263V9.54627C92.0498 8.82877 91.8836 8.26877 91.5423 7.85752C91.2011 7.44627 90.6936 7.24502 90.0111 7.24502C89.6873 7.24502 89.3286 7.35002 88.9173 7.56877C88.5061 7.78752 88.1561 8.11127 87.8673 8.54002C87.5786 8.96877 87.4298 9.48502 87.4298 10.08V13.3438C87.4298 13.6063 87.3511 13.8163 87.2023 13.965C87.0448 14.1138 86.8173 14.1925 86.5198 14.1925C86.2223 14.1925 85.9861 14.1225 85.8111 13.965C85.6361 13.8163 85.5486 13.6063 85.5486 13.3438V6.59752C85.5486 6.33502 85.6448 6.12502 85.8286 5.97627C86.0123 5.82752 86.2398 5.74877 86.4936 5.74877C86.7473 5.74877 86.9573 5.81877 87.1498 5.97627C87.3423 6.12502 87.4386 6.31752 87.4386 6.56252V6.67627C88.2261 5.95002 89.1798 5.58252 90.3086 5.58252C91.4373 5.58252 92.3386 5.95002 92.9861 6.67627L92.9686 6.66752Z" fill="#FF8A00"/>
<path d="M56.1573 29.2339C56.1573 29.4702 56.0698 29.6714 55.9036 29.8377C55.7373 30.0039 55.5273 30.0914 55.2998 30.0914C55.0461 30.0914 54.8098 29.9777 54.5998 29.7589L51.6336 26.5914H49.1311V29.2077C49.1311 29.4702 49.0348 29.6802 48.8423 29.8377C48.6498 29.9952 48.4223 30.0739 48.1686 30.0739C47.9148 30.0739 47.6786 30.0039 47.4861 29.8464C47.2936 29.6889 47.2061 29.4877 47.2061 29.2252V20.3702C47.2061 20.1164 47.2936 19.9064 47.4686 19.7489C47.6436 19.5914 47.8798 19.5127 48.1686 19.5127H51.8698C52.8323 19.5127 53.6461 19.6702 54.3111 19.9852C54.9761 20.3002 55.4836 20.7289 55.8248 21.2714C56.1661 21.8139 56.3411 22.4177 56.3411 23.0914C56.3411 23.8877 56.1311 24.5702 55.7023 25.1477C55.2736 25.7252 54.6523 26.1277 53.8211 26.3552L55.8073 28.4464C56.0348 28.6914 56.1573 28.9539 56.1573 29.2252V29.2339ZM51.8786 24.9902C52.7098 24.9902 53.3311 24.8152 53.7598 24.4739C54.1886 24.1327 54.3986 23.7039 54.3986 23.1789C54.3986 22.6014 54.1711 22.1289 53.7161 21.7527C53.2611 21.3764 52.6486 21.1927 51.8786 21.1927H49.1223V24.9902H51.8786Z" fill="#A75A00"/>
<path d="M60.1563 21.0087C59.9638 21.1574 59.7363 21.2274 59.4825 21.2274C59.2288 21.2274 58.9925 21.1574 58.8 21.0087C58.6075 20.8687 58.52 20.6587 58.52 20.3962V20.1774C58.52 19.9149 58.6163 19.7049 58.8 19.5649C58.9838 19.4249 59.2113 19.3462 59.4825 19.3462C59.7538 19.3462 59.9638 19.4162 60.1563 19.5649C60.3488 19.7137 60.445 19.9149 60.445 20.1774V20.3962C60.445 20.6587 60.3488 20.8687 60.1563 21.0087ZM58.835 21.8574C59.0275 21.7174 59.2463 21.6387 59.4913 21.6387C59.7363 21.6387 59.9638 21.7087 60.1563 21.8574C60.3488 22.0062 60.4363 22.1987 60.4363 22.4349V29.2687C60.4363 29.5224 60.34 29.7237 60.1563 29.8637C59.9725 30.0037 59.745 30.0824 59.4913 30.0824C59.2375 30.0824 59.0275 30.0124 58.835 29.8637C58.6425 29.7237 58.5463 29.5224 58.5463 29.2687V22.4524C58.5463 22.1987 58.6425 21.9974 58.835 21.8574Z" fill="#A75A00"/>
<path d="M70.4112 22.5664C71.0587 23.2927 71.3825 24.2639 71.3825 25.4714V29.2164C71.3825 29.4789 71.3037 29.6889 71.1375 29.8464C70.9712 30.0039 70.735 30.0827 70.4375 30.0827C70.1575 30.0827 69.93 30.0039 69.755 29.8464C69.58 29.6889 69.4925 29.4789 69.4925 29.2252V25.4452C69.4925 24.7277 69.3262 24.1677 68.985 23.7564C68.6437 23.3452 68.1362 23.1439 67.4537 23.1439C67.13 23.1439 66.7712 23.2489 66.36 23.4677C65.9487 23.6864 65.5987 24.0102 65.31 24.4389C65.0212 24.8677 64.8725 25.3839 64.8725 25.9789V29.2427C64.8725 29.5052 64.7937 29.7152 64.645 29.8639C64.4875 30.0127 64.26 30.0914 63.9625 30.0914C63.665 30.0914 63.4287 30.0214 63.2537 29.8639C63.0787 29.7152 62.9912 29.5052 62.9912 29.2427V22.4964C62.9912 22.2339 63.0875 22.0239 63.2712 21.8752C63.455 21.7264 63.6825 21.6477 63.9362 21.6477C64.19 21.6477 64.4 21.7177 64.5925 21.8752C64.785 22.0239 64.8812 22.2164 64.8812 22.4614V22.5752C65.6687 21.8489 66.6225 21.4814 67.7512 21.4814C68.88 21.4814 69.7812 21.8489 70.4287 22.5752L70.4112 22.5664Z" fill="#A75A00"/>
<path d="M82.1012 21.9189C82.2762 22.1027 82.3637 22.3214 82.3637 22.5927V29.5752C82.3637 30.3627 82.1799 31.0364 81.8124 31.5877C81.4449 32.1477 80.9462 32.5677 80.3162 32.8477C79.6862 33.1277 78.9687 33.2677 78.1899 33.2677C77.5162 33.2677 76.9212 33.1802 76.4049 33.0139C75.8887 32.8389 75.4162 32.5502 74.9874 32.1389C74.7774 31.9289 74.6724 31.7014 74.6724 31.4564C74.6724 31.2114 74.7599 31.0189 74.9437 30.8439C75.1274 30.6689 75.3374 30.5814 75.5824 30.5814C75.8012 30.5814 76.0199 30.6689 76.2299 30.8439C76.5537 31.1327 76.8512 31.3252 77.1399 31.4127C77.4287 31.5089 77.7787 31.5527 78.1812 31.5527C78.8374 31.5527 79.3799 31.3864 79.8349 31.0452C80.2899 30.7039 80.5087 30.2139 80.5087 29.5577V29.4089C80.1499 29.6714 79.7562 29.8814 79.3099 30.0214C78.8637 30.1614 78.4349 30.2402 78.0412 30.2402C77.2449 30.2402 76.5449 30.0564 75.9324 29.6977C75.3287 29.3302 74.8562 28.8227 74.5237 28.1577C74.1912 27.4927 74.0249 26.7227 74.0249 25.8389C74.0249 24.9552 74.1999 24.2377 74.5412 23.5727C74.8824 22.9164 75.3637 22.4002 75.9762 22.0327C76.5887 21.6652 77.2974 21.4814 78.1024 21.4814C78.5137 21.4814 78.9249 21.5427 79.3449 21.6652C79.7649 21.7877 80.1499 21.9714 80.5087 22.2252C80.6312 21.8402 80.9287 21.6477 81.4012 21.6477C81.6899 21.6477 81.9174 21.7352 82.1012 21.9189ZM79.5637 28.2277C80.0187 27.9914 80.3249 27.6677 80.4912 27.2477V24.4827C80.2899 24.0714 79.9837 23.7477 79.5549 23.5114C79.1262 23.2752 78.6887 23.1527 78.2337 23.1527C77.5337 23.1527 76.9737 23.4064 76.5537 23.9052C76.1249 24.4127 75.9149 25.0602 75.9149 25.8564C75.9149 26.6527 76.1162 27.3352 76.5099 27.8252C76.9124 28.3239 77.4287 28.5689 78.0849 28.5689C78.6187 28.5689 79.1087 28.4552 79.5637 28.2189V28.2277Z" fill="#A75A00"/>
</g>
<defs>
<linearGradient id="paint0_linear_5042_386" x1="17.115" y1="17.894" x2="17.115" y2="35.0002" gradientUnits="userSpaceOnUse">
<stop stop-color="white"/>
<stop offset="0.03" stop-color="#8C4D03"/>
<stop offset="0.28" stop-color="#D17304"/>
<stop offset="0.51" stop-color="#B66506"/>
<stop offset="0.72" stop-color="#C97614"/>
<stop offset="0.88" stop-color="#DA7600"/>
<stop offset="1" stop-color="#C16F0D"/>
</linearGradient>
<linearGradient id="paint1_linear_5042_386" x1="27.1688" y1="13.8424" x2="10.4913" y2="30.5199" gradientUnits="userSpaceOnUse">
<stop stop-color="white"/>
<stop offset="0.42" stop-color="#965100"/>
<stop offset="0.68" stop-color="#965100"/>
</linearGradient>
<linearGradient id="paint2_linear_5042_386" x1="17.3862" y1="19.556" x2="17.3862" y2="2.34479" gradientUnits="userSpaceOnUse">
<stop offset="0.02" stop-color="#FF8A00"/>
<stop offset="1" stop-color="#965100"/>
</linearGradient>
<linearGradient id="paint3_linear_5042_386" x1="29.54" y1="24.7712" x2="7.49878" y2="2.73" gradientUnits="userSpaceOnUse">
<stop stop-color="#FF8A00" stop-opacity="0.5"/>
<stop offset="0.76" stop-color="#FFB156"/>
</linearGradient>
<clipPath id="clip0_5042_386">
<rect width="93.94" height="35" fill="white"/>
</clipPath>
</defs>
</svg>
