<svg width="48" height="48" viewBox="0 0 48 48" fill="none" xmlns="http://www.w3.org/2000/svg">
<g opacity="0.25" filter="url(#filter0_f_5045_416)">
<rect x="6.09033" y="20.0283" width="35.9546" height="22.4716" rx="11.2358" fill="url(#paint0_linear_5045_416)"/>
</g>
<rect x="5" y="0.5" width="38.9508" height="38.9508" rx="4" fill="url(#paint1_linear_5045_416)"/>
<g filter="url(#filter1_i_5045_416)">
<path d="M25.8853 19.5435C25.8853 22.7712 23.2248 25.3921 19.929 25.3921C16.6331 25.3921 13.9727 22.7712 13.9727 19.5435C13.9727 16.3157 16.6331 13.6948 19.929 13.6948C23.2248 13.6948 25.8853 16.3157 25.8853 19.5435ZM32.4107 19.5435C32.4107 22.5775 31.0739 25.0435 29.4326 25.0435C27.7913 25.0435 26.4544 22.5775 26.4544 19.5435C26.4544 16.5094 27.7913 14.0434 29.4326 14.0434C31.0739 14.0434 32.4107 16.4965 32.4107 19.5435ZM35.0844 19.5435C35.0844 22.2677 34.6212 24.4754 34.0388 24.4754C33.4564 24.4754 32.9931 22.2677 32.9931 19.5435C32.9931 16.8193 33.4564 14.6115 34.0388 14.6115C34.6212 14.6115 35.0844 16.8193 35.0844 19.5435Z" fill="white"/>
</g>
<defs>
<filter id="filter0_f_5045_416" x="0.630332" y="14.5683" width="46.8746" height="33.3917" filterUnits="userSpaceOnUse" color-interpolation-filters="sRGB">
<feFlood flood-opacity="0" result="BackgroundImageFix"/>
<feBlend mode="normal" in="SourceGraphic" in2="BackgroundImageFix" result="shape"/>
<feGaussianBlur stdDeviation="2.73" result="effect1_foregroundBlur_5045_416"/>
</filter>
<filter id="filter1_i_5045_416" x="12.3892" y="7.88916" width="23.751" height="24.251" filterUnits="userSpaceOnUse" color-interpolation-filters="sRGB">
<feFlood flood-opacity="0" result="BackgroundImageFix"/>
<feBlend mode="normal" in="SourceGraphic" in2="BackgroundImageFix" result="shape"/>
<feColorMatrix in="SourceAlpha" type="matrix" values="0 0 0 0 0 0 0 0 0 0 0 0 0 0 0 0 0 0 127 0" result="hardAlpha"/>
<feOffset dy="0.5"/>
<feGaussianBlur stdDeviation="1.25"/>
<feComposite in2="hardAlpha" operator="arithmetic" k2="-1" k3="1"/>
<feColorMatrix type="matrix" values="0 0 0 0 0 0 0 0 0 0 0 0 0 0 0 0 0 0 0.1 0"/>
<feBlend mode="normal" in2="shape" result="effect1_innerShadow_5045_416"/>
</filter>
<linearGradient id="paint0_linear_5045_416" x1="26.5525" y1="43.1701" x2="19.2238" y2="17.3388" gradientUnits="userSpaceOnUse">
<stop offset="0.0729167" stop-color="#303D4D"/>
<stop offset="0.927083" stop-color="#526378"/>
</linearGradient>
<linearGradient id="paint1_linear_5045_416" x1="27.1674" y1="40.6124" x2="8.95846" y2="0.499999" gradientUnits="userSpaceOnUse">
<stop offset="0.0729167"/>
<stop offset="0.927083" stop-color="#393A3D"/>
</linearGradient>
</defs>
</svg>
