<svg width="32" height="32" viewBox="0 0 32 32" fill="none" xmlns="http://www.w3.org/2000/svg">
  <path d="M29.4467 6.17733L32 3.73467V3.2H23.1547L16.8507 18.8907L9.67867 3.2H0.404V3.73467L3.38667 7.32533C3.67733 7.59067 3.82933 7.97867 3.79067 8.36933V22.48C3.88267 22.988 3.71733 23.5107 3.36 23.88L0 27.952V28.48H9.52667V27.9453L6.16667 23.88C5.80267 23.5093 5.63067 22.996 5.704 22.48V10.2747L14.0667 28.4867H15.0387L22.2293 10.2747V24.7827C22.2293 25.1653 22.2293 25.244 21.9787 25.4947L19.392 27.9973V28.5333H31.9413V27.9987L29.448 25.5573C29.2293 25.392 29.116 25.1147 29.1627 24.8453V6.88933C29.116 6.61867 29.228 6.34133 29.4467 6.17733Z" fill="white"/>
</svg>
