<svg width="1350" height="211" viewBox="0 0 1350 211" fill="none" xmlns="http://www.w3.org/2000/svg">
<path d="M20.0736 211C3.57073 211 -10.5937 206.843 -22.4197 198.53C-34.1788 190.149 -43.232 178.078 -49.5793 162.315C-55.8598 146.486 -59 127.431 -59 105.151C-58.9332 82.8703 -55.7596 63.9152 -49.4791 48.2856C-43.1318 32.5894 -34.0786 20.6178 -22.3195 12.3707C-10.4935 4.12356 3.63755 0 20.0736 0C36.5097 0 50.6408 4.12356 62.4667 12.3707C74.2927 20.6178 83.3459 32.5894 89.6264 48.2856C95.9736 63.9817 99.1473 82.9368 99.1473 105.151C99.1473 127.498 95.9736 146.586 89.6264 162.415C83.3459 178.178 74.2927 190.216 62.4667 198.53C50.7076 206.843 36.5765 211 20.0736 211ZM20.0736 179.774C32.9018 179.774 43.024 173.489 50.4403 160.919C57.9234 148.282 61.665 129.693 61.665 105.151C61.665 88.9226 59.9612 75.2883 56.5537 64.2477C53.1463 53.2072 48.3357 44.8936 42.1221 39.3069C35.9084 33.6536 28.5589 30.827 20.0736 30.827C7.31228 30.827 -2.77654 37.1453 -10.1928 49.782C-17.6091 62.3522 -21.3507 80.8085 -21.4175 105.151C-21.4843 121.446 -19.8474 135.146 -16.5067 146.253C-13.0992 157.36 -8.28864 165.741 -2.075 171.394C4.13864 176.981 11.5215 179.774 20.0736 179.774Z" fill="url(#paint0_linear_3164_33647)"/>
<path d="M213.956 211C197.453 211 183.289 206.843 171.463 198.53C159.704 190.149 150.651 178.078 144.303 162.315C138.023 146.486 134.883 127.431 134.883 105.151C134.95 82.8703 138.123 63.9152 144.404 48.2856C150.751 32.5894 159.804 20.6178 171.563 12.3707C183.389 4.12356 197.52 0 213.956 0C230.392 0 244.523 4.12356 256.349 12.3707C268.175 20.6178 277.229 32.5894 283.509 48.2856C289.856 63.9817 293.03 82.9368 293.03 105.151C293.03 127.498 289.856 146.586 283.509 162.415C277.229 178.178 268.175 190.216 256.349 198.53C244.59 206.843 230.459 211 213.956 211ZM213.956 179.774C226.785 179.774 236.907 173.489 244.323 160.919C251.806 148.282 255.548 129.693 255.548 105.151C255.548 88.9226 253.844 75.2883 250.436 64.2477C247.029 53.2072 242.218 44.8936 236.005 39.3069C229.791 33.6536 222.442 30.827 213.956 30.827C201.195 30.827 191.106 37.1453 183.69 49.782C176.274 62.3522 172.532 80.8085 172.465 105.151C172.398 121.446 174.035 135.146 177.376 146.253C180.784 157.36 185.594 165.741 191.808 171.394C198.021 176.981 205.404 179.774 213.956 179.774Z" fill="url(#paint1_linear_3164_33647)"/>
<path d="M354.723 182.567C348.642 182.567 343.431 180.439 339.088 176.182C334.745 171.859 332.607 166.672 332.674 160.619C332.607 154.634 334.745 149.512 339.088 145.256C343.431 140.999 348.642 138.871 354.723 138.871C360.602 138.871 365.713 140.999 370.056 145.256C374.466 149.512 376.704 154.634 376.771 160.619C376.704 164.676 375.635 168.368 373.564 171.693C371.559 175.019 368.887 177.679 365.546 179.674C362.272 181.603 358.664 182.567 354.723 182.567ZM354.723 81.3073C348.642 81.3073 343.431 79.179 339.088 74.9225C334.745 70.5994 332.607 65.4117 332.674 59.3593C332.607 53.3735 334.745 48.2523 339.088 43.9957C343.431 39.6727 348.642 37.5111 354.723 37.5111C360.602 37.5111 365.713 39.6727 370.056 43.9957C374.466 48.2523 376.704 53.3735 376.771 59.3593C376.704 63.3499 375.635 67.0079 373.564 70.3333C371.559 73.6588 368.887 76.3191 365.546 78.3144C362.272 80.3097 358.664 81.3073 354.723 81.3073Z" fill="url(#paint2_linear_3164_33647)"/>
<path d="M495.338 211C478.835 211 464.671 206.843 452.845 198.53C441.086 190.149 432.033 178.078 425.685 162.315C419.405 146.486 416.265 127.431 416.265 105.151C416.331 82.8703 419.505 63.9152 425.786 48.2856C432.133 32.5894 441.186 20.6178 452.945 12.3707C464.771 4.12356 478.902 0 495.338 0C511.774 0 525.905 4.12356 537.731 12.3707C549.557 20.6178 558.611 32.5894 564.891 48.2856C571.238 63.9817 574.412 82.9368 574.412 105.151C574.412 127.498 571.238 146.586 564.891 162.415C558.611 178.178 549.557 190.216 537.731 198.53C525.972 206.843 511.841 211 495.338 211ZM495.338 179.774C508.166 179.774 518.289 173.489 525.705 160.919C533.188 148.282 536.93 129.693 536.93 105.151C536.93 88.9226 535.226 75.2883 531.818 64.2477C528.411 53.2072 523.6 44.8936 517.387 39.3069C511.173 33.6536 503.824 30.827 495.338 30.827C482.577 30.827 472.488 37.1453 465.072 49.782C457.656 62.3522 453.914 80.8085 453.847 105.151C453.78 121.446 455.417 135.146 458.758 146.253C462.165 157.36 466.976 165.741 473.19 171.394C479.403 176.981 486.786 179.774 495.338 179.774Z" fill="url(#paint3_linear_3164_33647)"/>
<path d="M689.221 211C672.718 211 658.554 206.843 646.728 198.53C634.969 190.149 625.915 178.078 619.568 162.315C613.288 146.486 610.147 127.431 610.147 105.151C610.214 82.8703 613.388 63.9152 619.668 48.2856C626.016 32.5894 635.069 20.6178 646.828 12.3707C658.654 4.12356 672.785 0 689.221 0C705.657 0 719.788 4.12356 731.614 12.3707C743.44 20.6178 752.493 32.5894 758.774 48.2856C765.121 63.9817 768.295 82.9368 768.295 105.151C768.295 127.498 765.121 146.586 758.774 162.415C752.493 178.178 743.44 190.216 731.614 198.53C719.855 206.843 705.724 211 689.221 211ZM689.221 179.774C702.049 179.774 712.171 173.489 719.588 160.919C727.071 148.282 730.812 129.693 730.812 105.151C730.812 88.9226 729.109 75.2883 725.701 64.2477C722.294 53.2072 717.483 44.8936 711.269 39.3069C705.056 33.6536 697.706 30.827 689.221 30.827C676.46 30.827 666.371 37.1453 658.955 49.782C651.538 62.3522 647.797 80.8085 647.73 105.151C647.663 121.446 649.3 135.146 652.641 146.253C656.048 157.36 660.859 165.741 667.072 171.394C673.286 176.981 680.669 179.774 689.221 179.774Z" fill="url(#paint4_linear_3164_33647)"/>
<path d="M821.995 209.304C815.915 209.304 810.703 207.176 806.36 202.919C802.017 198.663 799.879 193.475 799.946 187.356C799.879 181.37 802.017 176.249 806.36 171.992C810.703 167.736 815.915 165.608 821.995 165.608C827.874 165.608 832.985 167.736 837.328 171.992C841.738 176.249 843.976 181.37 844.043 187.356C843.976 191.413 842.907 195.104 840.836 198.43C838.831 201.755 836.159 204.416 832.818 206.411C829.544 208.34 825.937 209.304 821.995 209.304Z" fill="url(#paint5_linear_3164_33647)"/>
<path d="M954.618 211C938.115 211 923.95 206.843 912.124 198.53C900.365 190.149 891.312 178.078 884.965 162.315C878.684 146.486 875.544 127.431 875.544 105.151C875.611 82.8703 878.785 63.9152 885.065 48.2856C891.412 32.5894 900.466 20.6178 912.225 12.3707C924.051 4.12356 938.182 0 954.618 0C971.054 0 985.185 4.12356 997.011 12.3707C1008.84 20.6178 1017.89 32.5894 1024.17 48.2856C1030.52 63.9817 1033.69 82.9368 1033.69 105.151C1033.69 127.498 1030.52 146.586 1024.17 162.415C1017.89 178.178 1008.84 190.216 997.011 198.53C985.252 206.843 971.121 211 954.618 211ZM954.618 179.774C967.446 179.774 977.568 173.489 984.984 160.919C992.468 148.282 996.209 129.693 996.209 105.151C996.209 88.9226 994.505 75.2883 991.098 64.2477C987.69 53.2072 982.88 44.8936 976.666 39.3069C970.453 33.6536 963.103 30.827 954.618 30.827C941.856 30.827 931.768 37.1453 924.351 49.782C916.935 62.3522 913.194 80.8085 913.127 105.151C913.06 121.446 914.697 135.146 918.037 146.253C921.445 157.36 926.255 165.741 932.469 171.394C938.683 176.981 946.066 179.774 954.618 179.774Z" fill="url(#paint6_linear_3164_33647)"/>
<path d="M1148.5 211C1132 211 1117.83 206.843 1106.01 198.53C1094.25 190.149 1085.19 178.078 1078.85 162.315C1072.57 146.486 1069.43 127.431 1069.43 105.151C1069.49 82.8703 1072.67 63.9152 1078.95 48.2856C1085.3 32.5894 1094.35 20.6178 1106.11 12.3707C1117.93 4.12356 1132.06 0 1148.5 0C1164.94 0 1179.07 4.12356 1190.89 12.3707C1202.72 20.6178 1211.77 32.5894 1218.05 48.2856C1224.4 63.9817 1227.57 82.9368 1227.57 105.151C1227.57 127.498 1224.4 146.586 1218.05 162.415C1211.77 178.178 1202.72 190.216 1190.89 198.53C1179.13 206.843 1165 211 1148.5 211ZM1148.5 179.774C1161.33 179.774 1171.45 173.489 1178.87 160.919C1186.35 148.282 1190.09 129.693 1190.09 105.151C1190.09 88.9226 1188.39 75.2883 1184.98 64.2477C1181.57 53.2072 1176.76 44.8936 1170.55 39.3069C1164.34 33.6536 1156.99 30.827 1148.5 30.827C1135.74 30.827 1125.65 37.1453 1118.23 49.782C1110.82 62.3522 1107.08 80.8085 1107.01 105.151C1106.94 121.446 1108.58 135.146 1111.92 146.253C1115.33 157.36 1120.14 165.741 1126.35 171.394C1132.57 176.981 1139.95 179.774 1148.5 179.774Z" fill="url(#paint7_linear_3164_33647)"/>
<path d="M1350 2.79338V207.109H1312.82V38.808H1311.62L1263.61 69.3357V35.4161L1314.62 2.79338H1350Z" fill="url(#paint8_linear_3164_33647)"/>
<defs>
<linearGradient id="paint0_linear_3164_33647" x1="645.5" y1="0" x2="645.5" y2="211" gradientUnits="userSpaceOnUse">
<stop stop-color="white"/>
<stop offset="1" stop-color="white" stop-opacity="0.6"/>
</linearGradient>
<linearGradient id="paint1_linear_3164_33647" x1="645.5" y1="0" x2="645.5" y2="211" gradientUnits="userSpaceOnUse">
<stop stop-color="white"/>
<stop offset="1" stop-color="white" stop-opacity="0.6"/>
</linearGradient>
<linearGradient id="paint2_linear_3164_33647" x1="645.5" y1="0" x2="645.5" y2="211" gradientUnits="userSpaceOnUse">
<stop stop-color="white"/>
<stop offset="1" stop-color="white" stop-opacity="0.6"/>
</linearGradient>
<linearGradient id="paint3_linear_3164_33647" x1="645.5" y1="0" x2="645.5" y2="211" gradientUnits="userSpaceOnUse">
<stop stop-color="white"/>
<stop offset="1" stop-color="white" stop-opacity="0.6"/>
</linearGradient>
<linearGradient id="paint4_linear_3164_33647" x1="645.5" y1="0" x2="645.5" y2="211" gradientUnits="userSpaceOnUse">
<stop stop-color="white"/>
<stop offset="1" stop-color="white" stop-opacity="0.6"/>
</linearGradient>
<linearGradient id="paint5_linear_3164_33647" x1="645.5" y1="0" x2="645.5" y2="211" gradientUnits="userSpaceOnUse">
<stop stop-color="white"/>
<stop offset="1" stop-color="white" stop-opacity="0.6"/>
</linearGradient>
<linearGradient id="paint6_linear_3164_33647" x1="645.5" y1="0" x2="645.5" y2="211" gradientUnits="userSpaceOnUse">
<stop stop-color="white"/>
<stop offset="1" stop-color="white" stop-opacity="0.6"/>
</linearGradient>
<linearGradient id="paint7_linear_3164_33647" x1="645.5" y1="0" x2="645.5" y2="211" gradientUnits="userSpaceOnUse">
<stop stop-color="white"/>
<stop offset="1" stop-color="white" stop-opacity="0.6"/>
</linearGradient>
<linearGradient id="paint8_linear_3164_33647" x1="645.5" y1="0" x2="645.5" y2="211" gradientUnits="userSpaceOnUse">
<stop stop-color="white"/>
<stop offset="1" stop-color="white" stop-opacity="0.6"/>
</linearGradient>
</defs>
</svg>
