<svg width="257" height="200" viewBox="0 0 257 200" fill="none" xmlns="http://www.w3.org/2000/svg">
<mask id="mask0_5184_331" style="mask-type:luminance" maskUnits="userSpaceOnUse" x="52" y="0" width="206" height="174">
<path d="M52.1447 79.4814L211.148 0.249575L257.835 93.9422L98.832 173.174L52.1447 79.4814Z" fill="white"/>
</mask>
<g mask="url(#mask0_5184_331)">
<path d="M214.03 6.47511L213.202 4.81371C210.692 6.03252 207.683 5.06547 206.347 2.64604L56.8515 77.1399C58.0243 79.743 57.0214 82.8208 54.5558 84.2504L55.2449 85.6332C56.0625 85.4108 56.9471 85.7837 57.3381 86.5684C57.7291 87.3531 57.4954 88.2863 56.8255 88.8052L57.8177 90.7963C58.6353 90.5739 59.5211 90.9493 59.9122 91.734C60.3032 92.5187 60.0695 93.452 59.3995 93.9709L60.3917 95.962C61.2094 95.7396 62.0952 96.115 62.4862 96.8997C62.8772 97.6844 62.6423 98.6151 61.9723 99.134L62.9658 101.128C63.7835 100.905 64.668 101.278 65.059 102.063C65.45 102.848 65.2163 103.781 64.5464 104.3L65.5386 106.291C66.3563 106.068 67.2421 106.444 67.6331 107.228C68.0241 108.013 67.7904 108.946 67.1205 109.465L68.1127 111.456C68.9303 111.234 69.8161 111.609 70.2072 112.394C70.5982 113.179 70.3632 114.11 69.6933 114.628L70.6867 116.622C71.5044 116.4 72.3889 116.773 72.78 117.557C73.171 118.342 72.9373 119.275 72.2673 119.794L73.2595 121.785C74.0772 121.563 74.963 121.938 75.354 122.723C75.745 123.508 75.5113 124.441 74.8414 124.96L75.8336 126.951C76.6513 126.729 77.5371 127.104 77.9281 127.889C78.3191 128.673 78.0841 129.604 77.4142 130.123L78.4077 132.117C79.2253 131.894 80.1099 132.267 80.5009 133.052C80.8919 133.836 80.6582 134.77 79.9883 135.289L80.9805 137.28C81.7981 137.057 82.6839 137.433 83.075 138.217C83.466 139.002 83.2323 139.935 82.5623 140.454L83.5545 142.445C84.3722 142.223 85.258 142.598 85.6477 143.381C86.04 144.168 85.8051 145.098 85.1351 145.617L86.1286 147.611C86.9463 147.389 87.8321 147.764 88.2218 148.546C88.6128 149.331 88.3791 150.264 87.7092 150.783L88.7014 152.774C89.5191 152.552 90.4049 152.927 90.7959 153.712C91.1869 154.497 90.9519 155.427 90.2833 155.949L91.2754 157.94C92.0931 157.717 92.9789 158.093 93.3699 158.878C93.7597 159.66 93.526 160.593 92.8561 161.112L93.8495 163.105C94.6672 162.883 95.5517 163.256 95.9427 164.041C96.3338 164.825 96.1001 165.759 95.4301 166.277L96.1739 167.77C98.869 166.635 102.023 167.765 103.343 170.413L252.817 95.9297C251.539 93.3635 252.574 90.2538 255.126 88.9469L254.243 87.1756C253.355 87.5831 252.303 87.2202 251.866 86.3435C251.429 85.4668 251.774 84.4111 252.635 83.9474L251.669 82.0099C250.781 82.4174 249.73 82.0571 249.293 81.1804C248.857 80.3037 249.2 79.2454 250.06 78.7817L249.095 76.8443C248.207 77.2518 247.156 76.8915 246.719 76.0147C246.283 75.138 246.628 74.0823 247.488 73.6186L246.522 71.6812C245.634 72.0886 244.582 71.7258 244.145 70.8491C243.708 69.9724 244.053 68.9166 244.914 68.4529L243.948 66.5155C243.06 66.923 242.009 66.5627 241.571 65.6834C241.136 64.8093 241.479 63.751 242.34 63.2873L241.374 61.3498C240.486 61.7573 239.435 61.397 238.998 60.5203C238.562 59.6436 238.907 58.5879 239.767 58.1242L238.878 56.3401C238.809 56.3745 238.745 56.4191 238.676 56.4535C233.403 59.081 227.003 56.9446 224.382 51.6844C221.761 46.4241 223.91 40.0312 229.183 37.4036C229.252 37.3692 229.325 37.3425 229.395 37.3107L228.506 35.5266C227.618 35.9341 226.568 35.5738 226.131 34.697C225.694 33.8203 226.038 32.7621 226.898 32.2984L225.932 30.3609C225.044 30.7684 223.993 30.4081 223.557 29.5314C223.12 28.6547 223.465 27.5989 224.325 27.1352L223.359 25.1978C222.471 25.6053 221.419 25.2424 220.983 24.3657C220.546 23.489 220.891 22.4333 221.751 21.9696L220.785 20.0321C219.897 20.4396 218.847 20.0793 218.41 19.2026C217.973 18.3259 218.317 17.2676 219.177 16.8039L218.211 14.8664C217.323 15.2739 216.273 14.9136 215.836 14.0369C215.399 13.1602 215.743 12.1019 216.604 11.6408L215.639 9.70333C214.75 10.1108 213.698 9.74796 213.262 8.87125C212.825 7.99454 213.17 6.93882 214.03 6.47511Z" fill="#C5ABED"/>
</g>
<mask id="mask1_5184_331" style="mask-type:luminance" maskUnits="userSpaceOnUse" x="0" y="79" width="99" height="121">
<path d="M0.25 105.341L52.1444 79.4817L98.8317 173.174L46.9373 199.033L0.25 105.341Z" fill="white"/>
</mask>
<g mask="url(#mask1_5184_331)">
<path d="M94.7883 166.597C93.9732 166.818 93.0874 166.442 92.6964 165.658C92.3054 164.873 92.5403 163.942 93.2077 163.425L92.2142 161.431C91.3991 161.652 90.5146 161.279 90.1236 160.495C89.7326 159.71 89.9663 158.777 90.6336 158.259L89.6415 156.268C88.8251 156.486 87.9405 156.114 87.5495 155.329C87.1585 154.544 87.3922 153.611 88.0596 153.093L87.0674 151.102C86.2523 151.323 85.3664 150.948 84.9754 150.163C84.5844 149.379 84.8194 148.448 85.4868 147.93L84.4933 145.937C83.6782 146.158 82.7937 145.785 82.4014 144.998C82.0116 144.215 82.2453 143.282 82.9127 142.765L81.9205 140.773C81.1054 140.995 80.2196 140.619 79.8286 139.834C79.4376 139.05 79.6713 138.117 80.3386 137.599L79.3465 135.608C78.5313 135.829 77.6455 135.454 77.2545 134.669C76.8635 133.884 77.0985 132.953 77.7658 132.436L76.7724 130.442C75.9573 130.663 75.0715 130.288 74.6817 129.506C74.2907 128.721 74.5244 127.788 75.1918 127.27L74.1996 125.279C73.3832 125.498 72.4987 125.125 72.1076 124.34C71.7166 123.555 71.9503 122.622 72.6177 122.104L71.6255 120.113C70.8104 120.334 69.9246 119.959 69.5336 119.174C69.1426 118.39 69.3775 117.459 70.0449 116.941L69.0515 114.948C68.2363 115.169 67.3505 114.793 66.9608 114.011C66.5698 113.227 66.8035 112.293 67.4708 111.776L66.4787 109.785C65.6623 110.003 64.7777 109.63 64.3867 108.846C63.9957 108.061 64.2294 107.128 64.8968 106.61L63.9046 104.619C63.0895 104.84 62.2037 104.465 61.8126 103.68C61.4229 102.898 61.6566 101.965 62.324 101.447L61.3305 99.4532C60.5154 99.6743 59.6296 99.2989 59.2398 98.5168C58.8488 97.7321 59.0825 96.7988 59.7499 96.2812L58.7577 94.2901C57.9426 94.5112 57.0568 94.1358 56.6658 93.3511C56.2748 92.5664 56.5085 91.6332 57.1758 91.1155L56.1837 89.1244C55.3685 89.3455 54.4827 88.9701 54.0917 88.1854C53.7007 87.4008 53.9357 86.47 54.603 85.9524L53.914 84.5696C51.288 85.6772 48.2294 84.6232 46.8535 82.1182L5.26487 102.842C6.421 105.425 5.3402 108.493 2.77909 109.77C2.69219 109.813 2.60402 109.847 2.51457 109.885L3.31825 111.498C3.39623 111.443 3.47421 111.389 3.56367 111.344C4.45827 110.898 5.54589 111.262 5.9904 112.154C6.43618 113.049 6.07199 114.137 5.1774 114.582C5.08794 114.627 4.99722 114.656 4.90523 114.683L5.89232 116.664C5.9703 116.609 6.04828 116.554 6.13774 116.51C7.03233 116.064 8.11868 116.426 8.56447 117.32C9.01025 118.215 8.64479 119.3 7.75019 119.746C7.66073 119.79 7.57001 119.819 7.4793 119.849L8.46511 121.827C8.54309 121.772 8.62107 121.717 8.71053 121.673C9.60513 121.227 10.6928 121.591 11.1385 122.486C11.583 123.378 11.2189 124.465 10.3243 124.911C10.2348 124.956 10.1441 124.985 10.0534 125.014L11.0392 126.993C11.1172 126.938 11.1951 126.883 11.2846 126.838C12.1792 126.393 13.2668 126.757 13.7113 127.649C14.1571 128.544 13.7929 129.631 12.8983 130.077C12.8089 130.122 12.7181 130.151 12.6262 130.177L13.6132 132.158C13.6912 132.104 13.7692 132.049 13.8587 132.004C14.7533 131.558 15.8396 131.92 16.2854 132.815C16.7312 133.709 16.3657 134.794 15.4711 135.24C15.3817 135.285 15.2922 135.316 15.2002 135.343L16.186 137.321C16.264 137.267 16.342 137.212 16.4315 137.167C17.3261 136.721 18.4137 137.086 18.8595 137.98C19.304 138.872 18.9398 139.96 18.0452 140.406C17.9557 140.45 17.865 140.48 17.7743 140.509L18.6277 142.221C23.9365 139.576 30.4035 141.733 33.0425 147.029C35.6828 152.327 33.5093 158.787 28.2005 161.432L29.0551 163.147C29.1331 163.092 29.2111 163.038 29.3005 162.993C30.1951 162.547 31.2815 162.909 31.7273 163.804C32.173 164.698 31.8076 165.783 30.913 166.229C30.8235 166.274 30.7328 166.303 30.6421 166.332L31.6279 168.31C31.7059 168.256 31.7839 168.201 31.8733 168.156C32.7679 167.71 33.8555 168.075 34.3001 168.967C34.7458 169.861 34.3817 170.949 33.4871 171.395C33.3976 171.439 33.3069 171.468 33.2162 171.498L34.202 173.476C34.2799 173.421 34.3579 173.366 34.4474 173.322C35.342 172.876 36.4283 173.238 36.8741 174.132C37.3199 175.027 36.9557 176.115 36.0611 176.56C35.9717 176.605 35.8809 176.634 35.7902 176.663L36.776 178.642C36.8527 178.584 36.932 178.532 37.0215 178.488C37.9161 178.042 39.0024 178.403 39.4482 179.298C39.894 180.193 39.5285 181.278 38.6339 181.723C38.5445 181.768 38.455 181.8 38.363 181.826L39.3488 183.805C39.4268 183.75 39.5048 183.695 39.5943 183.651C40.4889 183.205 41.5765 183.569 42.0223 184.464C42.4668 185.356 42.1026 186.443 41.208 186.889C41.1185 186.934 41.0278 186.963 40.9371 186.992L41.9229 188.971C42.0009 188.916 42.0789 188.861 42.1683 188.816C43.0629 188.371 44.1505 188.735 44.5951 189.627C45.0408 190.521 44.6766 191.609 43.782 192.055C43.6926 192.099 43.6019 192.129 43.5112 192.158L44.3683 193.878C44.454 193.832 44.5332 193.78 44.6201 193.737C47.2477 192.427 50.4506 193.495 51.7573 196.118L93.3255 175.404C92.006 172.756 93.0027 169.557 95.5321 168.089L94.7883 166.597Z" fill="#C5ABED"/>
</g>
<path d="M198.639 16.364L71.0976 79.9184C68.5467 81.1895 67.5042 84.2839 68.7727 86.8297L104.379 158.285C105.229 159.99 106.899 161.011 108.677 161.121L203.066 16.2768C201.702 15.6645 200.083 15.6444 198.639 16.364Z" fill="#DFCAFF"/>
<path d="M108.677 161.122C109.553 161.177 110.454 161.012 111.297 160.591L238.839 97.037C241.392 95.7647 242.431 92.669 241.164 90.1258L205.557 18.6703C205.007 17.5661 204.11 16.7463 203.066 16.2774L108.677 161.122Z" fill="#A481DB"/>
<path d="M45.7236 146.309L63.9198 137.241L64.9463 139.302L46.7502 148.369L45.7236 146.309Z" fill="white"/>
<path d="M41.8811 138.597L60.0772 129.53L61.0975 131.577L42.9013 140.645L41.8811 138.597Z" fill="white"/>
<path d="M60.3406 175.642L78.5367 166.574L79.2844 168.075L61.0882 177.142L60.3406 175.642Z" fill="white"/>
<path d="M52.8948 160.7L71.0909 151.633L71.8322 153.12L53.636 162.187L52.8948 160.7Z" fill="white"/>
<path d="M27.2755 109.287L45.4717 100.219L46.2193 101.72L28.0232 110.787L27.2755 109.287Z" fill="white"/>
<path d="M57.3108 169.562L75.5069 160.494L76.2533 161.992L58.0572 171.059L57.3108 169.562Z" fill="white"/>
<path d="M43.7986 142.445L61.9947 133.378L62.7411 134.876L44.5449 143.943L43.7986 142.445Z" fill="white"/>
<path d="M80.4368 170.388L80.9412 171.4L62.745 180.467L62.2381 179.45C68.2869 176.394 74.3536 173.374 80.4368 170.388Z" fill="white"/>
<path d="M32.739 120.25C38.8108 117.241 44.8698 114.206 50.9504 111.214L51.4726 112.262L33.2765 121.329L32.739 120.25Z" fill="white"/>
<path d="M30.0209 114.796L48.217 105.729L48.7201 106.738C42.6738 109.799 36.6085 112.821 30.5252 115.808L30.0209 114.796Z" fill="white"/>
<path d="M58.6404 172.23C64.7134 169.223 70.7711 166.185 76.8518 163.193L77.3766 164.247L59.1804 173.314L58.6404 172.23Z" fill="white"/>
<path d="M28.9207 112.588L47.1168 103.521L47.6186 104.528C41.5723 107.589 35.507 110.611 29.4225 113.595L28.9207 112.588Z" fill="white"/>
<path d="M44.0639 97.3937L44.5683 98.4059L26.3721 107.473L25.8677 106.461C31.914 103.4 37.9807 100.38 44.0639 97.3937Z" fill="white"/>
<path d="M54.5074 163.936C60.5792 160.926 66.6331 157.893 72.7189 154.899L73.2436 155.952L55.0475 165.019L54.5074 163.936Z" fill="white"/>
<path d="M50.9244 156.746C56.9962 153.736 63.0501 150.703 69.1371 147.712L69.6581 148.757L51.4619 157.824L50.9244 156.746Z" fill="white"/>
<path d="M50.1171 155.125L68.3132 146.058L68.852 147.139C62.7751 150.151 56.7212 153.184 50.6405 156.176L50.1171 155.125Z" fill="white"/>
<path d="M47.0676 149.005C53.1381 145.993 59.192 142.961 65.2791 139.969L65.8025 141.019L47.6064 150.087L47.0676 149.005Z" fill="white"/>
<path d="M44.8807 144.617L63.0769 135.55L63.6169 136.633C57.5452 139.643 51.4862 142.678 45.4029 145.665L44.8807 144.617Z" fill="white"/>
<path d="M39.3705 133.559L57.5666 124.491L58.1054 125.573C52.0336 128.582 45.9759 131.62 39.8927 134.607L39.3705 133.559Z" fill="white"/>
<path d="M36.3219 127.441C42.3962 124.424 48.4501 121.391 54.5333 118.404L55.0555 119.452L36.8594 128.52L36.3219 127.441Z" fill="white"/>
<path d="M61.7366 178.443L79.9327 169.376L80.0652 169.642L61.869 178.709L61.7366 178.443Z" fill="white"/>
<path d="M59.5475 174.05L77.7436 164.983L77.8812 165.259L59.685 174.326L59.5475 174.05Z" fill="white"/>
<path d="M56.5154 167.965L74.7115 158.898L74.8491 159.174L56.6529 168.241L56.5154 167.965Z" fill="white"/>
<path d="M55.3971 165.721L73.5932 156.654L73.7308 156.93L55.5347 165.997L55.3971 165.721Z" fill="white"/>
<path d="M38.3307 131.472L56.5268 122.405L56.6644 122.681L38.4682 131.748L38.3307 131.472Z" fill="white"/>
<path d="M37.2289 129.261L55.425 120.194L55.5613 120.468L37.3652 129.535L37.2289 129.261Z" fill="white"/>
<path d="M43.2734 141.391L61.4696 132.324L61.6084 132.603L43.4123 141.67L43.2734 141.391Z" fill="white"/>
<path d="M35.3016 125.394L53.4978 116.326L53.6328 116.597L35.4366 125.664L35.3016 125.394Z" fill="white"/>
<path d="M34.1969 123.176L52.393 114.109L52.5306 114.385L34.3345 123.452L34.1969 123.176Z" fill="white"/>
<path d="M48.801 152.484L66.9972 143.417L67.1335 143.69L48.9373 152.757L48.801 152.484Z" fill="white"/>
<path d="M32.25 119.269L50.4461 110.202L50.5862 110.483L32.3901 119.55L32.25 119.269Z" fill="white"/>
<path d="M30.8728 116.505L49.0689 107.438L49.2078 107.717L31.0116 116.784L30.8728 116.505Z" fill="white"/>
<path d="M41.3469 137.525L59.5431 128.458L59.6806 128.734L41.4845 137.801L41.3469 137.525Z" fill="white"/>
<path d="M40.8103 136.448L59.0064 127.381L59.144 127.657L40.9479 136.724L40.8103 136.448Z" fill="white"/>
<path d="M51.8308 158.564L70.027 149.497L70.1658 149.775L51.9696 158.843L51.8308 158.564Z" fill="white"/>
<path d="M26.7578 108.248L44.954 99.1804L45.0915 99.4564L26.8954 108.524L26.7578 108.248Z" fill="white"/>
<path d="M48.2357 151.35L66.4319 142.282L66.5694 142.558L48.3733 151.626L48.2357 151.35Z" fill="white"/>
</svg>
