<svg width="41" height="28" viewBox="0 0 41 28" fill="none" xmlns="http://www.w3.org/2000/svg">
  <path d="M4.94444 0.735352C2.49306 0.735352 0.5 2.76827 0.5 5.26868V9.80202C0.5 10.4254 1.01389 10.9141 1.59028 11.1195C2.89583 11.5799 3.83333 12.8479 3.83333 14.3354C3.83333 15.8229 2.89583 17.0908 1.59028 17.5512C1.01389 17.7566 0.5 18.2454 0.5 18.8687V23.402C0.5 25.9024 2.49306 27.9354 4.94444 27.9354H36.0556C38.5069 27.9354 40.5 25.9024 40.5 23.402V18.8687C40.5 18.2454 39.9861 17.7566 39.4097 17.5512C38.1042 17.0908 37.1667 15.8229 37.1667 14.3354C37.1667 12.8479 38.1042 11.5799 39.4097 11.1195C39.9861 10.9141 40.5 10.4254 40.5 9.80202V5.26868C40.5 2.76827 38.5069 0.735352 36.0556 0.735352H4.94444ZM9.38889 8.66868V20.002C9.38889 20.6254 9.88889 21.1354 10.5 21.1354H30.5C31.1111 21.1354 31.6111 20.6254 31.6111 20.002V8.66868C31.6111 8.04535 31.1111 7.53535 30.5 7.53535H10.5C9.88889 7.53535 9.38889 8.04535 9.38889 8.66868ZM7.16667 7.53535C7.16667 6.2816 8.15972 5.26868 9.38889 5.26868H31.6111C32.8403 5.26868 33.8333 6.2816 33.8333 7.53535V21.1354C33.8333 22.3891 32.8403 23.402 31.6111 23.402H9.38889C8.15972 23.402 7.16667 22.3891 7.16667 21.1354V7.53535Z" fill="#FF8A00"/>
</svg>
