<svg width="16" height="17" viewBox="0 0 16 17" fill="none" xmlns="http://www.w3.org/2000/svg">
<path d="M0 8.02167C0 7.46938 0.447715 7.02167 1 7.02167H15C15.5523 7.02167 16 7.46938 16 8.02167C16 8.57395 15.5523 9.02167 15 9.02167H1C0.447715 9.02167 0 8.57395 0 8.02167Z" fill="#BABEC5"/>
<path d="M8 16.0217C7.44772 16.0217 7 15.574 7 15.0217L7 1.02167C7 0.469383 7.44771 0.0216675 8 0.0216675C8.55228 0.0216675 9 0.469383 9 1.02167L9 15.0217C9 15.574 8.55228 16.0217 8 16.0217Z" fill="#BABEC5"/>
</svg>
