<svg width="20" height="20" viewBox="0 0 20 20" fill="none" xmlns="http://www.w3.org/2000/svg">
<path d="M0 10.0063C0 4.4835 4.47715 0.00634766 10 0.00634766C15.5228 0.00634766 20 4.4835 20 10.0063C20 15.5292 15.5228 20.0063 10 20.0063C4.47715 20.0063 0 15.5292 0 10.0063Z" fill="black"/>
<path d="M3.00378 10.5562C3.00378 10.2043 3.0111 9.85218 3.00027 9.50061C2.99558 9.34843 3.05181 9.27161 3.18797 9.21414C3.50246 9.08131 3.8313 9.01944 4.16746 8.9863C4.31299 8.97194 4.45911 8.96109 4.60493 8.9561C4.69043 8.95317 4.72733 8.9215 4.72733 8.83324C4.72557 8.09521 4.72645 7.35746 4.72616 6.61943C4.72616 6.56401 4.72616 6.5083 4.643 6.51504C4.21577 6.55111 3.78474 6.55844 3.3704 6.68746C3.3007 6.70915 3.23306 6.73789 3.16513 6.76487C3.01227 6.82556 3.00583 6.82146 3.00378 6.65051C3.0029 6.58688 3.00378 6.52355 3.00378 6.45992C3.00378 5.79519 3.00671 5.13075 3.00144 4.46602C2.99998 4.34433 3.04566 4.281 3.15371 4.23408C3.63159 4.02648 4.13554 3.99599 4.64563 4.00039C4.72704 4.00097 4.75925 4.0429 4.76013 4.11855C4.76042 4.16254 4.7613 4.20652 4.7613 4.2505C4.7613 4.93459 4.76335 5.61896 4.75983 6.30304C4.75925 6.42209 4.79673 6.47692 4.92089 6.4608C5.35631 6.40391 5.78676 6.46021 6.21721 6.51827C6.397 6.54261 6.39758 6.54349 6.39758 6.36521C6.39788 5.68112 6.39758 4.99704 6.39788 4.31267C6.39788 4.10858 6.40373 4.10184 6.60666 4.1467C7.03125 4.24024 7.44384 4.37483 7.85906 4.50267C8.03651 4.55721 8.07545 4.65133 8.0734 4.82082C8.0652 5.47558 8.07487 6.13063 8.06667 6.7851C8.06462 6.94285 8.11352 7.01704 8.26608 7.06747C8.669 7.20088 9.0646 7.35512 9.46401 7.49968C9.61101 7.55304 9.62067 7.54601 9.62096 7.38737C9.62184 6.73261 9.62126 6.07756 9.62126 5.4228C9.62126 5.16887 9.62126 5.17004 9.85786 5.23778C10.0877 5.30346 10.3202 5.36063 10.5477 5.43365C10.683 5.47704 10.7082 5.42632 10.7062 5.30522C10.7012 5.02197 10.7085 4.73842 10.7029 4.45488C10.7003 4.3241 10.7425 4.29566 10.8684 4.33055C11.1644 4.41295 11.4631 4.48655 11.7627 4.55399C11.8695 4.57803 11.9082 4.62905 11.9067 4.73461C11.9032 5.02284 11.9091 5.31137 11.9041 5.59961C11.902 5.7169 11.9378 5.77818 12.0625 5.79665C12.2988 5.83184 12.5331 5.87934 12.7673 5.92596C12.8807 5.94854 12.929 5.91482 12.9266 5.79284C12.9214 5.50959 12.9278 5.22605 12.924 4.9425C12.9222 4.82961 12.9547 4.7824 13.0774 4.80117C13.3424 4.84193 13.6086 4.87418 13.8771 4.88474C14.056 4.89178 14.0716 4.91289 14.0721 5.09791C14.073 5.36679 14.0762 5.63567 14.0707 5.90426C14.068 6.02273 14.0988 6.07433 14.2303 6.08782C14.683 6.13356 15.1269 6.22446 15.5491 6.40303C16.2156 6.68452 16.5799 7.183 16.6279 7.90784C16.6882 8.81917 16.4209 9.61233 15.7723 10.2656C15.7201 10.3181 15.6786 10.3609 15.7884 10.3949C16.663 10.6662 16.9904 11.32 16.9998 12.1748C17.0074 12.8609 16.8247 13.4998 16.4291 14.0666C15.8976 14.8287 15.1462 15.2169 14.2388 15.319C14.1014 15.3345 14.0672 15.3835 14.0701 15.509C14.0765 15.7776 14.0683 16.0465 14.0733 16.3153C14.0757 16.4426 14.0361 16.5042 13.8976 16.4998C13.62 16.4913 13.3421 16.5083 13.0643 16.4781C12.958 16.4666 12.9216 16.4256 12.9234 16.3221C12.9275 16.0435 12.919 15.765 12.9272 15.4864C12.931 15.3542 12.9006 15.2955 12.7533 15.29C12.5395 15.2823 12.3266 15.2474 12.114 15.2193C11.924 15.1941 11.9056 15.2073 11.9053 15.4058C11.9047 15.6647 11.9061 15.9239 11.9044 16.1828C11.9032 16.3473 11.8813 16.3661 11.7266 16.3409C11.457 16.2972 11.1876 16.2535 10.9185 16.2074C10.7038 16.1708 10.7041 16.169 10.7038 15.9444C10.7038 15.6755 10.6991 15.4067 10.7059 15.1381C10.7085 15.0243 10.6701 14.9677 10.5562 14.9504C9.73165 14.8264 8.95392 14.5282 8.15773 14.2995C8.04646 14.2675 8.03329 14.1986 8.03358 14.1021C8.03563 13.4081 8.03182 12.7143 8.03709 12.0203C8.03797 11.8918 8.00195 11.8311 7.87194 11.7954C7.4576 11.6816 7.04296 11.5716 6.61925 11.4992C6.45176 11.4705 6.43302 11.4845 6.43302 11.6578C6.43214 12.3419 6.43302 13.026 6.43243 13.7104C6.43243 13.8983 6.43067 13.9054 6.24532 13.8878C5.77739 13.8432 5.31034 13.8403 4.84387 13.9018C4.71386 13.9189 4.72587 13.8359 4.72587 13.7573C4.72528 13.0682 4.72557 12.3792 4.72557 11.6901C4.72557 11.6511 4.72352 11.6118 4.72557 11.5728C4.73055 11.4822 4.68751 11.4499 4.60054 11.4608C4.09337 11.5238 3.57771 11.5479 3.10773 11.7842C2.98709 11.8449 3.00408 11.7479 3.00378 11.6839C3.00203 11.3077 3.0029 10.9312 3.0029 10.555L3.00378 10.5562ZM11.9061 12.2947C11.9061 12.5536 11.9111 12.8125 11.9041 13.0712C11.9006 13.2008 11.9492 13.2547 12.0777 13.2676C12.3829 13.2984 12.6862 13.3529 12.9919 13.3735C13.365 13.3987 13.7395 13.4538 14.114 13.3796C14.591 13.2852 14.8431 12.9536 14.8358 12.4275C14.8291 11.9502 14.5901 11.6839 14.0962 11.6039C14.0288 11.593 13.9615 11.5784 13.8935 11.5763C13.2789 11.557 12.6684 11.496 12.0628 11.3913C11.9261 11.3675 11.9023 11.4159 11.9047 11.5329C11.9094 11.7868 11.9061 12.0408 11.9061 12.2947ZM11.9064 8.60776C11.9064 8.85699 11.9061 9.10594 11.9064 9.35518C11.9064 9.42496 11.9073 9.49504 12.0007 9.51058C12.5779 9.60646 13.1539 9.72434 13.7427 9.68534C14.0429 9.6654 14.2891 9.52759 14.4033 9.22909C14.5717 8.78867 14.4879 8.1949 13.8429 8.02102C13.7723 8.00196 13.7017 7.97968 13.6297 7.97059C13.0979 7.90403 12.5638 7.85242 12.0382 7.74188C11.9392 7.72106 11.9053 7.76768 11.9059 7.86034C11.9073 8.10957 11.9067 8.35852 11.9064 8.60776ZM4.7613 10.1862C4.7613 10.5325 4.7654 10.879 4.75896 11.2253C4.75661 11.352 4.77828 11.4115 4.92674 11.3933C5.36861 11.3385 5.81106 11.3514 6.25147 11.4153C6.3604 11.4312 6.39934 11.3881 6.39905 11.279C6.39641 10.5764 6.39524 9.87388 6.39993 9.17162C6.4008 9.04905 6.34575 9.00947 6.2377 8.99715C5.80667 8.94877 5.37681 8.913 4.94168 8.95581C4.79087 8.97047 4.75544 9.02325 4.75866 9.16224C4.76657 9.50354 4.7613 9.84456 4.7613 10.1862ZM6.43389 7.77677C6.43389 8.13333 6.43536 8.48988 6.43302 8.84644C6.43243 8.94261 6.4582 8.99891 6.56537 9.01797C7.02188 9.09919 7.46931 9.21971 7.91118 9.36016C7.99668 9.38743 8.03709 9.3757 8.0368 9.27366C8.03446 8.56055 8.03475 7.84773 8.03621 7.13462C8.03621 7.05428 8.00635 7.00912 7.92963 6.98361C7.48512 6.83583 7.03506 6.70915 6.57621 6.61239C6.45439 6.58688 6.43184 6.63086 6.43272 6.73672C6.43594 7.0833 6.43389 7.42989 6.43389 7.77677ZM9.62126 11.157C9.62126 10.8107 9.62008 10.4644 9.62213 10.1181C9.62272 10.0313 9.60193 9.96888 9.51057 9.9378C9.0769 9.7909 8.64382 9.64224 8.21191 9.49064C8.10503 9.45311 8.06989 9.48859 8.06989 9.59444C8.07135 10.297 8.07135 10.9993 8.06989 11.7018C8.06989 11.7871 8.1021 11.8335 8.18643 11.8604C8.61776 11.9991 9.04791 12.1405 9.4769 12.2865C9.58846 12.3246 9.62477 12.2997 9.62301 12.1812C9.61833 11.8399 9.62126 11.4983 9.62126 11.157Z" fill="#E36E1B"/>
</svg>
