<svg width="20" height="20" viewBox="0 0 20 20" fill="none" xmlns="http://www.w3.org/2000/svg">
<path d="M20 10C20 15.5228 15.5228 20 10 20C4.47715 20 0 15.5228 0 10C0 4.47715 4.47715 0 10 0C15.5228 0 20 4.47715 20 10Z" fill="#141414"/>
<path d="M11.3254 9.39457C11.3257 9.50268 11.2854 9.60647 11.2135 9.68322C11.1417 9.75996 11.044 9.80339 10.9419 9.80399H9.32543C9.22338 9.80339 9.12572 9.75996 9.05383 9.68322C8.98195 9.60647 8.94171 9.50268 8.94193 9.39457V6.85714C8.94171 6.74903 8.98195 6.64523 9.05383 6.56849C9.12572 6.49175 9.22338 6.44832 9.32543 6.44771H10.9417C11.0438 6.44824 11.1415 6.49164 11.2134 6.56839C11.2854 6.64514 11.3257 6.74898 11.3254 6.85714V9.39457ZM16.4496 5.26257L14.7559 7.82171C14.7318 7.85773 14.701 7.88812 14.6654 7.91102C14.6297 7.93392 14.5901 7.94884 14.5488 7.95485L11.9975 8.30828V7.94714L13.7181 6.11C13.9013 5.91457 14.0039 5.65024 14.0035 5.37485V2H13.3292V5.37485C13.3295 5.41692 13.3218 5.45862 13.3068 5.49755C13.2918 5.53649 13.2696 5.57188 13.2416 5.60171L11.9972 6.93028V6.85714C11.998 6.5592 11.8871 6.27311 11.6891 6.06161C11.491 5.85011 11.2218 5.73044 10.9406 5.72885H9.32543C9.0442 5.73044 8.77504 5.85011 8.57697 6.06161C8.37889 6.27311 8.26806 6.5592 8.26878 6.85714V6.92971L7.02362 5.60114C6.99562 5.57131 6.97346 5.53591 6.95842 5.49698C6.94338 5.45805 6.93575 5.41635 6.93597 5.37428V2H6.26336V5.37485C6.26286 5.51129 6.28784 5.64648 6.33685 5.77265C6.38587 5.89881 6.45796 6.01346 6.54897 6.11L8.26959 7.94714V8.30828L5.71832 7.95485C5.67697 7.94907 5.63721 7.93425 5.60156 7.91133C5.5659 7.88841 5.53513 7.85789 5.5112 7.82171L3.81458 5.26257L3.26495 5.67743L4.95968 8.23657C5.03704 8.35369 5.13658 8.45244 5.25197 8.52652C5.36736 8.60061 5.49606 8.6484 5.62986 8.66685L8.2677 9.03228V9.39342C8.26698 9.69136 8.37781 9.97745 8.57589 10.189C8.77396 10.4005 9.04312 10.5201 9.32435 10.5217H10.9406C11.2218 10.5201 11.491 10.4005 11.6891 10.189C11.8871 9.97745 11.998 9.69136 11.9972 9.39342V9.03257L14.6351 8.66714C14.7687 8.64818 14.8973 8.60018 15.0126 8.52614C15.1279 8.45209 15.2276 8.35361 15.3053 8.23685L17 5.67771L16.4496 5.26257Z" fill="#FCCE00"/>
<path d="M10.653 12.9531L9.07369 12.5817C8.97393 12.558 8.88711 12.4933 8.83223 12.4019C8.77734 12.3105 8.75885 12.1998 8.78081 12.094L9.29106 9.61629C9.30159 9.56397 9.32177 9.51435 9.35044 9.47031C9.3791 9.42626 9.41569 9.38863 9.45811 9.3596C9.50053 9.33056 9.54794 9.31067 9.59762 9.30109C9.64731 9.2915 9.69829 9.29239 9.74765 9.30372L11.327 9.67515C11.4267 9.69891 11.5135 9.76356 11.5684 9.85496C11.6233 9.94636 11.6418 10.0571 11.6198 10.1629L11.1096 12.6417C11.099 12.694 11.0788 12.7436 11.0501 12.7875C11.0214 12.8315 10.9848 12.8691 10.9424 12.898C10.9 12.9269 10.8526 12.9467 10.8029 12.9562C10.7532 12.9656 10.7023 12.9646 10.653 12.9531ZM15.2755 12.2069C15.2235 12.0747 15.1462 11.9554 15.0484 11.8565C14.9506 11.7576 14.8346 11.6812 14.7075 11.6323L12.2045 10.6714L12.2768 10.318C12.337 10.0269 12.2861 9.72248 12.1353 9.47095C11.9845 9.21943 11.746 9.04122 11.4718 8.97515L9.89247 8.60372C9.75653 8.57244 9.61611 8.56988 9.47923 8.59617C9.34236 8.62247 9.21172 8.67711 9.09481 8.75697C8.97789 8.83683 8.877 8.94033 8.7979 9.06156C8.71879 9.18278 8.66304 9.31935 8.63383 9.46344L8.56155 9.81686L5.91131 9.56915C5.77703 9.55701 5.64185 9.57451 5.51428 9.62054C5.38672 9.66657 5.26956 9.74013 5.1702 9.83658L3 11.9471L3.45362 12.4789L5.62355 10.3677C5.65423 10.3379 5.69045 10.3153 5.72987 10.3012C5.76929 10.287 5.81106 10.2818 5.85251 10.2857L8.41457 10.5246L8.34229 10.8769L6.29265 12.2769C6.18438 12.3505 6.09094 12.4461 6.01772 12.5581C5.94449 12.6702 5.89293 12.7965 5.866 12.9297L5.18854 16.2257L5.84631 16.3797L6.52458 13.0831C6.53295 13.042 6.5489 13.0031 6.57154 12.9685C6.59417 12.9339 6.62303 12.9044 6.65646 12.8817L8.13976 11.8691L8.12411 11.9394C8.06396 12.2305 8.11482 12.535 8.26561 12.7865C8.41639 13.038 8.65489 13.2162 8.92914 13.2823L10.5084 13.6537C10.6444 13.685 10.7848 13.6876 10.9217 13.6613C11.0586 13.635 11.1892 13.5803 11.3061 13.5005C11.423 13.4206 11.5239 13.3171 11.603 13.1959C11.6821 13.0747 11.7379 12.9381 11.7671 12.794L11.7817 12.7234L12.7302 14.3063C12.7516 14.3419 12.7662 14.3816 12.7731 14.4232C12.7799 14.4648 12.779 14.5074 12.7703 14.5486L12.0921 17.846L12.7498 18L13.4281 14.7034C13.4842 14.4342 13.4372 14.1523 13.2973 13.9197L11.9861 11.7314L12.0584 11.3791L14.4788 12.3091C14.5179 12.3245 14.5536 12.3481 14.5837 12.3786C14.6139 12.409 14.6378 12.4457 14.6541 12.4863L15.7952 15.3734L16.4155 15.0937L15.2755 12.2069Z" fill="white"/>
<path d="M11.3254 9.39457C11.3257 9.50268 11.2854 9.60647 11.2135 9.68322C11.1417 9.75996 11.044 9.80339 10.9419 9.80399H9.32543C9.22338 9.80339 9.12572 9.75996 9.05383 9.68322C8.98195 9.60647 8.94171 9.50268 8.94193 9.39457V6.85714C8.94171 6.74903 8.98195 6.64523 9.05383 6.56849C9.12572 6.49175 9.22338 6.44832 9.32543 6.44771H10.9417C11.0438 6.44824 11.1415 6.49164 11.2134 6.56839C11.2854 6.64514 11.3257 6.74898 11.3254 6.85714V9.39457ZM16.4496 5.26257L14.7559 7.82171C14.7318 7.85773 14.701 7.88812 14.6654 7.91102C14.6297 7.93392 14.5901 7.94884 14.5488 7.95485L11.9975 8.30828V7.94714L13.7181 6.11C13.9013 5.91457 14.0039 5.65024 14.0035 5.37485V2H13.3292V5.37485C13.3295 5.41692 13.3218 5.45862 13.3068 5.49755C13.2918 5.53649 13.2696 5.57188 13.2416 5.60171L11.9972 6.93028V6.85714C11.998 6.5592 11.8871 6.27311 11.6891 6.06161C11.491 5.85011 11.2218 5.73044 10.9406 5.72885H9.32543C9.0442 5.73044 8.77504 5.85011 8.57697 6.06161C8.37889 6.27311 8.26806 6.5592 8.26878 6.85714V6.92971L7.02362 5.60114C6.99562 5.57131 6.97346 5.53591 6.95842 5.49698C6.94338 5.45805 6.93575 5.41635 6.93597 5.37428V2H6.26336V5.37485C6.26286 5.51129 6.28784 5.64648 6.33685 5.77265C6.38587 5.89881 6.45796 6.01346 6.54897 6.11L8.26959 7.94714V8.30828L5.71832 7.95485C5.67697 7.94907 5.63721 7.93425 5.60156 7.91133C5.5659 7.88841 5.53513 7.85789 5.5112 7.82171L3.81458 5.26257L3.26495 5.67743L4.95968 8.23657C5.03704 8.35369 5.13658 8.45244 5.25197 8.52652C5.36736 8.60061 5.49606 8.6484 5.62986 8.66685L8.2677 9.03228V9.39342C8.26698 9.69136 8.37781 9.97745 8.57589 10.189C8.77396 10.4005 9.04312 10.5201 9.32435 10.5217H10.9406C11.2218 10.5201 11.491 10.4005 11.6891 10.189C11.8871 9.97745 11.998 9.69136 11.9972 9.39342V9.03257L14.6351 8.66714C14.7687 8.64818 14.8973 8.60018 15.0126 8.52614C15.1279 8.45209 15.2276 8.35361 15.3053 8.23685L17 5.67771L16.4496 5.26257Z" fill="#FCCE00"/>
</svg>
