<svg width="20" height="20" viewBox="0 0 20 20" fill="none" xmlns="http://www.w3.org/2000/svg">
<path d="M19.6927 12.4128C19.2168 14.3318 18.1824 16.0665 16.7203 17.3974C15.2582 18.7284 13.4342 19.5957 11.4791 19.8896C9.52394 20.1836 7.52553 19.891 5.73672 19.0488C3.94792 18.2067 2.44912 16.8529 1.42997 15.1587C0.410821 13.4645 -0.0828724 11.506 0.01136 9.53114C0.105592 7.55626 0.783515 5.65372 1.95935 4.06424C3.13518 2.47477 4.75608 1.2698 6.61694 0.601806C8.4778 -0.0661867 10.495 -0.167181 12.4133 0.311602C14.9822 0.952792 17.1917 2.58729 18.5566 4.85619C19.9214 7.12509 20.3301 9.8429 19.6927 12.4128Z" fill="#F7931A"/>
<g opacity="0.24">
<path d="M10.0155 19.9859C9.19387 19.9809 8.37592 19.876 7.57961 19.6736C5.0149 19.0289 2.81028 17.394 1.44875 15.1269C0.0872213 12.8598 -0.320196 10.1455 0.315757 7.57861C0.794393 5.66158 1.83058 3.92947 3.29336 2.60117C4.75614 1.27288 6.57986 0.408023 8.53403 0.115918C10.4882 -0.176188 12.4851 0.117563 14.2724 0.960047C16.0596 1.80253 17.557 3.15593 18.5753 4.8492C19.4853 6.36499 19.9768 8.09505 19.9998 9.86283C20.0227 11.6306 19.5763 13.3729 18.706 14.9118C17.8358 16.4507 16.5728 17.7312 15.0461 18.6226C13.5193 19.514 11.7834 19.9844 10.0155 19.9859ZM9.99674 1.87308C8.18561 1.87449 6.42694 2.48138 5.00041 3.59726C3.57387 4.71314 2.56137 6.27393 2.12391 8.03143C1.66034 10.0999 2.02405 12.2676 3.13736 14.0715C4.25066 15.8754 6.02527 17.1724 8.08204 17.6853C10.1388 18.1983 12.3146 17.8866 14.1446 16.8168C15.9747 15.747 17.3137 14.0039 17.8758 11.96C18.1339 10.9253 18.1856 9.84995 18.028 8.79527C17.8704 7.74058 17.5065 6.72728 16.9573 5.81322C16.4081 4.89915 15.6841 4.10224 14.8269 3.46798C13.9696 2.83372 12.9958 2.37454 11.961 2.11667C11.3185 1.95661 10.6589 1.87482 9.99674 1.87308Z" fill="white"/>
</g>
<g opacity="0.3">
<path d="M19.3934 6.59789L0.131358 11.5977C-0.266376 9.14049 0.267216 6.62334 1.62769 4.53889C2.98817 2.45444 5.07759 0.952745 7.48699 0.327739C9.89639 -0.297268 12.4523 -0.000592651 14.6545 1.1597C16.8567 2.31998 18.5465 4.26035 19.3934 6.60102V6.59789Z" fill="white"/>
</g>
<path d="M17.8726 11.9601C17.4838 13.5182 16.6417 14.9261 15.4528 16.0057C14.2639 17.0853 12.7815 17.788 11.1932 18.0251C9.60485 18.2622 7.98188 18.0229 6.52953 17.3376C5.07718 16.6523 3.86067 15.5516 3.03385 14.1749C2.20703 12.7982 1.80703 11.2072 1.88444 9.60314C1.96185 7.99908 2.5132 6.45399 3.46875 5.16329C4.4243 3.87258 5.74114 2.89422 7.25274 2.35193C8.76434 1.80964 10.4028 1.72779 11.9609 2.11671C14.0501 2.63819 15.8466 3.96819 16.9552 5.81415C18.0639 7.66011 18.3938 9.87084 17.8726 11.9601Z" fill="#F7931A"/>
<path d="M14.034 8.89329C14.2089 7.71284 13.3157 7.07577 12.0947 6.65418L12.4944 5.05213L11.5263 4.80854L11.1391 6.36999L10.3646 6.18574L10.7518 4.62429L9.78684 4.37134L9.39024 5.97026L8.76566 5.82348L7.43218 5.48933L7.18547 6.52614C7.18547 6.52614 7.90374 6.69165 7.88812 6.70102C8.02214 6.71898 8.14394 6.78829 8.22783 6.89432C8.31173 7.00036 8.35116 7.13483 8.33782 7.26939L7.25418 11.6414C7.24031 11.6858 7.21783 11.727 7.18802 11.7626C7.1582 11.7982 7.12165 11.8276 7.08045 11.8491C7.03924 11.8706 6.99421 11.8837 6.94792 11.8877C6.90164 11.8917 6.85501 11.8866 6.81072 11.8725L6.10807 11.6945L5.62402 12.8219L6.87318 13.1342L7.56334 13.3153L7.18547 14.9361L8.15045 15.1797L8.54705 13.5776C8.80938 13.6495 9.06546 13.715 9.31841 13.7775L8.9218 15.3733L9.8899 15.6169L10.2896 13.9992C11.9385 14.3115 13.1783 14.1866 13.6998 12.6845C14.1214 11.4759 13.6811 10.7764 12.8129 10.3236C13.4375 10.1768 13.9184 9.75833 14.0621 8.89329H14.034ZM11.8261 12.0162C11.5138 13.2247 9.50266 12.5721 8.84998 12.4097L9.3715 10.2611C10.0336 10.4266 12.1384 10.7514 11.8261 12.0131V12.0162ZM12.1384 8.89329C11.8667 9.99567 10.1835 9.43668 9.64007 9.29927L10.1241 7.3537C10.6675 7.49111 12.4257 7.74719 12.1415 8.89329H12.1384Z" fill="white"/>
</svg>
