<svg width="25" height="24" viewBox="0 0 25 24" fill="none" xmlns="http://www.w3.org/2000/svg">
<path d="M14.9396 4H9.93964L7.43964 7H4.43964C3.9092 7 3.4005 7.21071 3.02542 7.58579C2.65035 7.96086 2.43964 8.46957 2.43964 9V18C2.43964 18.5304 2.65035 19.0391 3.02542 19.4142C3.4005 19.7893 3.9092 20 4.43964 20H20.4396C20.9701 20 21.4788 19.7893 21.8538 19.4142C22.2289 19.0391 22.4396 18.5304 22.4396 18V9C22.4396 8.46957 22.2289 7.96086 21.8538 7.58579C21.4788 7.21071 20.9701 7 20.4396 7H17.4396L14.9396 4Z" stroke="white" stroke-width="2" stroke-linecap="round" stroke-linejoin="round"/>
<path d="M12.4396 16C14.0965 16 15.4396 14.6569 15.4396 13C15.4396 11.3431 14.0965 10 12.4396 10C10.7828 10 9.43964 11.3431 9.43964 13C9.43964 14.6569 10.7828 16 12.4396 16Z" stroke="white" stroke-width="2" stroke-linecap="round" stroke-linejoin="round"/>
</svg>
