<svg width="20" height="20" viewBox="0 0 20 20" fill="none" xmlns="http://www.w3.org/2000/svg">
<path d="M10 0C15.5234 0 20 4.47754 20 10C20 15.5234 15.5234 20 10 20C4.47754 20 0 15.5229 0 10C0 4.47754 4.47754 0 10 0Z" fill="#F5AC37"/>
<path d="M14.1684 10.7061C14.2494 10.7061 14.2876 10.7061 14.2935 10.5999C14.3245 10.2133 14.3245 9.8245 14.2935 9.43749C14.2935 9.36234 14.2561 9.33129 14.1747 9.33129H6.61237C6.51876 9.33129 6.49357 9.36234 6.49357 9.45009V10.5625C6.49357 10.7061 6.49357 10.7061 6.64342 10.7061H14.1684ZM13.8691 8.03123C13.8799 8.00288 13.8799 7.97183 13.8691 7.94393C13.8057 7.80578 13.7305 7.67393 13.6432 7.55018C13.5118 7.33867 13.357 7.14382 13.1806 6.96877C13.0974 6.86302 13.0011 6.76807 12.8931 6.68752C12.3522 6.22716 11.7091 5.90136 11.0179 5.73756C10.6692 5.65926 10.3128 5.62191 9.95545 5.62506H6.59932C6.50571 5.62506 6.49311 5.66241 6.49311 5.74386V7.96238C6.49311 8.05598 6.49311 8.08118 6.61192 8.08118H13.8241C13.8241 8.08118 13.8867 8.06858 13.8993 8.03123H13.8687H13.8691ZM13.8691 12.0061C13.7629 11.9944 13.6558 11.9944 13.5496 12.0061H6.61867C6.52506 12.0061 6.49357 12.0061 6.49357 12.1312V14.3002C6.49357 14.4001 6.49357 14.4253 6.61867 14.4253H9.81865C9.97165 14.437 10.1247 14.4262 10.2745 14.3943C10.7389 14.361 11.1957 14.2602 11.6313 14.0941C11.7897 14.0392 11.9427 13.9677 12.0871 13.8817H12.1308C12.8809 13.4916 13.4902 12.8787 13.8745 12.1263C13.8745 12.1263 13.9182 12.0318 13.8691 12.007V12.0061ZM5.2376 15.5499V12.0939C5.2376 12.0124 5.2376 12.0003 5.1377 12.0003H3.78139C3.70624 12.0003 3.67519 12.0003 3.67519 11.9004V10.7128H5.1251C5.2061 10.7128 5.2376 10.7128 5.2376 10.6066V9.43164C5.2376 9.35649 5.2376 9.33804 5.1377 9.33804H3.78139C3.70624 9.33804 3.67519 9.33804 3.67519 9.23814V8.13833C3.67519 8.06948 3.67519 8.05103 3.77509 8.05103H5.1188C5.2124 8.05103 5.2376 8.05103 5.2376 7.93223V4.5635C5.2376 4.46359 5.2376 4.43839 5.3627 4.43839H10.05C10.3902 4.45189 10.7281 4.48924 11.0625 4.5509C11.7514 4.67825 12.4134 4.9244 13.0186 5.27585C13.42 5.5121 13.7895 5.79741 14.1184 6.12591C14.3659 6.38286 14.5891 6.66097 14.7871 6.95707C14.9838 7.25722 15.1472 7.57808 15.2754 7.91333C15.2912 8.00063 15.3749 8.05958 15.4622 8.04473H16.5809C16.7244 8.04473 16.7244 8.04473 16.7307 8.18243V9.20754C16.7307 9.30744 16.6934 9.33264 16.593 9.33264H15.7304C15.6431 9.33264 15.6179 9.33264 15.6242 9.44514C15.6584 9.82585 15.6584 10.2079 15.6242 10.5886C15.6242 10.6948 15.6242 10.7074 15.7434 10.7074H16.7303C16.7739 10.7637 16.7303 10.8199 16.7303 10.8766C16.7366 10.9491 16.7366 11.0224 16.7303 11.0949V11.8513C16.7303 11.9575 16.6992 11.989 16.6052 11.989H15.4239C15.3416 11.9733 15.2615 12.0259 15.2426 12.1078C14.9613 12.8391 14.5113 13.4947 13.9299 14.0203C13.7175 14.2116 13.4943 14.3916 13.2612 14.5576C13.011 14.7016 12.7675 14.8515 12.511 14.9703C12.039 15.1827 11.544 15.3393 11.0359 15.4388C10.5535 15.5252 10.0644 15.5643 9.5734 15.5576H5.2358V15.5513L5.2376 15.5499Z" fill="#FEFEFD"/>
</svg>
