<svg width="17" height="16" viewBox="0 0 17 16" fill="none" xmlns="http://www.w3.org/2000/svg">
<path d="M14.4535 9.3798H13.3372C13.1892 9.3798 13.0472 9.32099 12.9425 9.21632C12.8379 9.11165 12.7791 8.96968 12.7791 8.82166C12.7791 8.67363 12.8379 8.53166 12.9425 8.42699C13.0472 8.32232 13.1892 8.26352 13.3372 8.26352H14.4535C14.7001 8.26312 14.9365 8.16499 15.1108 7.99062C15.2852 7.81625 15.3833 7.57988 15.3837 7.33328V2.86817C15.3833 2.62157 15.2852 2.3852 15.1108 2.21083C14.9365 2.03646 14.7001 1.93833 14.4535 1.93793H2.54651C2.29992 1.93833 2.06354 2.03646 1.88917 2.21083C1.71481 2.3852 1.61667 2.62157 1.61628 2.86817V7.33328C1.61667 7.57988 1.71481 7.81625 1.88917 7.99062C2.06354 8.16499 2.29992 8.26312 2.54651 8.26352H3.66279C3.81082 8.26352 3.95278 8.32232 4.05746 8.42699C4.16213 8.53166 4.22093 8.67363 4.22093 8.82166C4.22093 8.96968 4.16213 9.11165 4.05746 9.21632C3.95278 9.32099 3.81082 9.3798 3.66279 9.3798H2.54651C2.00386 9.3794 1.48355 9.16366 1.09984 8.77995C0.716135 8.39624 0.500394 7.87593 0.5 7.33328V2.86817C0.500394 2.32552 0.716135 1.80521 1.09984 1.4215C1.48355 1.03779 2.00386 0.822049 2.54651 0.821655H14.4535C14.9961 0.822049 15.5164 1.03779 15.9002 1.4215C16.2839 1.80521 16.4996 2.32552 16.5 2.86817V7.33328C16.4996 7.87593 16.2839 8.39624 15.9002 8.77995C15.5164 9.16366 14.9961 9.3794 14.4535 9.3798Z" fill="#BABEC5"/>
<path d="M11.8489 15.3333H5.1512C4.60855 15.3329 4.08824 15.1172 3.70453 14.7335C3.32082 14.3497 3.10508 13.8294 3.10469 13.2868V4.35655C3.10469 4.20852 3.16349 4.06656 3.26816 3.96189C3.37283 3.85722 3.5148 3.79841 3.66283 3.79841H13.3372C13.4853 3.79841 13.6272 3.85722 13.7319 3.96189C13.8366 4.06656 13.8954 4.20852 13.8954 4.35655V13.2868C13.895 13.8294 13.6792 14.3497 13.2955 14.7335C12.9118 15.1172 12.3915 15.3329 11.8489 15.3333ZM4.22097 4.91469V13.2868C4.22136 13.5334 4.31949 13.7698 4.49386 13.9441C4.66823 14.1185 4.90461 14.2166 5.1512 14.217H11.8489C12.0955 14.2166 12.3318 14.1185 12.5062 13.9441C12.6806 13.7698 12.7787 13.5334 12.7791 13.2868V4.91469H4.22097Z" fill="#BABEC5"/>
<path d="M8.50021 6.77522C8.4269 6.77504 8.35429 6.78941 8.28658 6.81752C8.21888 6.84562 8.15743 6.8869 8.10579 6.93894L5.87324 9.1715C5.77465 9.2773 5.72097 9.41724 5.72352 9.56184C5.72608 9.70643 5.78465 9.8444 5.88691 9.94666C5.98917 10.0489 6.12714 10.1075 6.27173 10.11C6.41633 10.1126 6.55627 10.0589 6.66207 9.96033L8.50021 8.12294L10.3384 9.96033C10.4442 10.0589 10.5841 10.1126 10.7287 10.11C10.8733 10.1075 11.0113 10.0489 11.1135 9.94666C11.2158 9.8444 11.2744 9.70643 11.2769 9.56184C11.2795 9.41724 11.2258 9.2773 11.1272 9.1715L8.89463 6.93894C8.843 6.8869 8.78155 6.84562 8.71384 6.81752C8.64614 6.78941 8.57352 6.77504 8.50021 6.77522Z" fill="#BABEC5"/>
<path d="M8.50021 6.77522C8.35219 6.77522 8.21047 6.83427 8.10579 6.93894C8.00112 7.04361 7.94219 7.18529 7.94219 7.33331V12.5426C7.94219 12.6906 8.00099 12.8326 8.10566 12.9373C8.21033 13.042 8.3523 13.1008 8.50033 13.1008C8.64836 13.1008 8.79032 13.042 8.89499 12.9373C8.99966 12.8326 9.05847 12.6906 9.05847 12.5426V7.33331C9.05847 7.18529 8.9993 7.04361 8.89463 6.93894C8.78996 6.83427 8.64824 6.77522 8.50021 6.77522Z" fill="#BABEC5"/>
<path d="M14.0811 4.91469H2.9183C2.77027 4.91469 2.6283 4.85589 2.52363 4.75122C2.41896 4.64655 2.36016 4.50458 2.36016 4.35655C2.36016 4.20852 2.41896 4.06656 2.52363 3.96189C2.6283 3.85722 2.77027 3.79841 2.9183 3.79841H14.0811C14.2291 3.79841 14.3711 3.85722 14.4758 3.96189C14.5804 4.06656 14.6392 4.20852 14.6392 4.35655C14.6392 4.50458 14.5804 4.64655 14.4758 4.75122C14.3711 4.85589 14.2291 4.91469 14.0811 4.91469Z" fill="#BABEC5"/>
</svg>
