<svg width="48" height="48" viewBox="0 0 48 48" fill="none" xmlns="http://www.w3.org/2000/svg">
<g opacity="0.25" filter="url(#filter0_f_5045_528)">
<rect x="6.09033" y="20.0283" width="35.9546" height="22.4716" rx="11.2358" fill="url(#paint0_linear_5045_528)"/>
</g>
<rect x="5" y="0.5" width="38.9508" height="38.9508" rx="4" fill="url(#paint1_linear_5045_528)"/>
<g filter="url(#filter1_i_5045_528)">
<path d="M31.5048 13.4106C33.7699 16.7646 34.8885 20.5477 34.4703 24.9029C34.4686 24.9213 34.459 24.9382 34.444 24.9494C32.7287 26.2178 31.0668 26.9876 29.4282 27.4981C29.4155 27.502 29.4018 27.5018 29.3892 27.4975C29.3765 27.4932 29.3656 27.485 29.3578 27.4741C28.9792 26.9437 28.6352 26.3844 28.3339 25.7972C28.3166 25.7626 28.3324 25.7209 28.368 25.7073C28.9143 25.5 29.4337 25.2516 29.9334 24.9574C29.9727 24.9342 29.9752 24.8774 29.9389 24.8501C29.8328 24.7709 29.7278 24.6875 29.6273 24.6042C29.6085 24.5888 29.5831 24.5858 29.5618 24.5961C26.318 26.1047 22.7646 26.1047 19.4824 24.5961C19.4611 24.5865 19.4357 24.5898 19.4174 24.605C19.3172 24.6883 19.2119 24.7709 19.1068 24.8501C19.0705 24.8774 19.0735 24.9342 19.1131 24.9574C19.6127 25.246 20.1322 25.5 20.6777 25.7083C20.7131 25.7219 20.7299 25.7626 20.7123 25.7972C20.4175 26.3852 20.0735 26.9444 19.6879 27.4749C19.6711 27.4963 19.6436 27.5062 19.6175 27.4981C17.9867 26.9876 16.3248 26.2178 14.6095 24.9494C14.5952 24.9382 14.5849 24.9206 14.5834 24.9021C14.2339 21.1349 14.9462 17.3205 17.5462 13.4099C17.5525 13.3995 17.562 13.3915 17.573 13.3867C18.8523 12.7954 20.2229 12.3603 21.6554 12.1119C21.6815 12.1079 21.7076 12.12 21.7211 12.1432C21.8981 12.4588 22.1004 12.8635 22.2373 13.1943C23.7473 12.962 25.2809 12.962 26.8224 13.1943C26.9593 12.8706 27.1546 12.4588 27.3308 12.1432C27.3371 12.1317 27.3468 12.1225 27.3586 12.1168C27.3704 12.1112 27.3837 12.1095 27.3965 12.1119C28.8298 12.3611 30.2004 12.7961 31.4787 13.3867C31.49 13.3915 31.4993 13.3995 31.5048 13.4106ZM23.005 20.5734C23.0208 19.4597 22.2145 18.5382 21.2024 18.5382C20.1986 18.5382 19.4001 19.4517 19.4001 20.5734C19.4001 21.6949 20.2144 22.6084 21.2024 22.6084C22.2065 22.6084 23.005 21.6949 23.005 20.5734ZM29.6691 20.5734C29.6849 19.4597 28.8787 18.5382 27.8668 18.5382C26.8628 18.5382 26.0643 19.4517 26.0643 20.5734C26.0643 21.6949 26.8786 22.6084 27.8668 22.6084C28.8787 22.6084 29.6691 21.6949 29.6691 20.5734Z" fill="white"/>
</g>
<defs>
<filter id="filter0_f_5045_528" x="0.630332" y="14.5683" width="46.8746" height="33.3917" filterUnits="userSpaceOnUse" color-interpolation-filters="sRGB">
<feFlood flood-opacity="0" result="BackgroundImageFix"/>
<feBlend mode="normal" in="SourceGraphic" in2="BackgroundImageFix" result="shape"/>
<feGaussianBlur stdDeviation="2.73" result="effect1_foregroundBlur_5045_528"/>
</filter>
<filter id="filter1_i_5045_528" x="13.9727" y="9.47217" width="21.1118" height="21.6118" filterUnits="userSpaceOnUse" color-interpolation-filters="sRGB">
<feFlood flood-opacity="0" result="BackgroundImageFix"/>
<feBlend mode="normal" in="SourceGraphic" in2="BackgroundImageFix" result="shape"/>
<feColorMatrix in="SourceAlpha" type="matrix" values="0 0 0 0 0 0 0 0 0 0 0 0 0 0 0 0 0 0 127 0" result="hardAlpha"/>
<feOffset dy="0.5"/>
<feGaussianBlur stdDeviation="1.25"/>
<feComposite in2="hardAlpha" operator="arithmetic" k2="-1" k3="1"/>
<feColorMatrix type="matrix" values="0 0 0 0 0 0 0 0 0 0 0 0 0 0 0 0 0 0 0.1 0"/>
<feBlend mode="normal" in2="shape" result="effect1_innerShadow_5045_528"/>
</filter>
<linearGradient id="paint0_linear_5045_528" x1="9.2571" y1="21.7031" x2="25.5336" y2="49.8627" gradientUnits="userSpaceOnUse">
<stop stop-color="#0088CC"/>
<stop offset="0.0001" stop-color="#5865F2"/>
<stop offset="1" stop-color="#4D5CFF"/>
</linearGradient>
<linearGradient id="paint1_linear_5045_528" x1="8.43066" y1="3.40287" x2="40.89" y2="38.5012" gradientUnits="userSpaceOnUse">
<stop stop-color="#5865F2"/>
<stop offset="0.0001" stop-color="#5865F2"/>
<stop offset="1" stop-color="#4D5CFF"/>
</linearGradient>
</defs>
</svg>
