<svg width="16" height="16" viewBox="0 0 16 16" fill="none" xmlns="http://www.w3.org/2000/svg">
<path d="M15.2794 0.718499C15.056 0.492198 14.7899 0.312516 14.4965 0.189878C14.2031 0.0672404 13.8883 0.00408936 13.5703 0.00408936C13.2524 0.00408936 12.9375 0.0672404 12.6441 0.189878C12.3508 0.312516 12.0847 0.492198 11.8613 0.718499L10.3243 2.27948L13.7184 5.67363L15.2554 4.13666C15.4833 3.91486 15.6648 3.65001 15.7895 3.35749C15.9142 3.06496 15.9796 2.75059 15.9818 2.4326C15.9841 2.11461 15.9231 1.79934 15.8026 1.50509C15.682 1.21085 15.5042 0.943476 15.2794 0.718499Z" fill="#BABEC5"/>
<path d="M9.18758 3.4162L2.47134 10.1324C2.41113 10.1943 2.35993 10.2644 2.31924 10.3406L0.0938382 14.8314C0.0292773 14.9526 -0.00301017 15.0884 8.07192e-05 15.2257C0.00317161 15.363 0.0415369 15.4972 0.111487 15.6154C0.181437 15.7336 0.28062 15.8318 0.399497 15.9006C0.518375 15.9694 0.652948 16.0064 0.790278 16.0081C0.91225 16.0086 1.03272 15.9813 1.1425 15.9281L5.63333 13.7027C5.7095 13.662 5.77957 13.6108 5.84147 13.5506L12.5577 6.83436L9.18758 3.4162Z" fill="#BABEC5"/>
<path d="M15.1994 16.0081H7.99482C7.78252 16.0081 7.57891 15.9238 7.42878 15.7737C7.27866 15.6236 7.19432 15.42 7.19432 15.2076C7.19432 14.9953 7.27866 14.7917 7.42878 14.6416C7.57891 14.4915 7.78252 14.4071 7.99482 14.4071H15.1994C15.4117 14.4071 15.6153 14.4915 15.7654 14.6416C15.9155 14.7917 15.9999 14.9953 15.9999 15.2076C15.9999 15.42 15.9155 15.6236 15.7654 15.7737C15.6153 15.9238 15.4117 16.0081 15.1994 16.0081Z" fill="#BABEC5"/>
</svg>
