<svg width="20" height="20" viewBox="0 0 20 20" fill="none" xmlns="http://www.w3.org/2000/svg">
<path d="M10 20.0063C15.5228 20.0063 20 15.5292 20 10.0063C20 4.4835 15.5228 0.00634766 10 0.00634766C4.47715 0.00634766 0 4.4835 0 10.0063C0 15.5292 4.47715 20.0063 10 20.0063Z" fill="#5F7EDD"/>
<path d="M9.99883 13.4114L5.79883 10.9302L9.99883 16.8502L14.2026 10.9302L9.99883 13.4114Z" fill="white"/>
<path d="M14.1994 10.1338L9.99813 12.6163L5.79688 10.1338L9.99813 3.1626L14.1994 10.1338Z" fill="white"/>
<path d="M14.1993 10.1336L9.99805 8.2236V3.16235L14.1993 10.1336Z" fill="#C1CCF7"/>
<path d="M14.2018 10.9299L9.99805 16.8499V13.4112L14.2018 10.9299Z" fill="#C1CCF7"/>
<path d="M9.99785 8.22363V12.6161L5.79785 10.1336L9.99785 8.22363Z" fill="#C1CCF7"/>
<path d="M14.2003 10.1339L9.99902 12.6164V8.22388L14.2003 10.1339Z" fill="#8198EE"/>
</svg>
