<svg width="17" height="16" viewBox="0 0 17 16" fill="none" xmlns="http://www.w3.org/2000/svg">
<path d="M14.16 2.35C12.71 0.899998 10.71 0 8.5 0C6.29 0 4.29 0.899998 2.85 2.35C1.4 3.79 0.5 5.79 0.5 8C0.5 12.42 4.09 16 8.5 16C10.71 16 12.71 15.11 14.16 13.66C15.61 12.21 16.5 10.21 16.5 8C16.5 5.79 15.61 3.79 14.16 2.35ZM10.07 8.5L12.5 10.94C12.79 11.23 12.79 11.7 12.5 12C12.35 12.14 12.16 12.22 11.97 12.22C11.78 12.22 11.58 12.14 11.44 12L9.01 9.56C8.73 9.29 8.29 9.29 8.01 9.56L5.57 12C5.43 12.14 5.23 12.22 5.04 12.22C4.85 12.22 4.66 12.14 4.51 12C4.22 11.7 4.22 11.23 4.51 10.94L6.95 8.50999C7.23 8.22999 7.23 7.78999 6.95 7.50999L4.51 5.07C4.22 4.78 4.22 4.29999 4.51 4.00999C4.8 3.71999 5.28 3.71999 5.57 4.00999L8.01 6.45C8.29 6.73 8.73 6.73 9.01 6.45L11.44 4.00999C11.73 3.71999 12.21 3.71999 12.5 4.00999C12.79 4.29999 12.79 4.78 12.5 5.07L10.06 7.50999C9.79 7.78999 9.79 8.23 10.07 8.5Z" fill="#FF7169"/>
</svg>
