<svg width="17" height="17" viewBox="0 0 17 17" fill="none" xmlns="http://www.w3.org/2000/svg">
<path d="M5.01786 8.01013V15.3947C5.01786 15.7332 4.74093 16.0101 4.40247 16.0101H3.47939C2.45786 16.0101 1.63324 15.1855 1.63324 14.164V9.2409C1.63324 8.21936 2.45786 7.39475 3.47939 7.39475H4.40247C4.74093 7.39475 5.01786 7.67167 5.01786 8.01013Z" fill="#2D94FF"/>
<path d="M16.4209 9.2409C16.4209 9.43782 16.3902 9.63475 16.3286 9.82552L14.6855 14.7486C14.4394 15.4994 13.7317 16.0101 12.9379 16.0101H7.05478C6.71632 16.0101 6.43939 15.7332 6.43939 15.3947V8.01013C6.43939 7.86244 6.49478 7.7209 6.58709 7.61013L9.9717 3.66552C10.5625 2.97013 11.6025 2.89013 12.2979 3.48705C12.784 3.90552 12.9871 4.57013 12.8086 5.19167L12.1809 7.39475H14.5809C15.5963 7.39475 16.4209 8.21936 16.4209 9.2409Z" fill="#2D94FF"/>
<path d="M11.3625 1.85629C11.024 1.85629 10.7471 1.57936 10.7471 1.2409V0.625516C10.7471 0.287055 11.024 0.0101318 11.3625 0.0101318C11.7009 0.0101318 11.9779 0.287055 11.9779 0.625516V1.2409C11.9779 1.57936 11.7009 1.85629 11.3625 1.85629Z" fill="#2D94FF"/>
<path d="M13.104 2.57629C12.7655 2.57629 12.4886 2.29936 12.4886 1.9609C12.4886 1.79475 12.5563 1.6409 12.6671 1.52398L13.104 1.08705C13.344 0.847055 13.7317 0.847055 13.9717 1.08705C14.2117 1.32705 14.2117 1.71475 13.9717 1.95475L13.5348 2.39167C13.4179 2.50859 13.264 2.57013 13.0979 2.57013L13.104 2.57629Z" fill="#2D94FF"/>
<path d="M9.62093 2.57629C9.45478 2.57629 9.30093 2.50859 9.18401 2.39782L8.74709 1.9609C8.50709 1.7209 8.50709 1.33321 8.74709 1.09321C8.98709 0.853209 9.37478 0.853209 9.61478 1.09321L10.0517 1.53013C10.2917 1.77013 10.2917 2.15782 10.0517 2.39782C9.93478 2.51475 9.78093 2.57629 9.61478 2.57629H9.62093Z" fill="#2D94FF"/>
</svg>
