<svg width="121" height="41" viewBox="0 0 121 41" fill="none" xmlns="http://www.w3.org/2000/svg">
  <path d="M50 12.4201C50 11.5601 50.13 10.7601 50.4 10.0101C50.67 9.26006 51.05 8.62006 51.54 8.07006C52.03 7.52006 52.64 7.09006 53.35 6.78006C54.06 6.47006 54.86 6.31006 55.75 6.31006C56.84 6.31006 57.88 6.51006 58.86 6.91006L58.28 9.11006C57.97 8.98006 57.62 8.87006 57.23 8.78006C56.84 8.69006 56.42 8.65006 55.98 8.65006C54.93 8.65006 54.13 8.98006 53.58 9.64006C53.03 10.3001 52.76 11.2301 52.76 12.4301C52.76 13.6301 53.02 14.5001 53.54 15.1701C54.06 15.8401 54.93 16.1801 56.16 16.1801C56.62 16.1801 57.07 16.1401 57.51 16.0501C57.95 15.9601 58.34 15.8501 58.66 15.7201L59.04 17.9401C58.74 18.0901 58.3 18.2201 57.7 18.3401C57.1 18.4601 56.48 18.5201 55.85 18.5201C54.86 18.5201 54 18.3701 53.26 18.0701C52.53 17.7701 51.92 17.3401 51.44 16.8001C50.96 16.2601 50.6 15.6201 50.36 14.8701C50.12 14.1201 50.01 13.3101 50.01 12.4401L50 12.4201Z" fill="#A9BDCD"/>
  <path d="M62.23 18.22V1.44L64.92 1V6.75C65.22 6.65 65.56 6.56 65.95 6.48C66.34 6.41 66.73 6.37 67.12 6.37C68.05 6.37 68.83 6.5 69.44 6.76C70.05 7.02 70.55 7.38 70.92 7.85C71.29 8.32 71.55 8.87 71.71 9.53C71.87 10.19 71.94 10.91 71.94 11.71V18.24H69.25V12.14C69.25 11.52 69.21 10.99 69.13 10.55C69.05 10.11 68.92 9.76 68.73 9.49C68.54 9.22 68.3 9.02 67.99 8.89C67.68 8.76 67.29 8.7 66.84 8.7C66.48 8.7 66.12 8.74 65.75 8.81C65.38 8.88 65.11 8.95 64.93 9.01V18.24H62.24L62.23 18.22Z" fill="#A9BDCD"/>
  <path d="M80.1199 6.31995C81.0099 6.31995 81.7499 6.42995 82.3599 6.64995C82.9699 6.86995 83.4499 7.17995 83.8099 7.57995C84.1699 7.97995 84.4299 8.45995 84.5899 9.02995C84.7499 9.59995 84.8199 10.2199 84.8199 10.9099V17.9499C84.4099 18.0399 83.7799 18.1499 82.9399 18.2699C82.0999 18.3999 81.1599 18.4599 80.1099 18.4599C79.4099 18.4599 78.7799 18.3899 78.1999 18.2599C77.6199 18.1299 77.1299 17.9099 76.7199 17.6199C76.3099 17.3199 75.9899 16.9399 75.7699 16.4699C75.5399 15.9999 75.4299 15.4099 75.4299 14.7199C75.4299 14.0299 75.5599 13.4899 75.8199 13.0299C76.0799 12.5699 76.4299 12.1999 76.8699 11.9099C77.3099 11.6199 77.8299 11.4099 78.4099 11.2899C78.9899 11.1599 79.5999 11.0999 80.2399 11.0999C80.5399 11.0999 80.8499 11.1199 81.1699 11.1599C81.4899 11.1999 81.8399 11.2599 82.2099 11.3499V10.9099C82.2099 10.5999 82.1699 10.2999 82.0999 10.0199C82.0299 9.73995 81.8999 9.48995 81.7099 9.27995C81.5199 9.06995 81.2799 8.89995 80.9799 8.77995C80.6799 8.65995 80.2999 8.59995 79.8399 8.59995C79.2199 8.59995 78.6499 8.63995 78.1299 8.72995C77.6099 8.81995 77.1899 8.91995 76.8599 9.03995L76.5299 6.85995C76.8699 6.73995 77.3699 6.61995 78.0199 6.50995C78.6699 6.39995 79.3699 6.32995 80.1099 6.32995L80.1199 6.31995ZM80.3399 16.3299C81.1699 16.3299 81.7999 16.2899 82.2299 16.1999V13.2199C82.0799 13.1799 81.8699 13.1299 81.5899 13.0899C81.3099 13.0499 80.9999 13.0199 80.6599 13.0199C80.3599 13.0199 80.0599 13.0399 79.7599 13.0899C79.4599 13.1399 79.1799 13.2199 78.9399 13.3299C78.6999 13.4499 78.4999 13.6199 78.3499 13.8299C78.1999 14.0399 78.1299 14.3199 78.1299 14.6399C78.1299 15.2799 78.3299 15.7199 78.7299 15.9599C79.1299 16.1999 79.6699 16.3299 80.3499 16.3299H80.3399Z" fill="#A9BDCD"/>
  <path d="M92.2199 3.21005C92.2199 3.71005 92.0599 4.11005 91.7299 4.41005C91.3999 4.71005 91.0199 4.85005 90.5799 4.85005C90.1399 4.85005 89.7299 4.70005 89.3999 4.41005C89.0699 4.11005 88.9099 3.71005 88.9099 3.21005C88.9099 2.71005 89.0699 2.29005 89.3999 1.99005C89.7299 1.69005 90.1199 1.55005 90.5799 1.55005C91.0399 1.55005 91.4099 1.70005 91.7299 1.99005C92.0599 2.29005 92.2199 2.69005 92.2199 3.21005ZM91.9299 34.25H89.2399V6.61005H91.9299V34.25Z" fill="#5C6C79"/>
  <path d="M96.4599 6.97999C96.9799 6.82999 97.6499 6.68999 98.4799 6.55999C99.3099 6.42999 100.23 6.35999 101.23 6.35999C102.18 6.35999 102.97 6.48999 103.61 6.74999C104.25 7.00999 104.75 7.36999 105.13 7.83999C105.51 8.30999 105.77 8.86999 105.93 9.52999C106.09 10.19 106.16 10.91 106.16 11.69V18.22H103.47V12.12C103.47 11.5 103.43 10.97 103.35 10.53C103.27 10.09 103.14 9.73999 102.95 9.46999C102.76 9.19999 102.51 8.99999 102.19 8.86999C101.87 8.73999 101.48 8.67999 101.02 8.67999C100.68 8.67999 100.32 8.69999 99.9499 8.74999C99.5799 8.78999 99.3099 8.82999 99.1299 8.85999V18.23H96.4399V6.97999H96.4599Z" fill="#A9BDCD"/>
  <path d="M85.7899 24.9699C85.5699 24.8999 85.2599 24.8199 84.8699 24.7399C84.4799 24.6599 84.0199 24.6199 83.5099 24.6199C83.2099 24.6199 82.8999 24.6499 82.5699 24.7099C82.2399 24.7699 81.9999 24.8199 81.8699 24.8699V34.1699H79.1799V23.1199C79.6999 22.9299 80.3499 22.7499 81.1199 22.5799C81.8999 22.4099 82.7599 22.3199 83.7099 22.3199C83.8899 22.3199 84.0899 22.3299 84.3299 22.3499C84.5699 22.3699 84.7999 22.3999 85.0399 22.4399C85.2799 22.4799 85.5099 22.5199 85.7299 22.5699C85.9499 22.6199 86.1299 22.6699 86.2599 22.7099L85.7899 24.9699Z" fill="#5C6C79"/>
  <path d="M96.4699 22.9301C96.9899 22.7801 97.66 22.6401 98.49 22.5101C99.32 22.3801 100.24 22.3101 101.24 22.3101C102.19 22.3101 102.98 22.4401 103.62 22.7001C104.26 22.9601 104.76 23.3201 105.14 23.7901C105.52 24.2601 105.78 24.8201 105.94 25.4801C106.1 26.1401 106.17 26.8601 106.17 27.6401V34.1701H103.48V28.0701C103.48 27.4501 103.44 26.9201 103.36 26.4801C103.28 26.0401 103.15 25.6901 102.96 25.4201C102.77 25.1501 102.52 24.9501 102.2 24.8201C101.88 24.6901 101.49 24.6301 101.03 24.6301C100.69 24.6301 100.33 24.6501 99.96 24.7001C99.59 24.7401 99.32 24.7801 99.14 24.8101V34.1801H96.45V22.9501L96.4699 22.9301Z" fill="#5C6C79"/>
  <path d="M120.15 32.98C120.15 34.83 119.68 36.1801 118.74 37.0401C117.8 37.9001 116.36 38.33 114.42 38.33C113.71 38.33 113.02 38.2701 112.34 38.1501C111.67 38.0301 111.06 37.88 110.51 37.68L111 35.39C111.46 35.58 111.98 35.7401 112.56 35.8601C113.15 35.9801 113.78 36.0401 114.46 36.0401C115.54 36.0401 116.31 35.82 116.77 35.37C117.23 34.93 117.46 34.27 117.46 33.39V32.9501C117.19 33.0801 116.84 33.22 116.41 33.35C115.97 33.48 115.47 33.55 114.91 33.55C114.17 33.55 113.49 33.43 112.88 33.2001C112.26 32.9601 111.74 32.62 111.3 32.16C110.86 31.7 110.52 31.13 110.28 30.4401C110.04 29.7501 109.91 28.96 109.91 28.05C109.91 27.21 110.04 26.43 110.3 25.72C110.56 25.01 110.94 24.4 111.43 23.9C111.92 23.4 112.53 23 113.24 22.72C113.95 22.44 114.76 22.3 115.66 22.3C116.56 22.3 117.36 22.37 118.15 22.5C118.93 22.63 119.6 22.77 120.15 22.92V32.9701V32.98ZM112.67 28.05C112.67 29.19 112.92 30.02 113.41 30.55C113.91 31.08 114.55 31.34 115.33 31.34C115.76 31.34 116.16 31.28 116.54 31.16C116.92 31.04 117.22 30.9 117.46 30.74V24.72C117.27 24.68 117.03 24.64 116.75 24.6C116.47 24.5601 116.11 24.54 115.68 24.54C114.7 24.54 113.96 24.86 113.44 25.51C112.92 26.15 112.66 27 112.66 28.05H112.67Z" fill="#5C6C79"/>
  <path d="M19.9889 36.1885C13.1579 36.1885 7.31607 31.9545 4.94397 25.9672C3.38971 24.7484 1.54521 23.057 0 20.9487C0.490012 31.5647 9.25106 40.0216 19.9889 40.0216C29.013 40.0216 36.6402 34.0475 39.1355 25.8384C38.365 24.1484 37.2639 22.654 36.1064 21.3942C35.4047 29.6819 28.4576 36.1885 19.9889 36.1885Z" fill="url(#paint0_linear_2122_1267)"/>
  <path d="M19.9889 36.1885C28.4577 36.1885 35.4048 29.6812 36.1071 21.3942C35.6902 20.9403 35.2663 20.5172 34.848 20.126C34.8181 24.0523 33.2763 27.7386 30.4971 30.5185C27.6906 33.325 23.9585 34.8709 19.9889 34.8709C16.0194 34.8709 12.288 33.325 9.48084 30.5185C8.58434 29.622 7.8187 28.6302 7.18878 27.5673C6.60341 27.1908 5.81967 26.6541 4.94336 25.9671C7.31685 31.9545 13.158 36.1885 19.9889 36.1885Z" fill="url(#paint1_linear_2122_1267)"/>
  <path d="M19.9888 3.83313C11.0538 3.83313 3.81079 11.0761 3.81079 20.0112C3.81079 20.4204 3.82819 20.8248 3.85812 21.2265C4.35927 21.7568 4.86947 22.2455 5.36922 22.6902C5.21053 21.8153 5.12839 20.9195 5.12839 20.0112C5.12839 16.0417 6.6743 12.3102 9.48073 9.50307C12.2872 6.69664 16.0193 5.15073 19.9888 5.15073C23.9583 5.15073 27.6898 6.69664 30.4969 9.50307C32.3428 11.349 33.6423 13.5951 34.3161 16.0458C34.818 16.4203 35.3713 16.8588 35.949 17.3593C34.6836 9.68613 28.0204 3.83313 19.9888 3.83313Z" fill="url(#paint2_linear_2122_1267)"/>
  <path d="M19.9888 0C10.309 0 2.23699 6.87339 0.381348 16.0054C1.19015 18.0184 2.48826 19.7773 3.85807 21.2264C3.82814 20.8248 3.81073 20.4204 3.81073 20.0111C3.81073 11.0761 11.0537 3.83309 19.9888 3.83309C28.0204 3.83309 34.6836 9.68609 35.949 17.3592C37.261 18.4952 38.6976 19.9471 39.9296 21.6837C39.9756 21.1325 39.9999 20.5742 39.9999 20.0111C39.9999 8.95873 31.0405 0 19.9888 0Z" fill="url(#paint3_linear_2122_1267)"/>
  <defs>
    <linearGradient id="paint0_linear_2122_1267" x1="19.5678" y1="20.4651" x2="19.5678" y2="40.022" gradientUnits="userSpaceOnUse">
      <stop stop-color="#A9BDCD"/>
      <stop offset="0.0318" stop-color="#A2B5C5"/>
      <stop offset="0.282" stop-color="#6C7D8A"/>
      <stop offset="0.5122" stop-color="#41515C"/>
      <stop offset="0.7154" stop-color="#22313B"/>
      <stop offset="0.8836" stop-color="#101D26"/>
      <stop offset="0.9963" stop-color="#09161F"/>
    </linearGradient>
    <linearGradient id="paint1_linear_2122_1267" x1="31.0628" y1="15.8313" x2="11.9968" y2="34.8972" gradientUnits="userSpaceOnUse">
      <stop stop-color="white"/>
      <stop offset="0.4215" stop-color="#A9BDCD"/>
      <stop offset="0.682" stop-color="#D3DFE5"/>
    </linearGradient>
    <linearGradient id="paint2_linear_2122_1267" x1="19.8799" y1="22.3579" x2="19.8799" y2="2.6849" gradientUnits="userSpaceOnUse">
      <stop offset="0.0226" stop-color="#A9BDCD"/>
      <stop offset="1" stop-color="#5C798C"/>
    </linearGradient>
    <linearGradient id="paint3_linear_2122_1267" x1="33.7809" y1="28.3262" x2="8.57777" y2="3.12302" gradientUnits="userSpaceOnUse">
      <stop stop-color="#A9BDCD" stop-opacity="0.5"/>
      <stop offset="0.7574" stop-color="#A9BDCD"/>
    </linearGradient>
  </defs>
</svg>
