<svg width="17" height="16" viewBox="0 0 17 16" fill="none" xmlns="http://www.w3.org/2000/svg">
<path d="M8.33325 0.00610352C6.751 0.00610352 5.20429 0.475295 3.88869 1.35435C2.5731 2.2334 1.54772 3.48283 0.942219 4.94463C0.336718 6.40644 0.178292 8.01498 0.486973 9.56682C0.795655 11.1187 1.55758 12.5441 2.6764 13.663C3.79522 14.7818 5.22068 15.5437 6.77253 15.8524C8.32438 16.1611 9.93291 16.0026 11.3947 15.3971C12.8565 14.7916 14.106 13.7663 14.985 12.4507C15.8641 11.1351 16.3333 9.58835 16.3333 8.0061C16.3307 5.88514 15.4871 3.85176 13.9873 2.35201C12.4876 0.852264 10.4542 0.00860568 8.33325 0.00610352ZM11.0293 10.7021C10.8929 10.8384 10.7079 10.915 10.5151 10.915C10.3222 10.915 10.1373 10.8384 10.0009 10.7021L7.81907 8.52028C7.68267 8.38393 7.60602 8.19897 7.60598 8.0061V3.64247C7.60598 3.44958 7.6826 3.2646 7.81899 3.12821C7.95538 2.99182 8.14037 2.91519 8.33325 2.91519C8.52614 2.91519 8.71112 2.99182 8.84751 3.12821C8.9839 3.2646 9.06053 3.44958 9.06053 3.64247V7.70501L11.0293 9.67374C11.1656 9.81012 11.2422 9.99507 11.2422 10.1879C11.2422 10.3808 11.1656 10.5657 11.0293 10.7021Z" fill="#FFEB82"/>
</svg>
