<svg width="16" height="16" viewBox="0 0 16 16" fill="none" xmlns="http://www.w3.org/2000/svg">
<path d="M14.2579 3.18945C13.7079 2.98944 13.1678 2.77945 12.6178 2.57944C10.3677 1.7394 8.11763 0.889369 5.86753 0.0493321C5.59752 -0.0606726 5.44751 0.00933041 5.33751 0.299343C5.1575 0.789364 4.96749 1.27939 4.78749 1.76941C4.67748 2.05942 4.74748 2.20941 5.0375 2.31942C5.28751 2.40942 5.52752 2.49943 5.78753 2.59943C5.65752 2.93945 5.52752 3.26945 5.40751 3.58946C4.95749 4.82952 5.00749 6.02958 5.66752 7.18963C5.67752 7.20963 5.68752 7.22963 5.69753 7.25964C5.66752 7.26964 5.64752 7.27964 5.62752 7.28964C4.39747 7.71966 3.57743 8.55969 3.09741 9.75974C2.95741 10.1098 2.8374 10.4598 2.69739 10.8198C2.43738 10.7298 2.19737 10.6298 1.94736 10.5398C1.65735 10.4398 1.50734 10.5098 1.39734 10.7898C1.21733 11.2698 1.03732 11.7598 0.857315 12.2399C0.73731 12.5599 0.797312 12.6999 1.11733 12.8199C2.33738 13.2699 3.55743 13.7299 4.76748 14.1899C6.34755 14.78 7.92762 15.37 9.50769 15.96C9.7577 16.05 9.91771 15.99 10.0077 15.76C10.2077 15.24 10.4077 14.71 10.5977 14.1799C10.6877 13.9599 10.6077 13.7999 10.3877 13.7099C10.1577 13.6199 9.92771 13.5399 9.6977 13.4499C9.6677 13.4299 9.62769 13.4199 9.58769 13.3999C9.7177 13.0699 9.8377 12.7499 9.95771 12.4199C10.4077 11.1898 10.3577 9.98976 9.7077 8.82971C9.6977 8.79971 9.6877 8.76971 9.6777 8.73971C9.6977 8.72971 9.7177 8.72969 9.7277 8.71969C10.9378 8.29967 11.7678 7.46965 12.2478 6.2996C12.3978 5.92959 12.5278 5.55958 12.6678 5.17956C12.9278 5.27956 13.1678 5.36957 13.4079 5.45957C13.7079 5.56958 13.8579 5.49957 13.9679 5.20956C14.1479 4.71954 14.3379 4.2295 14.5179 3.74947C14.6279 3.44946 14.5579 3.29946 14.2579 3.18945ZM8.90766 7.90966C8.74766 7.92966 8.58765 7.95967 8.42764 7.97967C8.18763 7.99967 8.04763 8.30968 8.27764 8.56969C8.35764 8.65969 8.42764 8.74969 8.50765 8.83969C9.27768 9.72973 9.43769 10.7498 9.11767 11.8498C8.99767 12.2598 8.81766 12.6599 8.66765 13.0799C6.97758 12.4499 5.29751 11.8198 3.60743 11.1798C3.77744 10.7398 3.90745 10.3098 4.09746 9.90974C4.61748 8.8297 5.45751 8.19967 6.65757 8.06967C7.16759 7.99967 7.26759 7.63965 6.97758 7.31964C6.60756 6.86962 6.26755 6.3996 6.14754 5.78957C7.90762 5.77957 9.6677 5.75956 11.4478 5.74956C10.9478 6.89961 10.1877 7.70965 8.90766 7.90966Z" fill="#FFA337"/>
</svg>
