<svg width="32" height="32" viewBox="0 0 32 32" fill="none" xmlns="http://www.w3.org/2000/svg">
<rect width="32" height="32" rx="16" fill="#34557C"/>
<path d="M15.4171 23.6849C15.207 23.4749 15.137 23.2648 15.137 22.9847L15.137 8.98034C15.137 8.42016 15.5572 8.00003 16.1173 8.00003C16.6775 8.00003 17.0976 8.42016 17.0976 8.98034L17.0976 22.9847C17.0976 23.5449 16.6775 23.965 16.1173 23.965C15.8372 23.965 15.6272 23.895 15.4171 23.6849Z" fill="#CDD1D7"/>
<path d="M15.4171 23.6849L9.11515 17.383C8.69502 16.9628 8.69502 16.4027 9.11515 15.9825C9.53528 15.5624 10.0955 15.5624 10.5156 15.9825L16.1173 21.5843L21.7191 15.9825C22.1392 15.5624 22.6994 15.5624 23.1195 15.9825C23.5397 16.4027 23.5397 16.9628 23.1195 17.383L16.8176 23.6849C16.3974 24.1051 15.8372 24.1051 15.4171 23.6849Z" fill="#CDD1D7"/>
</svg>
