<svg width="32" height="32" viewBox="0 0 32 32" fill="none" xmlns="http://www.w3.org/2000/svg">
<rect width="32" height="32" rx="16" fill="#CDD1D7"/>
<path d="M20.015 8.00035C20.2228 8.00652 20.4201 8.09312 20.565 8.24176L23.765 11.4326C23.8395 11.5067 23.8986 11.5946 23.9389 11.6915C23.9792 11.7884 24 11.8922 24 11.9971C24 12.102 23.9792 12.2059 23.9389 12.3027C23.8986 12.3996 23.8395 12.4875 23.765 12.5616L20.565 15.7526C20.491 15.8289 20.4026 15.8897 20.3047 15.9315C20.2069 15.9734 20.1017 15.9953 19.9953 15.9961C19.8889 15.9969 19.7833 15.9765 19.6849 15.9361C19.5865 15.8958 19.4971 15.8362 19.4221 15.7609C19.347 15.6857 19.2878 15.5964 19.2478 15.4981C19.2078 15.3998 19.188 15.2944 19.1893 15.1884C19.1907 15.0823 19.2133 14.9775 19.2558 14.8803C19.2983 14.783 19.3599 14.6952 19.4368 14.6219L21.2697 12.7922H8.8008C8.58841 12.7922 8.38473 12.7081 8.23455 12.5584C8.08437 12.4087 8 12.2057 8 11.994C8 11.7823 8.08437 11.5794 8.23455 11.4297C8.38473 11.28 8.58841 11.1959 8.8008 11.1959H21.2618L19.4368 9.37231C19.3203 9.26069 19.2405 9.11647 19.2078 8.95873C19.1751 8.801 19.191 8.6371 19.2536 8.4886C19.3162 8.3401 19.4224 8.21396 19.5583 8.1268C19.6942 8.03964 19.8534 7.99559 20.015 8.00035ZM12.0071 15.9752C12.1653 15.9765 12.3196 16.0245 12.4505 16.1132C12.5813 16.2019 12.6829 16.3272 12.7422 16.4734C12.8016 16.6196 12.8161 16.7801 12.784 16.9345C12.7519 17.089 12.6746 17.2304 12.5618 17.341L10.7258 19.1724H23.1978C23.4069 19.1769 23.606 19.263 23.7523 19.412C23.8986 19.5611 23.9805 19.7612 23.9805 19.9697C23.9805 20.1782 23.8986 20.3785 23.7523 20.5275C23.606 20.6765 23.4069 20.7625 23.1978 20.7671H10.7305L12.5618 22.5969C12.6455 22.6684 12.7135 22.7563 12.7616 22.8552C12.8096 22.9542 12.8366 23.062 12.8408 23.1718C12.8451 23.2816 12.8265 23.3911 12.7863 23.4934C12.746 23.5957 12.685 23.6887 12.6071 23.7665C12.5291 23.8442 12.4358 23.905 12.3332 23.9451C12.2305 23.9851 12.1206 24.0036 12.0104 23.9994C11.9003 23.9952 11.7922 23.9683 11.6929 23.9204C11.5936 23.8725 11.5054 23.8048 11.4336 23.7213L8.23361 20.5319C8.08458 20.3825 8.00093 20.1804 8.00093 19.9697C8.00093 19.759 8.08458 19.5569 8.23361 19.4075L11.4336 16.2166C11.5082 16.1403 11.5973 16.0795 11.6958 16.038C11.7943 15.9966 11.9002 15.9752 12.0071 15.9752Z" fill="#444F5F"/>
</svg>
