<svg width="32" height="33" viewBox="0 0 32 33" fill="none" xmlns="http://www.w3.org/2000/svg">
<rect y="0.0216064" width="32" height="32" rx="16" fill="#444F5F"/>
<path d="M11.985 8.02196C11.7772 8.02813 11.5799 8.11473 11.435 8.26337L8.23501 11.4542C8.16052 11.5283 8.10141 11.6163 8.06109 11.7131C8.02076 11.81 8 11.9139 8 12.0187C8 12.1236 8.02076 12.2275 8.06109 12.3243C8.10141 12.4212 8.16052 12.5092 8.23501 12.5832L11.435 15.7742C11.509 15.8505 11.5974 15.9113 11.6953 15.9532C11.7931 15.995 11.8983 16.0169 12.0047 16.0177C12.1111 16.0185 12.2167 15.9981 12.3151 15.9578C12.4135 15.9174 12.5029 15.8578 12.5779 15.7826C12.653 15.7073 12.7122 15.618 12.7522 15.5197C12.7922 15.4214 12.812 15.316 12.8107 15.21C12.8093 15.1039 12.7867 14.9991 12.7442 14.9019C12.7017 14.8046 12.6401 14.7168 12.5632 14.6435L10.7303 12.8138H23.1992C23.4116 12.8138 23.6153 12.7297 23.7655 12.58C23.9156 12.4303 24 12.2273 24 12.0156C24 11.8039 23.9156 11.601 23.7655 11.4513C23.6153 11.3016 23.4116 11.2175 23.1992 11.2175H10.7382L12.5632 9.39391C12.6797 9.28229 12.7595 9.13807 12.7922 8.98034C12.8249 8.82261 12.809 8.65871 12.7464 8.51021C12.6838 8.36171 12.5776 8.23557 12.4417 8.14841C12.3058 8.06125 12.1466 8.01719 11.985 8.02196ZM19.9929 15.9968C19.8347 15.9981 19.6804 16.0461 19.5495 16.1348C19.4187 16.2235 19.3171 16.3488 19.2578 16.495C19.1984 16.6412 19.1839 16.8017 19.216 16.9561C19.2481 17.1106 19.3254 17.252 19.4382 17.3626L21.2742 19.194H8.8022C8.59306 19.1985 8.39403 19.2846 8.24774 19.4336C8.10145 19.5827 8.01953 19.7828 8.01953 19.9913C8.01953 20.1998 8.10145 20.4001 8.24774 20.5491C8.39403 20.6981 8.59306 20.7841 8.8022 20.7887H21.2695L19.4382 22.6185C19.3545 22.69 19.2865 22.7779 19.2384 22.8769C19.1904 22.9758 19.1634 23.0836 19.1592 23.1934C19.1549 23.3032 19.1735 23.4127 19.2137 23.515C19.254 23.6173 19.315 23.7104 19.3929 23.7881C19.4709 23.8658 19.5642 23.9266 19.6668 23.9667C19.7695 24.0068 19.8794 24.0253 19.9896 24.021C20.0997 24.0168 20.2078 23.9899 20.3071 23.942C20.4064 23.8942 20.4946 23.8264 20.5664 23.7429L23.7664 20.5535C23.9154 20.4041 23.9991 20.202 23.9991 19.9913C23.9991 19.7806 23.9154 19.5785 23.7664 19.4291L20.5664 16.2382C20.4918 16.1619 20.4027 16.1011 20.3042 16.0597C20.2057 16.0182 20.0998 15.9968 19.9929 15.9968Z" fill="#A0A6B1"/>
</svg>
