<svg width="32" height="32" viewBox="0 0 32 32" fill="none" xmlns="http://www.w3.org/2000/svg">
<circle cx="16" cy="16" r="16" fill="#34557C"/>
<path d="M9.2938 11.3022C9.47492 11.1164 9.7215 11.0082 9.98131 11.0004C10.1832 10.9945 10.3822 11.0496 10.5521 11.1585C10.722 11.2675 10.8547 11.4251 10.933 11.6107C11.0112 11.7964 11.0312 12.0012 10.9903 12.1984C10.9494 12.3956 10.8496 12.5759 10.704 12.7154L8.4227 14.9949H23.848L21.555 12.7077C21.414 12.5694 21.3174 12.3926 21.2772 12.1996C21.2371 12.0065 21.2552 11.8059 21.3295 11.6232C21.4037 11.4404 21.5306 11.2837 21.6942 11.1729C21.8577 11.062 22.0506 11.002 22.2484 11.0004C22.382 11.0004 22.5143 11.0271 22.6374 11.079C22.7606 11.1308 22.872 11.2067 22.9652 11.3022L26.9652 15.2908C27.1515 15.4776 27.2561 15.7302 27.2561 15.9935C27.2561 16.2569 27.1515 16.5095 26.9652 16.6963L22.9652 20.683C22.8755 20.7874 22.7652 20.8721 22.6411 20.9319C22.5171 20.9917 22.3819 21.0254 22.2442 21.0307C22.1064 21.036 21.9691 21.0128 21.8408 20.9627C21.7124 20.9126 21.5959 20.8366 21.4984 20.7395C21.401 20.6423 21.3247 20.5261 21.2744 20.3982C21.2241 20.2702 21.2009 20.1334 21.2062 19.9961C21.2115 19.8589 21.2453 19.7241 21.3053 19.6005C21.3653 19.4768 21.4503 19.3669 21.555 19.2775L23.8441 16.9902L8.41293 16.9902L10.704 19.2774C10.8002 19.369 10.8771 19.4788 10.9302 19.6003C10.9833 19.7219 11.0116 19.8529 11.0133 19.9855C11.015 20.118 10.9902 20.2497 10.9402 20.3726C10.8903 20.4955 10.8162 20.6072 10.7224 20.7012C10.6286 20.7952 10.5169 20.8697 10.3939 20.9202C10.2708 20.9706 10.1389 20.9961 10.0059 20.9951C9.87285 20.9942 9.74134 20.9667 9.61907 20.9144C9.49679 20.8622 9.38621 20.7861 9.2938 20.6907L5.29377 16.702C5.20065 16.6094 5.12677 16.4995 5.07636 16.3784C5.02595 16.2573 5 16.1275 5 15.9964C5 15.8653 5.02595 15.7355 5.07636 15.6144C5.12677 15.4933 5.20065 15.3834 5.29377 15.2908L9.2938 11.3022Z" fill="#CDD1D7"/>
</svg>
