<svg width="16" height="16" viewBox="0 0 16 16" fill="none" xmlns="http://www.w3.org/2000/svg">
<path d="M15.1999 2.4047H0.799878C0.587705 2.4047 0.384222 2.48901 0.234192 2.63907C0.0841634 2.78914 -0.00012207 2.99268 -0.00012207 3.2049C-0.00012207 3.41713 0.0841634 3.62066 0.234192 3.77073C0.384222 3.9208 0.587705 4.00511 0.799878 4.00511H2.39988V13.6075C2.40007 14.2442 2.65299 14.8547 3.10303 15.3048C3.55308 15.755 4.16342 16.008 4.79988 16.0082H11.1999C11.8363 16.008 12.4467 15.755 12.8967 15.3048C13.3468 14.8547 13.5997 14.2442 13.5999 13.6075V4.00511H15.1999C15.4121 4.00511 15.6155 3.9208 15.7656 3.77073C15.9156 3.62066 15.9999 3.41713 15.9999 3.2049C15.9999 2.99268 15.9156 2.78914 15.7656 2.63907C15.6155 2.48901 15.4121 2.4047 15.1999 2.4047ZM7.19988 11.2069C7.19988 11.4192 7.11559 11.6227 6.96556 11.7728C6.81553 11.9228 6.61205 12.0071 6.39988 12.0071C6.1877 12.0071 5.98422 11.9228 5.83419 11.7728C5.68416 11.6227 5.59988 11.4192 5.59988 11.2069V7.20592C5.59988 6.99369 5.68416 6.79016 5.83419 6.64009C5.98422 6.49002 6.1877 6.40571 6.39988 6.40571C6.61205 6.40571 6.81553 6.49002 6.96556 6.64009C7.11559 6.79016 7.19988 6.99369 7.19988 7.20592V11.2069ZM10.3999 11.2069C10.3999 11.4192 10.3156 11.6227 10.1656 11.7728C10.0155 11.9228 9.81205 12.0071 9.59988 12.0071C9.3877 12.0071 9.18422 11.9228 9.03419 11.7728C8.88416 11.6227 8.79988 11.4192 8.79988 11.2069V7.20592C8.79988 6.99369 8.88416 6.79016 9.03419 6.64009C9.18422 6.49002 9.3877 6.40571 9.59988 6.40571C9.81205 6.40571 10.0155 6.49002 10.1656 6.64009C10.3156 6.79016 10.3999 6.99369 10.3999 7.20592V11.2069Z" fill="#BABEC5"/>
<path d="M6.39988 1.6045H9.59988C9.81205 1.6045 10.0155 1.52019 10.1656 1.37012C10.3156 1.22005 10.3999 1.01652 10.3999 0.804293C10.3999 0.592065 10.3156 0.388531 10.1656 0.238463C10.0155 0.0883962 9.81205 0.00408936 9.59988 0.00408936H6.39988C6.1877 0.00408936 5.98422 0.0883962 5.83419 0.238463C5.68416 0.388531 5.59988 0.592065 5.59988 0.804293C5.59988 1.01652 5.68416 1.22005 5.83419 1.37012C5.98422 1.52019 6.1877 1.6045 6.39988 1.6045Z" fill="#BABEC5"/>
</svg>
