<svg width="16" height="17" viewBox="0 0 16 17" fill="none" xmlns="http://www.w3.org/2000/svg">
<path d="M13.9535 9.3798H12.8372C12.6892 9.3798 12.5472 9.32099 12.4425 9.21632C12.3379 9.11165 12.2791 8.96968 12.2791 8.82166C12.2791 8.67363 12.3379 8.53166 12.4425 8.42699C12.5472 8.32232 12.6892 8.26352 12.8372 8.26352H13.9535C14.2001 8.26312 14.4365 8.16499 14.6108 7.99062C14.7852 7.81625 14.8833 7.57988 14.8837 7.33328V2.86817C14.8833 2.62157 14.7852 2.3852 14.6108 2.21083C14.4365 2.03646 14.2001 1.93833 13.9535 1.93793H2.04651C1.79992 1.93833 1.56354 2.03646 1.38917 2.21083C1.21481 2.3852 1.11667 2.62157 1.11628 2.86817V7.33328C1.11667 7.57988 1.21481 7.81625 1.38917 7.99062C1.56354 8.16499 1.79992 8.26312 2.04651 8.26352H3.16279C3.31082 8.26352 3.45278 8.32232 3.55746 8.42699C3.66213 8.53166 3.72093 8.67363 3.72093 8.82166C3.72093 8.96968 3.66213 9.11165 3.55746 9.21632C3.45278 9.32099 3.31082 9.3798 3.16279 9.3798H2.04651C1.50386 9.3794 0.983555 9.16366 0.599845 8.77995C0.216135 8.39624 0.000394223 7.87593 0 7.33328V2.86817C0.000394223 2.32552 0.216135 1.80521 0.599845 1.4215C0.983555 1.03779 1.50386 0.822049 2.04651 0.821655H13.9535C14.4961 0.822049 15.0164 1.03779 15.4002 1.4215C15.7839 1.80521 15.9996 2.32552 16 2.86817V7.33328C15.9996 7.87593 15.7839 8.39624 15.4002 8.77995C15.0164 9.16366 14.4961 9.3794 13.9535 9.3798Z" fill="#BABEC5"/>
<path d="M11.3489 15.3333H4.6512C4.10855 15.3329 3.58824 15.1172 3.20453 14.7335C2.82082 14.3497 2.60508 13.8294 2.60469 13.2868V4.35655C2.60469 4.20852 2.66349 4.06656 2.76816 3.96189C2.87283 3.85722 3.0148 3.79841 3.16283 3.79841H12.8372C12.9853 3.79841 13.1272 3.85722 13.2319 3.96189C13.3366 4.06656 13.3954 4.20852 13.3954 4.35655V13.2868C13.395 13.8294 13.1792 14.3497 12.7955 14.7335C12.4118 15.1172 11.8915 15.3329 11.3489 15.3333ZM3.72097 4.91469V13.2868C3.72136 13.5334 3.81949 13.7698 3.99386 13.9441C4.16823 14.1185 4.40461 14.2166 4.6512 14.217H11.3489C11.5955 14.2166 11.8318 14.1185 12.0062 13.9441C12.1806 13.7698 12.2787 13.5334 12.2791 13.2868V4.91469H3.72097Z" fill="#BABEC5"/>
<path d="M8.00021 13.1007C7.9269 13.1009 7.85429 13.0865 7.78658 13.0584C7.71888 13.0303 7.65743 12.989 7.60579 12.937L5.37324 10.7044C5.27465 10.5986 5.22097 10.4587 5.22352 10.3141C5.22608 10.1695 5.28465 10.0315 5.38691 9.92927C5.48917 9.82701 5.62714 9.76843 5.77173 9.76588C5.91633 9.76333 6.05627 9.81701 6.16207 9.9156L8.00021 11.753L9.83835 9.9156C9.94416 9.81701 10.0841 9.76333 10.2287 9.76588C10.3733 9.76843 10.5113 9.82701 10.6135 9.92927C10.7158 10.0315 10.7744 10.1695 10.7769 10.3141C10.7795 10.4587 10.7258 10.5986 10.6272 10.7044L8.39463 12.937C8.343 12.989 8.28155 13.0303 8.21384 13.0584C8.14614 13.0865 8.07352 13.1009 8.00021 13.1007Z" fill="#BABEC5"/>
<path d="M8.00021 13.1007C7.85219 13.1007 7.71047 13.0417 7.60579 12.937C7.50112 12.8323 7.44219 12.6906 7.44219 12.5426V7.33331C7.44219 7.18528 7.50099 7.04332 7.60566 6.93865C7.71033 6.83397 7.8523 6.77517 8.00033 6.77517C8.14836 6.77517 8.29032 6.83397 8.39499 6.93865C8.49966 7.04332 8.55847 7.18528 8.55847 7.33331V12.5426C8.55847 12.6906 8.4993 12.8323 8.39463 12.937C8.28996 13.0417 8.14824 13.1007 8.00021 13.1007Z" fill="#BABEC5"/>
<path d="M13.5811 4.91469H2.4183C2.27027 4.91469 2.1283 4.85589 2.02363 4.75122C1.91896 4.64655 1.86016 4.50458 1.86016 4.35655C1.86016 4.20852 1.91896 4.06656 2.02363 3.96189C2.1283 3.85722 2.27027 3.79841 2.4183 3.79841H13.5811C13.7291 3.79841 13.8711 3.85722 13.9758 3.96189C14.0804 4.06656 14.1392 4.20852 14.1392 4.35655C14.1392 4.50458 14.0804 4.64655 13.9758 4.75122C13.8711 4.85589 13.7291 4.91469 13.5811 4.91469Z" fill="#BABEC5"/>
</svg>
