<?xml version="1.0" encoding="iso-8859-1"?>
<!-- Uploaded to: SVG Repo, www.svgrepo.com, Generator: SVG Repo Mixer Tools -->
<svg height="800px" width="800px" version="1.1" id="Layer_1" xmlns="http://www.w3.org/2000/svg" xmlns:xlink="http://www.w3.org/1999/xlink"
	 viewBox="0 0 496.2 496.2" xml:space="preserve">
<path style="fill:#FFA337;" d="M496.2,248.1C496.2,111.1,385.1,0,248.1,0S0,111.1,0,248.1s111.1,248.1,248.1,248.1
	S496.2,385.1,496.2,248.1z"/>
<g>
	<path style="fill:#F9F9F9;" d="M275.4,299.4h-79.7c-3.3,0-12.6,2.7-12.6,5.9l6.7,36.8c0,3.3,2.7,5.9,5.9,5.9h79.7
		c3.3,0,5.9-2.7,5.9-5.9l6.7-36.8C288.1,302.1,278.7,299.4,275.4,299.4z"/>
	<path style="fill:#F9F9F9;" d="M347.1,198.5c0,0,6.6-24.4,36.7-24.4h40.8V209H418l-16.3,20L347.1,198.5z"/>
	<path style="fill:#F9F9F9;" d="M347.1,287.8c0,0,6.6,24.4,36.7,24.4h40.8v-34.9H418l-16.3-20L347.1,287.8z"/>
</g>
<g>
	<path style="fill:#93E5C2;" d="M406.6,257.6c2.9-1.4,5.2-2.5,6.9-3.4c3.3-4,5.1-7.8,5.1-11.3c-2.9,0.4-6.9,0.9-12.1,1.6
		C406.6,248.7,406.6,253.1,406.6,257.6z"/>
	<path style="fill:#93E5C2;" d="M388.2,246.6c-6.4,0.7-13.5,1.4-21.4,2.1c0,7.8-0.1,16.1-0.3,24.9c8.1-2.7,15.3-5.4,21.6-7.9
		C388.3,259,388.3,252.6,388.2,246.6z"/>
</g>
<path style="fill:#BDF4DF;" d="M406.5,242c5-0.6,9-1.2,11.9-1.5c-0.4-1.9-1.2-4-2.6-6c-1.5-0.7-4.7-2.1-9.6-4.1
	C406.4,234.1,406.5,237.9,406.5,242z"/>
<path style="fill:#93E5C2;" d="M404.3,244.8c-4,0.5-8.6,1-13.7,1.6c0.1,5.8,0,11.9-0.1,18.3c5.4-2.2,10-4.2,13.8-6
	C404.3,253.9,404.3,249.2,404.3,244.8z"/>
<g>
	<path style="fill:#D7F9EB;" d="M387.5,220.8c-0.2-3.2-0.4-6.3-0.6-9.3c-6.6-3.6-14.1-7.1-22.2-10.5c0.4,4,0.7,8.3,1,13
		C373.8,216.3,381.1,218.6,387.5,220.8z"/>
	<path style="fill:#D7F9EB;" d="M412.8,230.4c-1.9-2.1-4.1-4.3-6.8-6.4c0.1,1.2,0.1,2.5,0.2,3.7C408.8,228.7,411,229.6,412.8,230.4z
		"/>
	<path style="fill:#D7F9EB;" d="M310.2,201.7c4,0.7,8,1.4,11.9,2.1c-0.6-6.8-1.2-12.8-1.8-17.7c-16.1-4.4-33.4-8-51.1-10.5
		c0.8,5,1.8,12.2,2.7,21.4C284.6,198,297.4,199.6,310.2,201.7z"/>
	<path style="fill:#D7F9EB;" d="M403.8,226.7c-0.1-1.6-0.1-3.1-0.2-4.7c-4.1-3.1-8.8-6.2-14.3-9.2c0.2,2.8,0.4,5.7,0.5,8.8
		C395.2,223.5,399.9,225.2,403.8,226.7z"/>
</g>
<g>
	<path style="fill:#BDF4DF;" d="M388.2,244.1c-0.1-7.4-0.3-14.2-0.6-20.6c-6.3-2.2-13.6-4.5-21.8-6.8c0.5,8.8,0.9,18.6,1,29.5
		C374.7,245.5,381.8,244.7,388.2,244.1z"/>
	<path style="fill:#BDF4DF;" d="M312.5,249.9c3.9-0.2,7.8-0.4,11.5-0.6c-0.1-16.7-0.8-31.1-1.7-43c-4.1-0.8-8.2-1.5-12.5-2.2
		c-11.5-1.9-24.1-3.5-37.8-4.6c1.2,13.4,2.3,30.9,2.3,51.8C288.1,251,300.9,250.5,312.5,249.9z"/>
	<path style="fill:#BDF4DF;" d="M214,251.5c20.6,0.4,40.2,0.3,58.1-0.1c0-21.1-1.1-38.6-2.3-52.1c-17.9-1.4-37.4-1.9-58.2-1
		C212.9,212,213.9,229.8,214,251.5z"/>
	<path style="fill:#BDF4DF;" d="M364.5,246.4c-0.1-11.2-0.5-21.4-1-30.4c-11.4-3.2-24.5-6.4-38.8-9.2c0.9,11.7,1.6,25.9,1.7,42.4
		C340.3,248.3,353.1,247.4,364.5,246.4z"/>
	<path style="fill:#BDF4DF;" d="M404.2,242.3c-0.1-4.5-0.2-8.8-0.3-12.9c-3.9-1.5-8.5-3.3-14-5.1c0.3,6.1,0.5,12.6,0.6,19.6
		C395.6,243.3,400.2,242.7,404.2,242.3z"/>
</g>
<path style="fill:#D7F9EB;" d="M269.5,196.8c-0.9-9.4-1.9-16.7-2.7-21.6c-16.8-2.3-34.1-3.6-51.1-3.6c-2.5,0-5.1,0-7.5,0.1
	c0.8,4.6,2,12.8,3.2,24.1C230.5,194.9,250,195.3,269.5,196.8z"/>
<path style="fill:#93E5C2;" d="M312.6,252.4c-11.7,0.6-24.5,1.1-38.3,1.4c0,12.2-0.4,25.5-1.2,39.9c13.1-1.3,25.3-3.1,36.3-5.2
	c4.7-0.9,9.3-1.8,13.8-2.8c0.6-12.1,0.8-23.4,0.8-33.8C320.3,252,316.5,252.2,312.6,252.4z"/>
<path style="fill:#BDF4DF;" d="M209.3,198.5c-16.9,0.8-34.7,2.6-53,5.7c1,12.2,1.8,27.3,1.9,45c18.4,1.2,36.4,1.9,53.5,2.2
	C211.6,229.8,210.6,212,209.3,198.5z"/>
<g>
	<path style="fill:#93E5C2;" d="M364.5,248.9c-11.4,1-24.2,2-38.2,2.8c0,10.3-0.2,21.5-0.8,33.4c14.3-3.3,27.3-7,38.7-10.8
		C364.5,265.3,364.6,256.8,364.5,248.9z"/>
	<path style="fill:#93E5C2;" d="M241,254.2c-8.8,0-17.8-0.1-27.1-0.3c0,12.5-0.4,26.3-1.3,41.2c20.8,1.1,40.3,0.4,58.2-1.2
		c0.9-14.5,1.2-27.9,1.3-40.1C262.2,254.1,251.8,254.2,241,254.2z"/>
	<path style="fill:#93E5C2;" d="M158.2,251.7c0,11.2-0.3,23.5-0.9,36.7c18.4,3.6,36.1,5.8,53.1,6.7c0.9-14.9,1.3-28.6,1.3-41.2
		C194.5,253.6,176.6,252.8,158.2,251.7z"/>
</g>
<path style="fill:#D7F9EB;" d="M363.3,213.4c-0.3-4.8-0.7-9.2-1-13.3c-12-4.8-25.3-9.4-39.6-13.3c0.6,4.9,1.2,10.8,1.8,17.5
	C338.8,207,351.9,210.2,363.3,213.4z"/>
<g>
	<path style="fill:#82D8B1;" d="M71.3,263.1c12.9,17.1,40.9,35,82.4,44.3c0.4-5.8,0.8-11.4,1.1-16.9
		C126.1,284.6,98.2,275.5,71.3,263.1z"/>
	<path style="fill:#82D8B1;" d="M196.8,296.7c-13.4-1.2-26.6-3.1-39.7-5.7c-0.3,5.5-0.7,11.1-1.1,16.9c15.8,3.4,33.5,5.5,53,5.9
		c0.4-4.9,0.9-11.4,1.2-16.1C205.7,297.4,201.2,297.1,196.8,296.7z"/>
	<path style="fill:#82D8B1;" d="M232.5,298.3c-6.7,0-13.4-0.2-20-0.5c-0.3,4.7-0.8,11.1-1.2,16c1.5,0,2.9,0,4.4,0
		c18,0,36.2-1.5,54-4c0.4-4.5,0.7-9,1-13.3C257.9,297.7,245.1,298.3,232.5,298.3z"/>
</g>
<path style="fill:#D7F9EB;" d="M151.1,178.7c-42.8,10.1-70.9,29.4-82.2,47.2c27.4-10.8,55.8-18.8,84.9-23.8
	C152.9,192.2,152,184.3,151.1,178.7z"/>
<path style="fill:#BDF4DF;" d="M154,204.6c-28,4.9-57.3,12.7-87.1,24.7c-1.8,3.4-2.9,6.8-3.4,10c31.4,4.8,62.6,7.9,92.4,9.8
	C155.8,231.6,155,216.7,154,204.6z"/>
<g>
	<path style="fill:#82D8B1;" d="M309.9,290.9c-12.3,2.3-24.7,4.1-37,5.3c-0.3,4.3-0.6,8.7-0.9,13.2c17.5-2.6,34.6-6.3,50.5-10.7
		c0.2-3.6,0.4-7.1,0.6-10.5C318.8,289.2,314.4,290.1,309.9,290.9z"/>
	<path style="fill:#82D8B1;" d="M406.5,260.3c0,0.2,0,0.5,0,0.7c0.6-0.5,1.2-1,1.8-1.5C407.8,259.8,407.2,260,406.5,260.3z"/>
</g>
<path style="fill:#D7F9EB;" d="M197.2,196.6c3.9-0.3,7.9-0.5,11.8-0.7c-1.2-11.5-2.4-19.7-3.2-24.1c-19.3,0.6-36.8,2.9-52.5,6.4
	c0.8,5.7,1.8,13.6,2.7,23.5C169.6,199.3,183.4,197.6,197.2,196.6z"/>
<g>
	<path style="fill:#82D8B1;" d="M366.4,276.2c-0.1,2.5-0.2,5-0.3,7.6c8-3.4,15.3-6.9,21.8-10.4c0.1-1.7,0.1-3.4,0.1-5.1
		C381.7,270.8,374.5,273.5,366.4,276.2z"/>
	<path style="fill:#82D8B1;" d="M390.4,267.4c0,1.5-0.1,3.1-0.1,4.7c5.3-3,10-6.1,14-9.2c0-0.5,0-1,0-1.5
		C400.4,263.2,395.7,265.2,390.4,267.4z"/>
</g>
<path style="fill:#93E5C2;" d="M155.9,251.5c-29.9-1.9-61.2-5.1-92.7-9.8c0,0.3,0,0.7,0,1c0,5,1.8,10.6,5.4,16.4
	c29.5,14,58.6,23.1,86.4,28.8C155.6,274.8,155.9,262.7,155.9,251.5z"/>
<path style="fill:#82D8B1;" d="M325.4,287.7c-0.2,3.4-0.4,6.9-0.6,10.4c14.1-4,27.2-8.5,39-13.3c0.1-2.6,0.2-5.2,0.3-7.8
	C352.7,280.7,339.7,284.4,325.4,287.7z"/>
<path style="fill:#F7FCFA;" d="M418.6,242.7c0-0.7-0.1-1.5-0.2-2.3c-2.8,0.4-6.8,0.9-11.9,1.5c-0.1-4-0.2-7.9-0.3-11.7
	c4.9,2,8.2,3.4,9.6,4.1c-0.8-1.3-1.9-2.7-3.1-4c-1.8-0.8-4-1.7-6.7-2.7c0-1.2-0.1-2.5-0.2-3.7c-0.8-0.6-1.6-1.2-2.4-1.9
	c0.1,1.5,0.1,3.1,0.2,4.7c-3.9-1.5-8.6-3.3-14-5.1c-0.2-3-0.3-6-0.5-8.8c-0.8-0.4-1.6-0.9-2.4-1.3c0.2,3,0.4,6,0.6,9.3
	c-6.4-2.2-13.7-4.5-21.8-6.8c-0.3-4.7-0.6-9-1-13c-0.8-0.3-1.6-0.7-2.4-1c0.4,4.1,0.7,8.5,1,13.3c-11.5-3.2-24.5-6.4-38.9-9.1
	c-0.6-6.7-1.2-12.6-1.8-17.5c-0.8-0.2-1.6-0.4-2.4-0.7c0.6,5,1.3,10.9,1.8,17.7c-3.9-0.7-7.8-1.4-11.9-2.1
	c-12.8-2.1-25.6-3.7-38.4-4.7c-0.9-9.2-1.9-16.4-2.7-21.4c-0.8-0.1-1.6-0.2-2.4-0.3c0.8,4.9,1.8,12.2,2.7,21.6
	c-19.5-1.5-39-1.9-58.2-1c-1.1-11.3-2.4-19.5-3.2-24.1c-0.8,0-1.6,0-2.3,0.1c0.8,4.5,2.1,12.6,3.2,24.1c-3.9,0.2-7.9,0.4-11.8,0.7
	c-13.9,1-27.6,2.7-41.2,5c-0.9-9.9-1.9-17.8-2.7-23.5c-0.8,0.2-1.5,0.3-2.2,0.5c0.8,5.7,1.8,13.5,2.7,23.4
	c-29.1,5.1-57.5,13.1-84.9,23.8c-0.7,1.2-1.4,2.3-2,3.4c29.8-12,59.1-19.8,87.1-24.7c1,12.1,1.8,27,1.8,44.5
	c-29.8-1.9-61-5-92.4-9.8l0,0l0,0l-0.2,1.2l-0.2,1.2c0,0,0,0,0.1,0c31.5,4.8,62.7,7.9,92.7,9.8c0,11.1-0.3,23.3-0.9,36.3
	c-27.8-5.7-56.8-14.9-86.4-28.8c0.8,1.3,1.7,2.7,2.7,4c26.9,12.4,54.8,21.6,83.5,27.4c-0.3,5.5-0.7,11.1-1.1,16.9
	c0.7,0.2,1.5,0.3,2.3,0.5c0.4-5.8,0.8-11.4,1.1-16.9c13.1,2.6,26.4,4.5,39.7,5.7c4.4,0.4,8.9,0.7,13.4,1c-0.3,4.7-0.8,11.2-1.2,16.1
	l2.3,0.1c0.4-5,0.9-11.3,1.2-16c6.6,0.3,13.3,0.5,20,0.5c12.7,0,25.4-0.6,38.2-1.8c-0.3,4.3-0.6,8.8-1,13.3c0.8-0.1,1.6-0.2,2.3-0.3
	c0.4-4.5,0.7-8.9,0.9-13.2c12.3-1.2,24.6-3,37-5.3c4.5-0.9,8.9-1.8,13.2-2.7c-0.2,3.4-0.4,7-0.6,10.5c0.8-0.2,1.6-0.4,2.3-0.7
	c0.2-3.5,0.4-7,0.6-10.4c14.3-3.3,27.3-7,38.7-10.7c-0.1,2.6-0.2,5.2-0.3,7.8c0.8-0.3,1.6-0.7,2.3-1c0.1-2.6,0.2-5.1,0.3-7.6
	c8.1-2.7,15.3-5.4,21.6-7.9c0,1.7-0.1,3.4-0.1,5.1c0.8-0.4,1.6-0.9,2.3-1.3c0-1.6,0.1-3.1,0.1-4.7c5.4-2.2,10-4.2,13.9-6
	c0,0.5,0,1,0,1.5c0.8-0.6,1.6-1.2,2.3-1.8c0-0.2,0-0.5,0-0.7c0.6-0.3,1.2-0.6,1.8-0.8c2-1.8,3.7-3.5,5.1-5.3c-1.7,0.9-4,2-6.9,3.4
	c0-4.5,0-8.9,0-13.1c5.1-0.6,9.2-1.2,12.1-1.6C418.6,242.8,418.6,242.8,418.6,242.7z M403.9,229.4c0.1,4.1,0.3,8.4,0.3,12.9
	c-4,0.5-8.6,1-13.7,1.6c-0.1-7-0.3-13.5-0.6-19.6C395.4,226.1,400,227.9,403.9,229.4z M387.6,223.5c0.3,6.4,0.5,13.3,0.6,20.6
	c-6.4,0.7-13.5,1.4-21.4,2.1c-0.1-10.9-0.5-20.7-1-29.5C374,219,381.3,221.3,387.6,223.5z M363.5,216c0.5,9,0.9,19.1,1,30.4
	c-11.4,1-24.2,2-38.2,2.8c-0.1-16.4-0.8-30.6-1.7-42.4C339,209.6,352.1,212.8,363.5,216z M309.8,204.1c4.3,0.7,8.4,1.4,12.5,2.2
	c0.9,11.8,1.6,26.2,1.7,43c-3.8,0.2-7.6,0.4-11.5,0.6c-11.6,0.6-24.4,1.1-38.2,1.4c0-21-1-38.4-2.3-51.8
	C285.7,200.7,298.4,202.3,309.8,204.1z M269.7,199.3c1.2,13.4,2.3,30.9,2.3,52.1c-17.9,0.4-37.5,0.5-58.1,0.1
	c0-21.6-1.1-39.5-2.4-53.1C232.3,197.4,251.9,197.9,269.7,199.3z M156.3,204.2c18.3-3.1,36.1-4.9,53-5.7c1.3,13.6,2.4,31.4,2.4,53
	c-17.2-0.4-35.1-1.1-53.5-2.2C158.1,231.5,157.3,216.4,156.3,204.2z M157.2,288.3c0.7-13.2,1-25.4,0.9-36.7
	c18.4,1.2,36.4,1.9,53.5,2.2c0,12.5-0.4,26.3-1.3,41.2C193.4,294.1,175.6,292,157.2,288.3z M212.6,295.2c0.9-14.9,1.3-28.7,1.3-41.2
	c9.3,0.2,18.3,0.3,27.1,0.3c10.8,0,21.1-0.1,31-0.3c0,12.2-0.4,25.6-1.3,40.1C252.9,295.6,233.4,296.3,212.6,295.2z M309.4,288.5
	c-11.1,2.1-23.3,3.9-36.3,5.2c0.8-14.4,1.2-27.7,1.2-39.9c13.8-0.3,26.6-0.8,38.3-1.4c3.9-0.2,7.7-0.4,11.4-0.6
	c0,10.4-0.2,21.7-0.8,33.8C318.8,286.6,314.2,287.6,309.4,288.5z M325.5,285.1c0.6-12,0.8-23.1,0.8-33.4c14-0.8,26.8-1.8,38.2-2.8
	c0,8-0.1,16.5-0.4,25.5C352.8,278.1,339.8,281.8,325.5,285.1z M366.5,273.6c0.3-8.8,0.4-17.1,0.3-24.9c7.8-0.7,15-1.4,21.4-2.1
	c0.1,6,0,12.4-0.1,19C381.8,268.1,374.6,270.8,366.5,273.6z M404.3,258.7c-3.8,1.8-8.4,3.8-13.8,6c0.1-6.4,0.1-12.5,0.1-18.3
	c5.1-0.6,9.7-1.1,13.7-1.6C404.3,249.2,404.3,253.9,404.3,258.7z"/>
<path style="fill:#93E5C2;" d="M418.4,240.7c-114.9-19.1-289.5-9.6-354.6-3.3c-0.2,1.1-0.4,2.1-0.5,3.1
	c165.7-8.1,341.8,1.6,355.3,2.4v-0.1C418.6,242,418.5,241.4,418.4,240.7z"/>
<path style="fill:#F9F9F9;" d="M62.1,242.7c0,10.8,9.4,24.1,25.5,36.3v-72.5C71.6,218.6,62.1,231.9,62.1,242.7z"/>
<circle style="fill:#B6D6D2;" cx="206.9" cy="331" r="5.9"/>
<path style="fill:#92B7B2;" d="M212.5,332.9c-0.8,2.3-3,4-5.6,4s-4.8-1.7-5.6-4c0,0,2.3,1.5,5.6,1.5S212.5,332.9,212.5,332.9z"/>
<circle style="fill:#B6D6D2;" cx="226" cy="331" r="5.9"/>
<path style="fill:#92B7B2;" d="M231.6,332.9c-0.8,2.3-3,4-5.6,4s-4.8-1.7-5.6-4c0,0,2.3,1.5,5.6,1.5S231.6,332.9,231.6,332.9z"/>
<circle style="fill:#B6D6D2;" cx="245.3" cy="331" r="5.9"/>
<path style="fill:#92B7B2;" d="M251,332.9c-0.8,2.3-3,4-5.6,4s-4.8-1.7-5.6-4c0,0,2.3,1.5,5.6,1.5C248.7,334.4,251,332.9,251,332.9z
	"/>
<circle style="fill:#B6D6D2;" cx="264.5" cy="331" r="5.9"/>
<path style="fill:#92B7B2;" d="M270.1,332.9c-0.8,2.3-3,4-5.6,4s-4.8-1.7-5.6-4c0,0,2.3,1.5,5.6,1.5S270.1,332.9,270.1,332.9z"/>
</svg>
